SplineFontDB: 3.0
FontName: WineArial
FullName: Arial
FamilyName: Arial
Weight: Book
Copyright: Subset of the Liberation Sans font (2.00.1).\nDigitized data copyright (c) 2010 Google Corporation. \nCopyright (c) 2012 Red Hat, Inc.
UComments: "#pragma makedep install"
Version: 2.00.1
ItalicAngle: 0
UnderlinePosition: -142
UnderlineWidth: 150
Ascent: 1638
Descent: 410
LayerCount: 2
Layer: 0 1 "Back"  1
Layer: 1 1 "Fore"  0
XUID: [1021 445 290132255 7387324]
FSType: 0
OS2Version: 3
OS2_WeightWidthSlopeOnly: 0
OS2_UseTypoMetrics: 1
CreationTime: 1276856602
ModificationTime: 1396724264
PfmFamily: 17
TTFWeight: 400
TTFWidth: 5
LineGap: 67
VLineGap: 0
Panose: 2 11 6 4 2 2 2 2 2 4
OS2TypoAscent: 1491
OS2TypoAOffset: 0
OS2TypoDescent: -431
OS2TypoDOffset: 0
OS2TypoLinegap: 307
OS2WinAscent: 1854
OS2WinAOffset: 0
OS2WinDescent: 434
OS2WinDOffset: 0
HheadAscent: 1854
HheadAOffset: 0
HheadDescent: -434
HheadDOffset: 0
OS2SubXSize: 1434
OS2SubYSize: 1331
OS2SubXOff: 0
OS2SubYOff: 283
OS2SupXSize: 1434
OS2SupYSize: 1331
OS2SupXOff: 0
OS2SupYOff: 977
OS2StrikeYSize: 102
OS2StrikeYPos: 530
OS2FamilyClass: 2053
OS2Vendor: '1ASC'
OS2CodePages: 600001bf.dff70000
OS2UnicodeRanges: e0000aff.500078ff.00000021.00000000
Lookup: 1 0 0 "'locl' Localized Forms lookup 5"  {"'locl' Localized Forms lookup 5-1"  } ['locl' ('cyrl' <'SRB ' > 'cyrl' <'MKD ' > ) ]
Lookup: 4 1 0 "'dlig' Discretionary Ligatures in Hebrew lookup 0"  {"'dlig' Discretionary Ligatures in Hebrew lookup 0 subtable"  } ['dlig' ('hebr' <'dflt' > ) ]
Lookup: 4 1 0 "'ccmp' Glyph Composition/Decomposition in Hebrew lookup 1"  {"'ccmp' Glyph Composition/Decomposition in Hebrew lookup 1 subtable"  } ['ccmp' ('hebr' <'dflt' > ) ]
Lookup: 6 1 0 "'ccmp' Glyph Composition/Decomposition in Hebrew lookup 2"  {"'ccmp' Glyph Composition/Decomposition in Hebrew lookup 2 subtable"  } ['ccmp' ('hebr' <'dflt' > ) ]

StartChar: exclam
Encoding: 33 33 1
Width: 569
GlyphClass: 2
Flags: W
LayerCount: 2
Fore
SplineSet
359 397 m 1,0,-1
 211 397 l 1,1,-1
 187 1409 l 1,2,-1
 383 1409 l 1,3,-1
 359 397 l 1,0,-1
185 0 m 1,4,-1
 185 201 l 1,5,-1
 379 201 l 1,6,-1
 379 0 l 1,7,-1
 185 0 l 1,4,-1
EndSplineSet
EndChar

StartChar: quotedbl
Encoding: 34 34 2
Width: 727
GlyphClass: 2
Flags: W
LayerCount: 2
Fore
SplineSet
618 966 m 1,0,-1
 476 966 l 1,1,-1
 456 1409 l 1,2,-1
 640 1409 l 1,3,-1
 618 966 l 1,0,-1
249 966 m 1,4,-1
 108 966 l 1,5,-1
 87 1409 l 1,6,-1
 271 1409 l 1,7,-1
 249 966 l 1,4,-1
EndSplineSet
EndChar

StartChar: numbersign
Encoding: 35 35 3
Width: 1139
GlyphClass: 2
Flags: W
LayerCount: 2
Fore
SplineSet
896 885 m 1,0,-1
 818 516 l 1,1,-1
 1078 516 l 1,2,-1
 1078 408 l 1,3,-1
 795 408 l 1,4,-1
 707 0 l 1,5,-1
 597 0 l 1,6,-1
 683 408 l 1,7,-1
 320 408 l 1,8,-1
 236 0 l 1,9,-1
 126 0 l 1,10,-1
 210 408 l 1,11,-1
 9 408 l 1,12,-1
 9 516 l 1,13,-1
 234 516 l 1,14,-1
 312 885 l 1,15,-1
 60 885 l 1,16,-1
 60 993 l 1,17,-1
 334 993 l 1,18,-1
 423 1401 l 1,19,-1
 533 1401 l 1,20,-1
 445 993 l 1,21,-1
 808 993 l 1,22,-1
 896 1401 l 1,23,-1
 1006 1401 l 1,24,-1
 918 993 l 1,25,-1
 1129 993 l 1,26,-1
 1129 885 l 1,27,-1
 896 885 l 1,0,-1
425 885 m 1,28,-1
 345 516 l 1,29,-1
 707 516 l 1,30,-1
 785 885 l 1,31,-1
 425 885 l 1,28,-1
EndSplineSet
EndChar

StartChar: dollar
Encoding: 36 36 4
Width: 1139
GlyphClass: 2
Flags: W
LayerCount: 2
Fore
SplineSet
518 20 m 1,0,1
 92 38 92 38 22 379 c 1,2,-1
 192 416 l 1,3,4
 217 297 217 297 296.5 237 c 128,-1,5
 376 177 376 177 518 168 c 1,6,-1
 518 664 l 1,7,8
 341 708 341 708 273.5 743 c 128,-1,9
 206 778 206 778 164.5 823.5 c 128,-1,10
 123 869 123 869 104.5 921 c 128,-1,11
 86 973 86 973 86 1046 c 0,12,13
 86 1201 86 1201 198.5 1288.5 c 128,-1,14
 311 1376 311 1376 518 1385 c 1,15,-1
 518 1516 l 1,16,-1
 642 1516 l 1,17,-1
 642 1385 l 1,18,19
 829 1376 829 1376 931 1300.5 c 128,-1,20
 1033 1225 1033 1225 1075 1065 c 1,21,-1
 901 1032 l 1,22,23
 881 1126 881 1126 820 1178.5 c 128,-1,24
 759 1231 759 1231 642 1242 c 1,25,-1
 642 797 l 1,26,27
 821 755 821 755 896.5 720 c 128,-1,28
 972 685 972 685 1016 641 c 128,-1,29
 1060 597 1060 597 1083 537 c 128,-1,30
 1106 477 1106 477 1106 396 c 0,31,32
 1106 231 1106 231 985 131 c 128,-1,33
 864 31 864 31 642 20 c 1,34,-1
 642 -142 l 1,35,-1
 518 -142 l 1,36,-1
 518 20 l 1,0,1
934 394 m 0,37,38
 934 459 934 459 908 501 c 128,-1,39
 882 543 882 543 833 570.5 c 128,-1,40
 784 598 784 598 642 635 c 1,41,-1
 642 167 l 1,42,43
 783 176 783 176 858.5 234 c 128,-1,44
 934 292 934 292 934 394 c 0,37,38
258 1048 m 0,45,46
 258 989 258 989 283 948 c 128,-1,47
 308 907 308 907 357.5 879 c 128,-1,48
 407 851 407 851 518 823 c 1,49,-1
 518 1244 l 1,50,51
 258 1230 258 1230 258 1048 c 0,45,46
EndSplineSet
EndChar

StartChar: percent
Encoding: 37 37 5
Width: 1821
GlyphClass: 2
Flags: W
LayerCount: 2
Fore
SplineSet
1748 434 m 0,0,1
 1748 219 1748 219 1667 103.5 c 128,-1,2
 1586 -12 1586 -12 1428 -12 c 0,3,4
 1272 -12 1272 -12 1192.5 100.5 c 128,-1,5
 1113 213 1113 213 1113 434 c 0,6,7
 1113 662 1113 662 1189.5 773.5 c 128,-1,8
 1266 885 1266 885 1432 885 c 0,9,10
 1596 885 1596 885 1672 770.5 c 128,-1,11
 1748 656 1748 656 1748 434 c 0,0,1
527 0 m 1,12,-1
 372 0 l 1,13,-1
 1294 1409 l 1,14,-1
 1451 1409 l 1,15,-1
 527 0 l 1,12,-1
394 1421 m 0,16,17
 553 1421 553 1421 630 1309 c 128,-1,18
 707 1197 707 1197 707 975 c 0,19,20
 707 758 707 758 627.5 641 c 128,-1,21
 548 524 548 524 390 524 c 256,22,23
 232 524 232 524 152.5 640 c 128,-1,24
 73 756 73 756 73 975 c 0,25,26
 73 1198 73 1198 150 1309.5 c 128,-1,27
 227 1421 227 1421 394 1421 c 0,16,17
1600 434 m 0,28,29
 1600 613 1600 613 1561.5 693.5 c 128,-1,30
 1523 774 1523 774 1432 774 c 256,31,32
 1341 774 1341 774 1300.5 695 c 128,-1,33
 1260 616 1260 616 1260 434 c 0,34,35
 1260 263 1260 263 1299.5 180.5 c 128,-1,36
 1339 98 1339 98 1430 98 c 0,37,38
 1518 98 1518 98 1559 181.5 c 128,-1,39
 1600 265 1600 265 1600 434 c 0,28,29
560 975 m 0,40,41
 560 1151 560 1151 522 1232 c 128,-1,42
 484 1313 484 1313 394 1313 c 0,43,44
 300 1313 300 1313 260 1233.5 c 128,-1,45
 220 1154 220 1154 220 975 c 0,46,47
 220 802 220 802 260 719.5 c 128,-1,48
 300 637 300 637 392 637 c 0,49,50
 479 637 479 637 519.5 721 c 128,-1,51
 560 805 560 805 560 975 c 0,40,41
EndSplineSet
EndChar

StartChar: ampersand
Encoding: 38 38 6
Width: 1366
GlyphClass: 2
Flags: W
LayerCount: 2
Fore
SplineSet
1193 -12 m 0,0,1
 1016 -12 1016 -12 895 115 c 1,2,3
 820 50 820 50 724 15 c 128,-1,4
 628 -20 628 -20 523 -20 c 0,5,6
 308 -20 308 -20 190 83.5 c 128,-1,7
 72 187 72 187 72 371 c 0,8,9
 72 649 72 649 415 800 c 1,10,11
 382 862 382 862 358 947 c 128,-1,12
 334 1032 334 1032 334 1102 c 0,13,14
 334 1252 334 1252 425.5 1334.5 c 128,-1,15
 517 1417 517 1417 685 1417 c 0,16,17
 836 1417 836 1417 928.5 1341 c 128,-1,18
 1021 1265 1021 1265 1021 1133 c 0,19,20
 1021 1015 1021 1015 929.5 923 c 128,-1,21
 838 831 838 831 612 741 c 1,22,23
 723 536 723 536 905 329 c 1,24,25
 1018 495 1018 495 1076 739 c 1,26,-1
 1221 696 l 1,27,28
 1158 447 1158 447 1009 227 c 1,29,30
 1105 129 1105 129 1217 129 c 0,31,32
 1288 129 1288 129 1334 145 c 1,33,-1
 1334 10 l 1,34,35
 1278 -12 1278 -12 1193 -12 c 0,0,1
869 1133 m 0,36,37
 869 1205 869 1205 819 1250.5 c 128,-1,38
 769 1296 769 1296 683 1296 c 0,39,40
 587 1296 587 1296 537 1244.5 c 128,-1,41
 487 1193 487 1193 487 1102 c 0,42,43
 487 988 487 988 552 858 c 1,44,45
 683 911 683 911 744.5 950 c 128,-1,46
 806 989 806 989 837.5 1034 c 128,-1,47
 869 1079 869 1079 869 1133 c 0,36,37
795 217 m 1,48,49
 597 451 597 451 476 674 c 1,50,51
 240 574 240 574 240 373 c 0,52,53
 240 252 240 252 317.5 181.5 c 128,-1,54
 395 111 395 111 529 111 c 0,55,56
 600 111 600 111 671 138.5 c 128,-1,57
 742 166 742 166 795 217 c 1,48,49
EndSplineSet
EndChar

StartChar: quotesingle
Encoding: 39 39 7
Width: 391
GlyphClass: 2
Flags: W
LayerCount: 2
Fore
SplineSet
266 966 m 1,0,-1
 125 966 l 1,1,-1
 104 1409 l 1,2,-1
 288 1409 l 1,3,-1
 266 966 l 1,0,-1
EndSplineSet
EndChar

StartChar: parenleft
Encoding: 40 40 8
Width: 682
GlyphClass: 2
Flags: W
LayerCount: 2
Fore
SplineSet
127 532 m 2,0,1
 127 821 127 821 217.5 1051 c 128,-1,2
 308 1281 308 1281 496 1484 c 1,3,-1
 670 1484 l 1,4,5
 483 1276 483 1276 395.5 1042 c 128,-1,6
 308 808 308 808 308 530 c 0,7,8
 308 253 308 253 394.5 20 c 128,-1,9
 481 -213 481 -213 670 -424 c 1,10,-1
 496 -424 l 1,11,12
 307 -220 307 -220 217 10.5 c 128,-1,13
 127 241 127 241 127 528 c 2,14,-1
 127 532 l 2,0,1
EndSplineSet
EndChar

StartChar: parenright
Encoding: 41 41 9
Width: 682
GlyphClass: 2
Flags: W
LayerCount: 2
Fore
SplineSet
555 528 m 2,0,1
 555 239 555 239 464.5 9 c 128,-1,2
 374 -221 374 -221 186 -424 c 1,3,-1
 12 -424 l 1,4,5
 200 -214 200 -214 287 18.5 c 128,-1,6
 374 251 374 251 374 530 c 256,7,8
 374 809 374 809 286.5 1042 c 128,-1,9
 199 1275 199 1275 12 1484 c 1,10,-1
 186 1484 l 1,11,12
 375 1280 375 1280 465 1049.5 c 128,-1,13
 555 819 555 819 555 532 c 2,14,-1
 555 528 l 2,0,1
EndSplineSet
EndChar

StartChar: asterisk
Encoding: 42 42 10
Width: 797
GlyphClass: 2
Flags: W
LayerCount: 2
Fore
SplineSet
456 1114 m 1,0,-1
 720 1217 l 1,1,-1
 765 1085 l 1,2,-1
 483 1012 l 1,3,-1
 668 762 l 1,4,-1
 549 690 l 1,5,-1
 399 948 l 1,6,-1
 243 692 l 1,7,-1
 124 764 l 1,8,-1
 313 1012 l 1,9,-1
 33 1085 l 1,10,-1
 78 1219 l 1,11,-1
 345 1112 l 1,12,-1
 333 1409 l 1,13,-1
 469 1409 l 1,14,-1
 456 1114 l 1,0,-1
EndSplineSet
EndChar

StartChar: plus
Encoding: 43 43 11
Width: 1196
GlyphClass: 2
Flags: W
LayerCount: 2
Fore
SplineSet
671 608 m 1,0,-1
 671 180 l 1,1,-1
 524 180 l 1,2,-1
 524 608 l 1,3,-1
 100 608 l 1,4,-1
 100 754 l 1,5,-1
 524 754 l 1,6,-1
 524 1182 l 1,7,-1
 671 1182 l 1,8,-1
 671 754 l 1,9,-1
 1095 754 l 1,10,-1
 1095 608 l 1,11,-1
 671 608 l 1,0,-1
EndSplineSet
EndChar

StartChar: comma
Encoding: 44 44 12
Width: 569
GlyphClass: 2
Flags: W
LayerCount: 2
Fore
SplineSet
385 219 m 1,0,-1
 385 51 l 2,1,2
 385 -55 385 -55 366 -126 c 128,-1,3
 347 -197 347 -197 307 -262 c 1,4,-1
 184 -262 l 1,5,6
 278 -126 278 -126 278 0 c 1,7,-1
 190 0 l 1,8,-1
 190 219 l 1,9,-1
 385 219 l 1,0,-1
EndSplineSet
EndChar

StartChar: hyphen
Encoding: 45 45 13
Width: 682
GlyphClass: 2
Flags: W
LayerCount: 2
Fore
SplineSet
91 464 m 1,0,-1
 91 624 l 1,1,-1
 591 624 l 1,2,-1
 591 464 l 1,3,-1
 91 464 l 1,0,-1
EndSplineSet
EndChar

StartChar: period
Encoding: 46 46 14
Width: 569
GlyphClass: 2
Flags: W
LayerCount: 2
Fore
SplineSet
187 0 m 1,0,-1
 187 219 l 1,1,-1
 382 219 l 1,2,-1
 382 0 l 1,3,-1
 187 0 l 1,0,-1
EndSplineSet
EndChar

StartChar: slash
Encoding: 47 47 15
Width: 569
GlyphClass: 2
Flags: W
LayerCount: 2
Fore
SplineSet
0 -20 m 1,0,-1
 411 1484 l 1,1,-1
 569 1484 l 1,2,-1
 162 -20 l 1,3,-1
 0 -20 l 1,0,-1
EndSplineSet
EndChar

StartChar: zero
Encoding: 48 48 16
Width: 1139
GlyphClass: 2
Flags: W
LayerCount: 2
Fore
SplineSet
1059 705 m 0,0,1
 1059 352 1059 352 934.5 166 c 128,-1,2
 810 -20 810 -20 567 -20 c 256,3,4
 324 -20 324 -20 202 165 c 128,-1,5
 80 350 80 350 80 705 c 0,6,7
 80 1068 80 1068 198.5 1249 c 128,-1,8
 317 1430 317 1430 573 1430 c 0,9,10
 822 1430 822 1430 940.5 1247 c 128,-1,11
 1059 1064 1059 1064 1059 705 c 0,0,1
876 705 m 0,12,13
 876 1010 876 1010 805.5 1147 c 128,-1,14
 735 1284 735 1284 573 1284 c 0,15,16
 407 1284 407 1284 334.5 1149 c 128,-1,17
 262 1014 262 1014 262 705 c 0,18,19
 262 405 262 405 335.5 266 c 128,-1,20
 409 127 409 127 569 127 c 0,21,22
 728 127 728 127 802 269 c 128,-1,23
 876 411 876 411 876 705 c 0,12,13
EndSplineSet
EndChar

StartChar: one
Encoding: 49 49 17
Width: 1139
GlyphClass: 2
Flags: W
LayerCount: 2
Fore
SplineSet
156 0 m 1,0,-1
 156 153 l 1,1,-1
 515 153 l 1,2,-1
 515 1237 l 1,3,-1
 197 1010 l 1,4,-1
 197 1180 l 1,5,-1
 530 1409 l 1,6,-1
 696 1409 l 1,7,-1
 696 153 l 1,8,-1
 1039 153 l 1,9,-1
 1039 0 l 1,10,-1
 156 0 l 1,0,-1
EndSplineSet
EndChar

StartChar: two
Encoding: 50 50 18
Width: 1139
GlyphClass: 2
Flags: W
LayerCount: 2
Fore
SplineSet
103 0 m 1,0,-1
 103 127 l 1,1,2
 154 244 154 244 227.5 333.5 c 128,-1,3
 301 423 301 423 382 495.5 c 128,-1,4
 463 568 463 568 542.5 630 c 128,-1,5
 622 692 622 692 686 754 c 128,-1,6
 750 816 750 816 789.5 884 c 128,-1,7
 829 952 829 952 829 1038 c 0,8,9
 829 1154 829 1154 761 1218 c 128,-1,10
 693 1282 693 1282 572 1282 c 0,11,12
 457 1282 457 1282 382.5 1219.5 c 128,-1,13
 308 1157 308 1157 295 1044 c 1,14,-1
 111 1061 l 1,15,16
 131 1230 131 1230 254.5 1330 c 128,-1,17
 378 1430 378 1430 572 1430 c 0,18,19
 785 1430 785 1430 899.5 1329.5 c 128,-1,20
 1014 1229 1014 1229 1014 1044 c 0,21,22
 1014 962 1014 962 976.5 881 c 128,-1,23
 939 800 939 800 865 719 c 128,-1,24
 791 638 791 638 582 468 c 0,25,26
 467 374 467 374 399 298.5 c 128,-1,27
 331 223 331 223 301 153 c 1,28,-1
 1036 153 l 1,29,-1
 1036 0 l 1,30,-1
 103 0 l 1,0,-1
EndSplineSet
EndChar

StartChar: three
Encoding: 51 51 19
Width: 1139
GlyphClass: 2
Flags: W
LayerCount: 2
Fore
SplineSet
1049 389 m 0,0,1
 1049 194 1049 194 925 87 c 128,-1,2
 801 -20 801 -20 571 -20 c 0,3,4
 357 -20 357 -20 229.5 76.5 c 128,-1,5
 102 173 102 173 78 362 c 1,6,-1
 264 379 l 1,7,8
 300 129 300 129 571 129 c 0,9,10
 707 129 707 129 784.5 196 c 128,-1,11
 862 263 862 263 862 395 c 0,12,13
 862 510 862 510 773.5 574.5 c 128,-1,14
 685 639 685 639 518 639 c 2,15,-1
 416 639 l 1,16,-1
 416 795 l 1,17,-1
 514 795 l 2,18,19
 662 795 662 795 743.5 859.5 c 128,-1,20
 825 924 825 924 825 1038 c 0,21,22
 825 1151 825 1151 758.5 1216.5 c 128,-1,23
 692 1282 692 1282 561 1282 c 0,24,25
 442 1282 442 1282 368.5 1221 c 128,-1,26
 295 1160 295 1160 283 1049 c 1,27,-1
 102 1063 l 1,28,29
 122 1236 122 1236 245.5 1333 c 128,-1,30
 369 1430 369 1430 563 1430 c 0,31,32
 775 1430 775 1430 892.5 1331.5 c 128,-1,33
 1010 1233 1010 1233 1010 1057 c 0,34,35
 1010 922 1010 922 934.5 837.5 c 128,-1,36
 859 753 859 753 715 723 c 1,37,-1
 715 719 l 1,38,39
 873 702 873 702 961 613 c 128,-1,40
 1049 524 1049 524 1049 389 c 0,0,1
EndSplineSet
EndChar

StartChar: four
Encoding: 52 52 20
Width: 1139
GlyphClass: 2
Flags: W
LayerCount: 2
Fore
SplineSet
881 319 m 1,0,-1
 881 0 l 1,1,-1
 711 0 l 1,2,-1
 711 319 l 1,3,-1
 47 319 l 1,4,-1
 47 459 l 1,5,-1
 692 1409 l 1,6,-1
 881 1409 l 1,7,-1
 881 461 l 1,8,-1
 1079 461 l 1,9,-1
 1079 319 l 1,10,-1
 881 319 l 1,0,-1
711 1206 m 1,11,12
 709 1200 709 1200 683 1153 c 128,-1,13
 657 1106 657 1106 644 1087 c 2,14,-1
 283 555 l 1,15,-1
 229 481 l 1,16,-1
 213 461 l 1,17,-1
 711 461 l 1,18,-1
 711 1206 l 1,11,12
EndSplineSet
EndChar

StartChar: five
Encoding: 53 53 21
Width: 1139
GlyphClass: 2
Flags: W
LayerCount: 2
Fore
SplineSet
1053 459 m 0,0,1
 1053 236 1053 236 920.5 108 c 128,-1,2
 788 -20 788 -20 553 -20 c 0,3,4
 356 -20 356 -20 235 66 c 128,-1,5
 114 152 114 152 82 315 c 1,6,-1
 264 336 l 1,7,8
 321 127 321 127 557 127 c 0,9,10
 702 127 702 127 784 214.5 c 128,-1,11
 866 302 866 302 866 455 c 0,12,13
 866 588 866 588 783.5 670 c 128,-1,14
 701 752 701 752 561 752 c 0,15,16
 488 752 488 752 425 729 c 128,-1,17
 362 706 362 706 299 651 c 1,18,-1
 123 651 l 1,19,-1
 170 1409 l 1,20,-1
 971 1409 l 1,21,-1
 971 1256 l 1,22,-1
 334 1256 l 1,23,-1
 307 809 l 1,24,25
 424 899 424 899 598 899 c 0,26,27
 806 899 806 899 929.5 777 c 128,-1,28
 1053 655 1053 655 1053 459 c 0,0,1
EndSplineSet
EndChar

StartChar: six
Encoding: 54 54 22
Width: 1139
GlyphClass: 2
Flags: W
LayerCount: 2
Fore
SplineSet
1049 461 m 0,0,1
 1049 238 1049 238 928 109 c 128,-1,2
 807 -20 807 -20 594 -20 c 0,3,4
 356 -20 356 -20 230 157 c 128,-1,5
 104 334 104 334 104 672 c 0,6,7
 104 1038 104 1038 235 1234 c 128,-1,8
 366 1430 366 1430 608 1430 c 0,9,10
 927 1430 927 1430 1010 1143 c 1,11,-1
 838 1112 l 1,12,13
 785 1284 785 1284 606 1284 c 0,14,15
 452 1284 452 1284 367.5 1140.5 c 128,-1,16
 283 997 283 997 283 725 c 1,17,18
 332 816 332 816 421 863.5 c 128,-1,19
 510 911 510 911 625 911 c 0,20,21
 820 911 820 911 934.5 789 c 128,-1,22
 1049 667 1049 667 1049 461 c 0,0,1
866 453 m 256,23,24
 866 606 866 606 791 689 c 128,-1,25
 716 772 716 772 582 772 c 0,26,27
 456 772 456 772 378.5 698.5 c 128,-1,28
 301 625 301 625 301 496 c 0,29,30
 301 333 301 333 381.5 229 c 128,-1,31
 462 125 462 125 588 125 c 0,32,33
 718 125 718 125 792 212.5 c 128,-1,34
 866 300 866 300 866 453 c 256,23,24
EndSplineSet
EndChar

StartChar: seven
Encoding: 55 55 23
Width: 1139
GlyphClass: 2
Flags: W
LayerCount: 2
Fore
SplineSet
1036 1263 m 1,0,1
 820 933 820 933 731 746 c 128,-1,2
 642 559 642 559 597.5 377 c 128,-1,3
 553 195 553 195 553 0 c 1,4,-1
 365 0 l 1,5,6
 365 270 365 270 479.5 568.5 c 128,-1,7
 594 867 594 867 862 1256 c 1,8,-1
 105 1256 l 1,9,-1
 105 1409 l 1,10,-1
 1036 1409 l 1,11,-1
 1036 1263 l 1,0,1
EndSplineSet
EndChar

StartChar: eight
Encoding: 56 56 24
Width: 1139
GlyphClass: 2
Flags: W
LayerCount: 2
Fore
SplineSet
1050 393 m 0,0,1
 1050 198 1050 198 926 89 c 128,-1,2
 802 -20 802 -20 570 -20 c 0,3,4
 344 -20 344 -20 216.5 87 c 128,-1,5
 89 194 89 194 89 391 c 0,6,7
 89 529 89 529 168 623 c 128,-1,8
 247 717 247 717 370 737 c 1,9,-1
 370 741 l 1,10,11
 255 768 255 768 188.5 858 c 128,-1,12
 122 948 122 948 122 1069 c 0,13,14
 122 1230 122 1230 242.5 1330 c 128,-1,15
 363 1430 363 1430 566 1430 c 0,16,17
 774 1430 774 1430 894.5 1332 c 128,-1,18
 1015 1234 1015 1234 1015 1067 c 0,19,20
 1015 946 1015 946 948 856 c 128,-1,21
 881 766 881 766 765 743 c 1,22,-1
 765 739 l 1,23,24
 900 717 900 717 975 624.5 c 128,-1,25
 1050 532 1050 532 1050 393 c 0,0,1
828 1057 m 0,26,27
 828 1296 828 1296 566 1296 c 0,28,29
 439 1296 439 1296 372.5 1236 c 128,-1,30
 306 1176 306 1176 306 1057 c 0,31,32
 306 936 306 936 374.5 872.5 c 128,-1,33
 443 809 443 809 568 809 c 0,34,35
 695 809 695 809 761.5 867.5 c 128,-1,36
 828 926 828 926 828 1057 c 0,26,27
863 410 m 0,37,38
 863 541 863 541 785 607.5 c 128,-1,39
 707 674 707 674 566 674 c 0,40,41
 429 674 429 674 352 602.5 c 128,-1,42
 275 531 275 531 275 406 c 0,43,44
 275 115 275 115 572 115 c 0,45,46
 719 115 719 115 791 185.5 c 128,-1,47
 863 256 863 256 863 410 c 0,37,38
EndSplineSet
EndChar

StartChar: nine
Encoding: 57 57 25
Width: 1139
GlyphClass: 2
Flags: W
LayerCount: 2
Fore
SplineSet
1042 733 m 0,0,1
 1042 370 1042 370 909.5 175 c 128,-1,2
 777 -20 777 -20 532 -20 c 0,3,4
 367 -20 367 -20 267.5 49.5 c 128,-1,5
 168 119 168 119 125 274 c 1,6,-1
 297 301 l 1,7,8
 351 125 351 125 535 125 c 0,9,10
 690 125 690 125 775 269 c 128,-1,11
 860 413 860 413 864 680 c 1,12,13
 824 590 824 590 727 535.5 c 128,-1,14
 630 481 630 481 514 481 c 0,15,16
 324 481 324 481 210 611 c 128,-1,17
 96 741 96 741 96 956 c 0,18,19
 96 1177 96 1177 220 1303.5 c 128,-1,20
 344 1430 344 1430 565 1430 c 0,21,22
 800 1430 800 1430 921 1256 c 128,-1,23
 1042 1082 1042 1082 1042 733 c 0,0,1
846 907 m 0,24,25
 846 1077 846 1077 768 1180.5 c 128,-1,26
 690 1284 690 1284 559 1284 c 0,27,28
 429 1284 429 1284 354 1195.5 c 128,-1,29
 279 1107 279 1107 279 956 c 0,30,31
 279 802 279 802 354 712.5 c 128,-1,32
 429 623 429 623 557 623 c 0,33,34
 635 623 635 623 702 658.5 c 128,-1,35
 769 694 769 694 807.5 759 c 128,-1,36
 846 824 846 824 846 907 c 0,24,25
EndSplineSet
EndChar

StartChar: colon
Encoding: 58 58 26
Width: 569
GlyphClass: 2
Flags: W
LayerCount: 2
Fore
SplineSet
187 875 m 1,0,-1
 187 1082 l 1,1,-1
 382 1082 l 1,2,-1
 382 875 l 1,3,-1
 187 875 l 1,0,-1
187 0 m 1,4,-1
 187 207 l 1,5,-1
 382 207 l 1,6,-1
 382 0 l 1,7,-1
 187 0 l 1,4,-1
EndSplineSet
EndChar

StartChar: semicolon
Encoding: 59 59 27
Width: 569
GlyphClass: 2
Flags: W
LayerCount: 2
Fore
SplineSet
385 207 m 1,0,-1
 385 51 l 2,1,2
 385 -55 385 -55 366 -126 c 128,-1,3
 347 -197 347 -197 307 -262 c 1,4,-1
 184 -262 l 1,5,6
 278 -126 278 -126 278 0 c 1,7,-1
 190 0 l 1,8,-1
 190 207 l 1,9,-1
 385 207 l 1,0,-1
190 875 m 1,10,-1
 190 1082 l 1,11,-1
 385 1082 l 1,12,-1
 385 875 l 1,13,-1
 190 875 l 1,10,-1
EndSplineSet
EndChar

StartChar: less
Encoding: 60 60 28
Width: 1196
GlyphClass: 2
Flags: W
LayerCount: 2
Fore
SplineSet
101 571 m 1,0,-1
 101 776 l 1,1,-1
 1096 1194 l 1,2,-1
 1096 1040 l 1,3,-1
 238 674 l 1,4,-1
 1096 307 l 1,5,-1
 1096 154 l 1,6,-1
 101 571 l 1,0,-1
EndSplineSet
EndChar

StartChar: equal
Encoding: 61 61 29
Width: 1196
GlyphClass: 2
Flags: W
LayerCount: 2
Fore
SplineSet
100 856 m 1,0,-1
 100 1004 l 1,1,-1
 1095 1004 l 1,2,-1
 1095 856 l 1,3,-1
 100 856 l 1,0,-1
100 344 m 1,4,-1
 100 492 l 1,5,-1
 1095 492 l 1,6,-1
 1095 344 l 1,7,-1
 100 344 l 1,4,-1
EndSplineSet
EndChar

StartChar: greater
Encoding: 62 62 30
Width: 1196
GlyphClass: 2
Flags: W
LayerCount: 2
Fore
SplineSet
101 154 m 1,0,-1
 101 307 l 1,1,-1
 959 674 l 1,2,-1
 101 1040 l 1,3,-1
 101 1194 l 1,4,-1
 1096 776 l 1,5,-1
 1096 571 l 1,6,-1
 101 154 l 1,0,-1
EndSplineSet
EndChar

StartChar: question
Encoding: 63 63 31
Width: 1139
GlyphClass: 2
Flags: W
LayerCount: 2
Fore
SplineSet
1063 1032 m 0,0,1
 1063 957 1063 957 1041 898 c 128,-1,2
 1019 839 1019 839 978 789 c 128,-1,3
 937 739 937 739 844 671 c 2,4,-1
 764 612 l 2,5,6
 692 560 692 560 657 502.5 c 128,-1,7
 622 445 622 445 621 377 c 1,8,-1
 446 377 l 1,9,10
 448 446 448 446 467.5 498 c 128,-1,11
 487 550 487 550 518 590 c 128,-1,12
 549 630 549 630 588 661.5 c 128,-1,13
 627 693 627 693 667 721.5 c 128,-1,14
 707 750 707 750 745.5 778.5 c 128,-1,15
 784 807 784 807 814 842 c 128,-1,16
 844 877 844 877 862.5 921 c 128,-1,17
 881 965 881 965 881 1024 c 0,18,19
 881 1138 881 1138 803.5 1204 c 128,-1,20
 726 1270 726 1270 586 1270 c 256,21,22
 446 1270 446 1270 364 1200 c 128,-1,23
 282 1130 282 1130 268 1008 c 1,24,-1
 84 1020 l 1,25,26
 110 1218 110 1218 240 1324 c 128,-1,27
 370 1430 370 1430 584 1430 c 0,28,29
 807 1430 807 1430 935 1324.5 c 128,-1,30
 1063 1219 1063 1219 1063 1032 c 0,0,1
438 0 m 1,31,-1
 438 201 l 1,32,-1
 633 201 l 1,33,-1
 633 0 l 1,34,-1
 438 0 l 1,31,-1
EndSplineSet
EndChar

StartChar: at
Encoding: 64 64 32
Width: 2079
GlyphClass: 2
Flags: W
LayerCount: 2
Fore
SplineSet
1902 755 m 0,0,1
 1902 569 1902 569 1844.5 418.5 c 128,-1,2
 1787 268 1787 268 1684.5 186 c 128,-1,3
 1582 104 1582 104 1455 104 c 0,4,5
 1356 104 1356 104 1302 148 c 128,-1,6
 1248 192 1248 192 1248 280 c 1,7,-1
 1251 350 l 1,8,-1
 1245 350 l 1,9,10
 1179 227 1179 227 1081.5 165.5 c 128,-1,11
 984 104 984 104 871 104 c 0,12,13
 714 104 714 104 627.5 206 c 128,-1,14
 541 308 541 308 541 489 c 0,15,16
 541 653 541 653 605.5 794 c 128,-1,17
 670 935 670 935 786 1018 c 128,-1,18
 902 1101 902 1101 1043 1101 c 0,19,20
 1262 1101 1262 1101 1344 919 c 1,21,-1
 1350 919 l 1,22,-1
 1389 1079 l 1,23,-1
 1545 1079 l 1,24,-1
 1429 573 l 2,25,26
 1392 409 1392 409 1392 320 c 0,27,28
 1392 226 1392 226 1473 226 c 0,29,30
 1553 226 1553 226 1620.5 295 c 128,-1,31
 1688 364 1688 364 1727 485 c 128,-1,32
 1766 606 1766 606 1766 753 c 0,33,34
 1766 932 1766 932 1689 1070.5 c 128,-1,35
 1612 1209 1612 1209 1467 1283.5 c 128,-1,36
 1322 1358 1322 1358 1128 1358 c 0,37,38
 886 1358 886 1358 700 1251 c 128,-1,39
 514 1144 514 1144 408 942.5 c 128,-1,40
 302 741 302 741 302 491 c 0,41,42
 302 298 302 298 380.5 150.5 c 128,-1,43
 459 3 459 3 607.5 -76 c 128,-1,44
 756 -155 756 -155 954 -155 c 0,45,46
 1099 -155 1099 -155 1248 -117.5 c 128,-1,47
 1397 -80 1397 -80 1557 7 c 1,48,-1
 1612 -105 l 1,49,50
 1467 -192 1467 -192 1297.5 -237.5 c 128,-1,51
 1128 -283 1128 -283 954 -283 c 0,52,53
 713 -283 713 -283 532.5 -187.5 c 128,-1,54
 352 -92 352 -92 256.5 84.5 c 128,-1,55
 161 261 161 261 161 491 c 0,56,57
 161 771 161 771 285.5 1000 c 128,-1,58
 410 1229 410 1229 631 1356.5 c 128,-1,59
 852 1484 852 1484 1126 1484 c 0,60,61
 1367 1484 1367 1484 1542 1393.5 c 128,-1,62
 1717 1303 1717 1303 1809.5 1138 c 128,-1,63
 1902 973 1902 973 1902 755 c 0,0,1
1296 747 m 0,64,65
 1296 849 1296 849 1230 911.5 c 128,-1,66
 1164 974 1164 974 1054 974 c 0,67,68
 953 974 953 974 874.5 910.5 c 128,-1,69
 796 847 796 847 751 734.5 c 128,-1,70
 706 622 706 622 706 491 c 0,71,72
 706 371 706 371 753.5 303 c 128,-1,73
 801 235 801 235 900 235 c 0,74,75
 1025 235 1025 235 1129 340 c 128,-1,76
 1233 445 1233 445 1273 602 c 0,77,78
 1296 694 1296 694 1296 747 c 0,64,65
EndSplineSet
EndChar

StartChar: A
Encoding: 65 65 33
Width: 1366
GlyphClass: 2
Flags: W
LayerCount: 2
Fore
SplineSet
1167 0 m 1,0,-1
 1006 412 l 1,1,-1
 364 412 l 1,2,-1
 202 0 l 1,3,-1
 4 0 l 1,4,-1
 579 1409 l 1,5,-1
 796 1409 l 1,6,-1
 1362 0 l 1,7,-1
 1167 0 l 1,0,-1
685 1265 m 1,8,-1
 676 1237 l 1,9,10
 651 1154 651 1154 602 1024 c 1,11,-1
 422 561 l 1,12,-1
 949 561 l 1,13,-1
 768 1026 l 1,14,15
 740 1095 740 1095 712 1182 c 2,16,-1
 685 1265 l 1,8,-1
EndSplineSet
EndChar

StartChar: B
Encoding: 66 66 34
Width: 1366
GlyphClass: 2
Flags: W
LayerCount: 2
Fore
SplineSet
1258 397 m 0,0,1
 1258 209 1258 209 1121 104.5 c 128,-1,2
 984 0 984 0 740 0 c 2,3,-1
 168 0 l 1,4,-1
 168 1409 l 1,5,-1
 680 1409 l 2,6,7
 1176 1409 1176 1409 1176 1067 c 0,8,9
 1176 942 1176 942 1106 857 c 128,-1,10
 1036 772 1036 772 908 743 c 1,11,12
 1076 723 1076 723 1167 630.5 c 128,-1,13
 1258 538 1258 538 1258 397 c 0,0,1
984 1044 m 0,14,15
 984 1158 984 1158 906 1207 c 128,-1,16
 828 1256 828 1256 680 1256 c 2,17,-1
 359 1256 l 1,18,-1
 359 810 l 1,19,-1
 680 810 l 2,20,21
 833 810 833 810 908.5 867.5 c 128,-1,22
 984 925 984 925 984 1044 c 0,14,15
1065 412 m 0,23,24
 1065 661 1065 661 715 661 c 2,25,-1
 359 661 l 1,26,-1
 359 153 l 1,27,-1
 730 153 l 2,28,29
 905 153 905 153 985 218 c 128,-1,30
 1065 283 1065 283 1065 412 c 0,23,24
EndSplineSet
EndChar

StartChar: C
Encoding: 67 67 35
Width: 1479
GlyphClass: 2
Flags: W
LayerCount: 2
Fore
SplineSet
792 1274 m 0,0,1
 558 1274 558 1274 428 1123.5 c 128,-1,2
 298 973 298 973 298 711 c 0,3,4
 298 452 298 452 433.5 294.5 c 128,-1,5
 569 137 569 137 800 137 c 0,6,7
 1096 137 1096 137 1245 430 c 1,8,-1
 1401 352 l 1,9,10
 1314 170 1314 170 1156.5 75 c 128,-1,11
 999 -20 999 -20 791 -20 c 0,12,13
 578 -20 578 -20 422.5 68.5 c 128,-1,14
 267 157 267 157 185.5 321.5 c 128,-1,15
 104 486 104 486 104 711 c 0,16,17
 104 1048 104 1048 286 1239 c 128,-1,18
 468 1430 468 1430 790 1430 c 0,19,20
 1015 1430 1015 1430 1166 1342 c 128,-1,21
 1317 1254 1317 1254 1388 1081 c 1,22,-1
 1207 1021 l 1,23,24
 1158 1144 1158 1144 1049.5 1209 c 128,-1,25
 941 1274 941 1274 792 1274 c 0,0,1
EndSplineSet
EndChar

StartChar: D
Encoding: 68 68 36
Width: 1479
GlyphClass: 2
Flags: W
LayerCount: 2
Fore
SplineSet
1381 719 m 0,0,1
 1381 501 1381 501 1296 337.5 c 128,-1,2
 1211 174 1211 174 1055 87 c 128,-1,3
 899 0 899 0 695 0 c 2,4,-1
 168 0 l 1,5,-1
 168 1409 l 1,6,-1
 634 1409 l 2,7,8
 992 1409 992 1409 1186.5 1229.5 c 128,-1,9
 1381 1050 1381 1050 1381 719 c 0,0,1
1189 719 m 0,10,11
 1189 981 1189 981 1045.5 1118.5 c 128,-1,12
 902 1256 902 1256 630 1256 c 2,13,-1
 359 1256 l 1,14,-1
 359 153 l 1,15,-1
 673 153 l 2,16,17
 828 153 828 153 945.5 221 c 128,-1,18
 1063 289 1063 289 1126 417 c 128,-1,19
 1189 545 1189 545 1189 719 c 0,10,11
EndSplineSet
EndChar

StartChar: E
Encoding: 69 69 37
Width: 1366
GlyphClass: 2
Flags: W
LayerCount: 2
Fore
SplineSet
168 0 m 1,0,-1
 168 1409 l 1,1,-1
 1237 1409 l 1,2,-1
 1237 1253 l 1,3,-1
 359 1253 l 1,4,-1
 359 801 l 1,5,-1
 1177 801 l 1,6,-1
 1177 647 l 1,7,-1
 359 647 l 1,8,-1
 359 156 l 1,9,-1
 1278 156 l 1,10,-1
 1278 0 l 1,11,-1
 168 0 l 1,0,-1
EndSplineSet
EndChar

StartChar: F
Encoding: 70 70 38
Width: 1251
GlyphClass: 2
Flags: W
LayerCount: 2
Fore
SplineSet
359 1253 m 1,0,-1
 359 729 l 1,1,-1
 1145 729 l 1,2,-1
 1145 571 l 1,3,-1
 359 571 l 1,4,-1
 359 0 l 1,5,-1
 168 0 l 1,6,-1
 168 1409 l 1,7,-1
 1169 1409 l 1,8,-1
 1169 1253 l 1,9,-1
 359 1253 l 1,0,-1
EndSplineSet
EndChar

StartChar: G
Encoding: 71 71 39
Width: 1593
GlyphClass: 2
Flags: W
LayerCount: 2
Fore
SplineSet
103 711 m 0,0,1
 103 1054 103 1054 287 1242 c 128,-1,2
 471 1430 471 1430 804 1430 c 0,3,4
 1038 1430 1038 1430 1184 1351 c 128,-1,5
 1330 1272 1330 1272 1409 1098 c 1,6,-1
 1227 1044 l 1,7,8
 1167 1164 1167 1164 1061.5 1219 c 128,-1,9
 956 1274 956 1274 799 1274 c 0,10,11
 555 1274 555 1274 426 1126.5 c 128,-1,12
 297 979 297 979 297 711 c 0,13,14
 297 444 297 444 434 289.5 c 128,-1,15
 571 135 571 135 813 135 c 0,16,17
 951 135 951 135 1070.5 177 c 128,-1,18
 1190 219 1190 219 1264 291 c 1,19,-1
 1264 545 l 1,20,-1
 843 545 l 1,21,-1
 843 705 l 1,22,-1
 1440 705 l 1,23,-1
 1440 219 l 1,24,25
 1328 105 1328 105 1165.5 42.5 c 128,-1,26
 1003 -20 1003 -20 813 -20 c 0,27,28
 592 -20 592 -20 432 68 c 128,-1,29
 272 156 272 156 187.5 321.5 c 128,-1,30
 103 487 103 487 103 711 c 0,0,1
EndSplineSet
EndChar

StartChar: H
Encoding: 72 72 40
Width: 1479
GlyphClass: 2
Flags: W
LayerCount: 2
Fore
SplineSet
1121 0 m 1,0,-1
 1121 653 l 1,1,-1
 359 653 l 1,2,-1
 359 0 l 1,3,-1
 168 0 l 1,4,-1
 168 1409 l 1,5,-1
 359 1409 l 1,6,-1
 359 813 l 1,7,-1
 1121 813 l 1,8,-1
 1121 1409 l 1,9,-1
 1312 1409 l 1,10,-1
 1312 0 l 1,11,-1
 1121 0 l 1,0,-1
EndSplineSet
EndChar

StartChar: I
Encoding: 73 73 41
Width: 569
GlyphClass: 2
Flags: W
LayerCount: 2
Fore
SplineSet
189 0 m 1,0,-1
 189 1409 l 1,1,-1
 380 1409 l 1,2,-1
 380 0 l 1,3,-1
 189 0 l 1,0,-1
EndSplineSet
EndChar

StartChar: J
Encoding: 74 74 42
Width: 1024
GlyphClass: 2
Flags: W
LayerCount: 2
Fore
SplineSet
457 -20 m 0,0,1
 99 -20 99 -20 32 350 c 1,2,-1
 219 381 l 1,3,4
 237 265 237 265 300 200 c 128,-1,5
 363 135 363 135 458 135 c 0,6,7
 562 135 562 135 622 206.5 c 128,-1,8
 682 278 682 278 682 416 c 2,9,-1
 682 1253 l 1,10,-1
 411 1253 l 1,11,-1
 411 1409 l 1,12,-1
 872 1409 l 1,13,-1
 872 420 l 2,14,15
 872 215 872 215 761 97.5 c 128,-1,16
 650 -20 650 -20 457 -20 c 0,0,1
EndSplineSet
EndChar

StartChar: K
Encoding: 75 75 43
Width: 1366
GlyphClass: 2
Flags: W
LayerCount: 2
Fore
SplineSet
1106 0 m 1,0,-1
 543 680 l 1,1,-1
 359 540 l 1,2,-1
 359 0 l 1,3,-1
 168 0 l 1,4,-1
 168 1409 l 1,5,-1
 359 1409 l 1,6,-1
 359 703 l 1,7,-1
 1038 1409 l 1,8,-1
 1263 1409 l 1,9,-1
 663 797 l 1,10,-1
 1343 0 l 1,11,-1
 1106 0 l 1,0,-1
EndSplineSet
EndChar

StartChar: L
Encoding: 76 76 44
Width: 1139
GlyphClass: 2
Flags: W
LayerCount: 2
Fore
SplineSet
168 0 m 1,0,-1
 168 1409 l 1,1,-1
 359 1409 l 1,2,-1
 359 156 l 1,3,-1
 1071 156 l 1,4,-1
 1071 0 l 1,5,-1
 168 0 l 1,0,-1
EndSplineSet
EndChar

StartChar: M
Encoding: 77 77 45
Width: 1706
GlyphClass: 2
Flags: W
LayerCount: 2
Fore
SplineSet
1366 0 m 1,0,-1
 1366 940 l 2,1,2
 1366 1096 1366 1096 1375 1240 c 1,3,4
 1326 1061 1326 1061 1287 960 c 2,5,-1
 923 0 l 1,6,-1
 789 0 l 1,7,-1
 420 960 l 1,8,-1
 364 1130 l 1,9,-1
 331 1240 l 1,10,-1
 334 1129 l 1,11,-1
 338 940 l 1,12,-1
 338 0 l 1,13,-1
 168 0 l 1,14,-1
 168 1409 l 1,15,-1
 419 1409 l 1,16,-1
 794 432 l 1,17,18
 814 373 814 373 832.5 305.5 c 128,-1,19
 851 238 851 238 857 208 c 1,20,21
 865 248 865 248 890.5 329.5 c 128,-1,22
 916 411 916 411 925 432 c 1,23,-1
 1293 1409 l 1,24,-1
 1538 1409 l 1,25,-1
 1538 0 l 1,26,-1
 1366 0 l 1,0,-1
EndSplineSet
EndChar

StartChar: N
Encoding: 78 78 46
Width: 1479
GlyphClass: 2
Flags: W
LayerCount: 2
Fore
SplineSet
1082 0 m 1,0,-1
 328 1200 l 1,1,-1
 333 1103 l 1,2,-1
 338 936 l 1,3,-1
 338 0 l 1,4,-1
 168 0 l 1,5,-1
 168 1409 l 1,6,-1
 390 1409 l 1,7,-1
 1152 201 l 1,8,9
 1140 397 1140 397 1140 485 c 2,10,-1
 1140 1409 l 1,11,-1
 1312 1409 l 1,12,-1
 1312 0 l 1,13,-1
 1082 0 l 1,0,-1
EndSplineSet
EndChar

StartChar: O
Encoding: 79 79 47
Width: 1593
GlyphClass: 2
Flags: W
LayerCount: 2
Fore
SplineSet
1495 711 m 0,0,1
 1495 490 1495 490 1410.5 324 c 128,-1,2
 1326 158 1326 158 1168 69 c 128,-1,3
 1010 -20 1010 -20 795 -20 c 0,4,5
 578 -20 578 -20 420.5 68 c 128,-1,6
 263 156 263 156 180 322.5 c 128,-1,7
 97 489 97 489 97 711 c 0,8,9
 97 1049 97 1049 282 1239.5 c 128,-1,10
 467 1430 467 1430 797 1430 c 0,11,12
 1012 1430 1012 1430 1170 1344.5 c 128,-1,13
 1328 1259 1328 1259 1411.5 1096 c 128,-1,14
 1495 933 1495 933 1495 711 c 0,0,1
1300 711 m 0,15,16
 1300 974 1300 974 1168.5 1124 c 128,-1,17
 1037 1274 1037 1274 797 1274 c 0,18,19
 555 1274 555 1274 423 1126 c 128,-1,20
 291 978 291 978 291 711 c 0,21,22
 291 446 291 446 424.5 290.5 c 128,-1,23
 558 135 558 135 795 135 c 0,24,25
 1039 135 1039 135 1169.5 285.5 c 128,-1,26
 1300 436 1300 436 1300 711 c 0,15,16
EndSplineSet
EndChar

StartChar: P
Encoding: 80 80 48
Width: 1366
GlyphClass: 2
Flags: W
LayerCount: 2
Fore
SplineSet
1258 985 m 0,0,1
 1258 785 1258 785 1127.5 667 c 128,-1,2
 997 549 997 549 773 549 c 2,3,-1
 359 549 l 1,4,-1
 359 0 l 1,5,-1
 168 0 l 1,6,-1
 168 1409 l 1,7,-1
 761 1409 l 2,8,9
 998 1409 998 1409 1128 1298 c 128,-1,10
 1258 1187 1258 1187 1258 985 c 0,0,1
1066 983 m 0,11,12
 1066 1256 1066 1256 738 1256 c 2,13,-1
 359 1256 l 1,14,-1
 359 700 l 1,15,-1
 746 700 l 2,16,17
 1066 700 1066 700 1066 983 c 0,11,12
EndSplineSet
EndChar

StartChar: Q
Encoding: 81 81 49
Width: 1593
GlyphClass: 2
Flags: W
LayerCount: 2
Fore
SplineSet
1495 711 m 0,0,1
 1495 413 1495 413 1345 221 c 128,-1,2
 1195 29 1195 29 928 -6 c 1,3,4
 969 -132 969 -132 1035.5 -188 c 128,-1,5
 1102 -244 1102 -244 1204 -244 c 0,6,7
 1259 -244 1259 -244 1319 -231 c 1,8,-1
 1319 -365 l 1,9,10
 1226 -387 1226 -387 1141 -387 c 0,11,12
 990 -387 990 -387 892.5 -301.5 c 128,-1,13
 795 -216 795 -216 733 -16 c 1,14,15
 535 -6 535 -6 391.5 84.5 c 128,-1,16
 248 175 248 175 172.5 336.5 c 128,-1,17
 97 498 97 498 97 711 c 0,18,19
 97 1049 97 1049 282 1239.5 c 128,-1,20
 467 1430 467 1430 797 1430 c 0,21,22
 1012 1430 1012 1430 1170 1344.5 c 128,-1,23
 1328 1259 1328 1259 1411.5 1096 c 128,-1,24
 1495 933 1495 933 1495 711 c 0,0,1
1300 711 m 0,25,26
 1300 974 1300 974 1168.5 1124 c 128,-1,27
 1037 1274 1037 1274 797 1274 c 0,28,29
 555 1274 555 1274 423 1126 c 128,-1,30
 291 978 291 978 291 711 c 0,31,32
 291 446 291 446 424.5 290.5 c 128,-1,33
 558 135 558 135 795 135 c 0,34,35
 1039 135 1039 135 1169.5 285.5 c 128,-1,36
 1300 436 1300 436 1300 711 c 0,25,26
EndSplineSet
EndChar

StartChar: R
Encoding: 82 82 50
Width: 1479
GlyphClass: 2
Flags: W
LayerCount: 2
Fore
SplineSet
1164 0 m 1,0,-1
 798 585 l 1,1,-1
 359 585 l 1,2,-1
 359 0 l 1,3,-1
 168 0 l 1,4,-1
 168 1409 l 1,5,-1
 831 1409 l 2,6,7
 1069 1409 1069 1409 1198.5 1302.5 c 128,-1,8
 1328 1196 1328 1196 1328 1006 c 0,9,10
 1328 849 1328 849 1236.5 742 c 128,-1,11
 1145 635 1145 635 984 607 c 1,12,-1
 1384 0 l 1,13,-1
 1164 0 l 1,0,-1
1136 1004 m 0,14,15
 1136 1127 1136 1127 1052.5 1191.5 c 128,-1,16
 969 1256 969 1256 812 1256 c 2,17,-1
 359 1256 l 1,18,-1
 359 736 l 1,19,-1
 820 736 l 2,20,21
 971 736 971 736 1053.5 806.5 c 128,-1,22
 1136 877 1136 877 1136 1004 c 0,14,15
EndSplineSet
EndChar

StartChar: S
Encoding: 83 83 51
Width: 1366
GlyphClass: 2
Flags: W
LayerCount: 2
Fore
SplineSet
1272 389 m 0,0,1
 1272 194 1272 194 1119.5 87 c 128,-1,2
 967 -20 967 -20 690 -20 c 0,3,4
 175 -20 175 -20 93 338 c 1,5,-1
 278 375 l 1,6,7
 310 248 310 248 414 188.5 c 128,-1,8
 518 129 518 129 697 129 c 0,9,10
 882 129 882 129 982.5 192.5 c 128,-1,11
 1083 256 1083 256 1083 379 c 0,12,13
 1083 448 1083 448 1051.5 491 c 128,-1,14
 1020 534 1020 534 963 562 c 128,-1,15
 906 590 906 590 827 609 c 128,-1,16
 748 628 748 628 652 650 c 0,17,18
 485 687 485 687 398.5 724 c 128,-1,19
 312 761 312 761 262 806.5 c 128,-1,20
 212 852 212 852 185.5 913 c 128,-1,21
 159 974 159 974 159 1053 c 0,22,23
 159 1234 159 1234 297.5 1332 c 128,-1,24
 436 1430 436 1430 694 1430 c 0,25,26
 934 1430 934 1430 1061 1356.5 c 128,-1,27
 1188 1283 1188 1283 1239 1106 c 1,28,-1
 1051 1073 l 1,29,30
 1020 1185 1020 1185 933 1235.5 c 128,-1,31
 846 1286 846 1286 692 1286 c 0,32,33
 523 1286 523 1286 434 1230 c 128,-1,34
 345 1174 345 1174 345 1063 c 0,35,36
 345 998 345 998 379.5 955.5 c 128,-1,37
 414 913 414 913 479 883.5 c 128,-1,38
 544 854 544 854 738 811 c 0,39,40
 803 796 803 796 867.5 780.5 c 128,-1,41
 932 765 932 765 991 743.5 c 128,-1,42
 1050 722 1050 722 1101.5 693 c 128,-1,43
 1153 664 1153 664 1191 622 c 128,-1,44
 1229 580 1229 580 1250.5 523 c 128,-1,45
 1272 466 1272 466 1272 389 c 0,0,1
EndSplineSet
EndChar

StartChar: T
Encoding: 84 84 52
Width: 1251
GlyphClass: 2
Flags: W
LayerCount: 2
Fore
SplineSet
720 1253 m 1,0,-1
 720 0 l 1,1,-1
 530 0 l 1,2,-1
 530 1253 l 1,3,-1
 46 1253 l 1,4,-1
 46 1409 l 1,5,-1
 1204 1409 l 1,6,-1
 1204 1253 l 1,7,-1
 720 1253 l 1,0,-1
EndSplineSet
EndChar

StartChar: U
Encoding: 85 85 53
Width: 1479
GlyphClass: 2
Flags: W
LayerCount: 2
Fore
SplineSet
731 -20 m 0,0,1
 558 -20 558 -20 429 43 c 128,-1,2
 300 106 300 106 229 226 c 128,-1,3
 158 346 158 346 158 512 c 2,4,-1
 158 1409 l 1,5,-1
 349 1409 l 1,6,-1
 349 528 l 2,7,8
 349 335 349 335 447 235 c 128,-1,9
 545 135 545 135 730 135 c 0,10,11
 920 135 920 135 1025.5 238.5 c 128,-1,12
 1131 342 1131 342 1131 541 c 2,13,-1
 1131 1409 l 1,14,-1
 1321 1409 l 1,15,-1
 1321 530 l 2,16,17
 1321 359 1321 359 1248.5 235 c 128,-1,18
 1176 111 1176 111 1043.5 45.5 c 128,-1,19
 911 -20 911 -20 731 -20 c 0,0,1
EndSplineSet
EndChar

StartChar: V
Encoding: 86 86 54
Width: 1366
GlyphClass: 2
Flags: W
LayerCount: 2
Fore
SplineSet
782 0 m 1,0,-1
 584 0 l 1,1,-1
 9 1409 l 1,2,-1
 210 1409 l 1,3,-1
 600 417 l 1,4,-1
 684 168 l 1,5,-1
 768 417 l 1,6,-1
 1156 1409 l 1,7,-1
 1357 1409 l 1,8,-1
 782 0 l 1,0,-1
EndSplineSet
EndChar

StartChar: W
Encoding: 87 87 55
Width: 1933
GlyphClass: 2
Flags: W
LayerCount: 2
Fore
SplineSet
1511 0 m 1,0,-1
 1283 0 l 1,1,-1
 1039 895 l 1,2,3
 1015 979 1015 979 969 1196 c 1,4,5
 943 1080 943 1080 925 1002 c 128,-1,6
 907 924 907 924 652 0 c 1,7,-1
 424 0 l 1,8,-1
 9 1409 l 1,9,-1
 208 1409 l 1,10,-1
 461 514 l 1,11,12
 506 346 506 346 544 168 c 1,13,14
 568 278 568 278 599.5 408 c 128,-1,15
 631 538 631 538 877 1409 c 1,16,-1
 1060 1409 l 1,17,-1
 1305 532 l 1,18,19
 1361 317 1361 317 1393 168 c 1,20,-1
 1402 203 l 1,21,22
 1429 318 1429 318 1446 390.5 c 128,-1,23
 1463 463 1463 463 1727 1409 c 1,24,-1
 1926 1409 l 1,25,-1
 1511 0 l 1,0,-1
EndSplineSet
EndChar

StartChar: X
Encoding: 88 88 56
Width: 1366
GlyphClass: 2
Flags: W
LayerCount: 2
Fore
SplineSet
1112 0 m 1,0,-1
 689 616 l 1,1,-1
 257 0 l 1,2,-1
 46 0 l 1,3,-1
 582 732 l 1,4,-1
 87 1409 l 1,5,-1
 298 1409 l 1,6,-1
 690 856 l 1,7,-1
 1071 1409 l 1,8,-1
 1282 1409 l 1,9,-1
 800 739 l 1,10,-1
 1323 0 l 1,11,-1
 1112 0 l 1,0,-1
EndSplineSet
EndChar

StartChar: Y
Encoding: 89 89 57
Width: 1366
GlyphClass: 2
Flags: W
LayerCount: 2
Fore
SplineSet
777 584 m 1,0,-1
 777 0 l 1,1,-1
 587 0 l 1,2,-1
 587 584 l 1,3,-1
 45 1409 l 1,4,-1
 255 1409 l 1,5,-1
 684 738 l 1,6,-1
 1111 1409 l 1,7,-1
 1321 1409 l 1,8,-1
 777 584 l 1,0,-1
EndSplineSet
EndChar

StartChar: Z
Encoding: 90 90 58
Width: 1251
GlyphClass: 2
Flags: W
LayerCount: 2
Fore
SplineSet
1187 0 m 1,0,-1
 65 0 l 1,1,-1
 65 143 l 1,2,-1
 923 1253 l 1,3,-1
 138 1253 l 1,4,-1
 138 1409 l 1,5,-1
 1140 1409 l 1,6,-1
 1140 1270 l 1,7,-1
 282 156 l 1,8,-1
 1187 156 l 1,9,-1
 1187 0 l 1,0,-1
EndSplineSet
EndChar

StartChar: bracketleft
Encoding: 91 91 59
Width: 569
GlyphClass: 2
Flags: W
LayerCount: 2
Fore
SplineSet
146 -425 m 1,0,-1
 146 1484 l 1,1,-1
 553 1484 l 1,2,-1
 553 1355 l 1,3,-1
 320 1355 l 1,4,-1
 320 -296 l 1,5,-1
 553 -296 l 1,6,-1
 553 -425 l 1,7,-1
 146 -425 l 1,0,-1
EndSplineSet
EndChar

StartChar: backslash
Encoding: 92 92 60
Width: 569
GlyphClass: 2
Flags: W
LayerCount: 2
Fore
SplineSet
407 -20 m 1,0,-1
 0 1484 l 1,1,-1
 158 1484 l 1,2,-1
 569 -20 l 1,3,-1
 407 -20 l 1,0,-1
EndSplineSet
EndChar

StartChar: bracketright
Encoding: 93 93 61
Width: 569
GlyphClass: 2
Flags: W
LayerCount: 2
Fore
SplineSet
16 -425 m 1,0,-1
 16 -296 l 1,1,-1
 249 -296 l 1,2,-1
 249 1355 l 1,3,-1
 16 1355 l 1,4,-1
 16 1484 l 1,5,-1
 423 1484 l 1,6,-1
 423 -425 l 1,7,-1
 16 -425 l 1,0,-1
EndSplineSet
EndChar

StartChar: asciicircum
Encoding: 94 94 62
Width: 961
GlyphClass: 2
Flags: W
LayerCount: 2
Fore
SplineSet
787 673 m 1,0,-1
 478 1306 l 1,1,-1
 172 673 l 1,2,-1
 10 673 l 1,3,-1
 378 1409 l 1,4,-1
 581 1409 l 1,5,-1
 951 673 l 1,6,-1
 787 673 l 1,0,-1
EndSplineSet
EndChar

StartChar: underscore
Encoding: 95 95 63
Width: 1139
GlyphClass: 2
Flags: W
LayerCount: 2
Fore
SplineSet
-31 -407 m 1,0,-1
 -31 -277 l 1,1,-1
 1162 -277 l 1,2,-1
 1162 -407 l 1,3,-1
 -31 -407 l 1,0,-1
EndSplineSet
EndChar

StartChar: grave
Encoding: 96 96 64
Width: 682
GlyphClass: 2
Flags: W
LayerCount: 2
Fore
SplineSet
436 1201 m 1,0,-1
 106 1479 l 1,1,-1
 106 1508 l 1,2,-1
 313 1508 l 1,3,-1
 530 1221 l 1,4,-1
 530 1201 l 1,5,-1
 436 1201 l 1,0,-1
EndSplineSet
EndChar

StartChar: a
Encoding: 97 97 65
Width: 1139
GlyphClass: 2
Flags: W
LayerCount: 2
Fore
SplineSet
414 -20 m 0,0,1
 251 -20 251 -20 169 66 c 128,-1,2
 87 152 87 152 87 302 c 0,3,4
 87 470 87 470 197.5 560 c 128,-1,5
 308 650 308 650 554 656 c 1,6,-1
 797 660 l 1,7,-1
 797 719 l 2,8,9
 797 851 797 851 741 908 c 128,-1,10
 685 965 685 965 565 965 c 0,11,12
 444 965 444 965 389 924 c 128,-1,13
 334 883 334 883 323 793 c 1,14,-1
 135 810 l 1,15,16
 181 1102 181 1102 569 1102 c 0,17,18
 773 1102 773 1102 876 1008.5 c 128,-1,19
 979 915 979 915 979 738 c 2,20,-1
 979 272 l 2,21,22
 979 192 979 192 1000 151.5 c 128,-1,23
 1021 111 1021 111 1080 111 c 0,24,25
 1106 111 1106 111 1139 118 c 1,26,-1
 1139 6 l 1,27,28
 1071 -10 1071 -10 1000 -10 c 0,29,30
 900 -10 900 -10 854.5 42.5 c 128,-1,31
 809 95 809 95 803 207 c 1,32,-1
 797 207 l 1,33,34
 728 83 728 83 636.5 31.5 c 128,-1,35
 545 -20 545 -20 414 -20 c 0,0,1
455 115 m 0,36,37
 554 115 554 115 631 160 c 128,-1,38
 708 205 708 205 752.5 283.5 c 128,-1,39
 797 362 797 362 797 445 c 2,40,-1
 797 534 l 1,41,-1
 600 530 l 2,42,43
 473 528 473 528 407.5 504 c 128,-1,44
 342 480 342 480 307 430 c 128,-1,45
 272 380 272 380 272 299 c 0,46,47
 272 211 272 211 319.5 163 c 128,-1,48
 367 115 367 115 455 115 c 0,36,37
EndSplineSet
EndChar

StartChar: b
Encoding: 98 98 66
Width: 1139
GlyphClass: 2
Flags: W
LayerCount: 2
Fore
SplineSet
1053 546 m 0,0,1
 1053 -20 1053 -20 655 -20 c 0,2,3
 532 -20 532 -20 450.5 24.5 c 128,-1,4
 369 69 369 69 318 168 c 1,5,-1
 316 168 l 1,6,7
 316 137 316 137 312 73.5 c 128,-1,8
 308 10 308 10 306 0 c 1,9,-1
 132 0 l 1,10,11
 138 54 138 54 138 223 c 2,12,-1
 138 1484 l 1,13,-1
 318 1484 l 1,14,-1
 318 1061 l 2,15,16
 318 996 318 996 314 908 c 1,17,-1
 318 908 l 1,18,19
 368 1012 368 1012 450.5 1057 c 128,-1,20
 533 1102 533 1102 655 1102 c 0,21,22
 860 1102 860 1102 956.5 964 c 128,-1,23
 1053 826 1053 826 1053 546 c 0,0,1
864 540 m 0,24,25
 864 767 864 767 804 865 c 128,-1,26
 744 963 744 963 609 963 c 0,27,28
 457 963 457 963 387.5 859 c 128,-1,29
 318 755 318 755 318 529 c 0,30,31
 318 316 318 316 386 214.5 c 128,-1,32
 454 113 454 113 607 113 c 0,33,34
 743 113 743 113 803.5 213.5 c 128,-1,35
 864 314 864 314 864 540 c 0,24,25
EndSplineSet
EndChar

StartChar: c
Encoding: 99 99 67
Width: 1024
GlyphClass: 2
Flags: W
LayerCount: 2
Fore
SplineSet
275 546 m 0,0,1
 275 330 275 330 343 226 c 128,-1,2
 411 122 411 122 548 122 c 0,3,4
 644 122 644 122 708.5 174 c 128,-1,5
 773 226 773 226 788 334 c 1,6,-1
 970 322 l 1,7,8
 949 166 949 166 837 73 c 128,-1,9
 725 -20 725 -20 553 -20 c 0,10,11
 326 -20 326 -20 206.5 123.5 c 128,-1,12
 87 267 87 267 87 542 c 0,13,14
 87 815 87 815 207 958.5 c 128,-1,15
 327 1102 327 1102 551 1102 c 0,16,17
 717 1102 717 1102 826.5 1016 c 128,-1,18
 936 930 936 930 964 779 c 1,19,-1
 779 765 l 1,20,21
 765 855 765 855 708 908 c 128,-1,22
 651 961 651 961 546 961 c 0,23,24
 403 961 403 961 339 866 c 128,-1,25
 275 771 275 771 275 546 c 0,0,1
EndSplineSet
EndChar

StartChar: d
Encoding: 100 100 68
Width: 1139
GlyphClass: 2
Flags: W
LayerCount: 2
Fore
SplineSet
821 174 m 1,0,1
 771 70 771 70 688.5 25 c 128,-1,2
 606 -20 606 -20 484 -20 c 0,3,4
 279 -20 279 -20 182.5 118 c 128,-1,5
 86 256 86 256 86 536 c 0,6,7
 86 1102 86 1102 484 1102 c 0,8,9
 607 1102 607 1102 689 1057 c 128,-1,10
 771 1012 771 1012 821 914 c 1,11,-1
 823 914 l 1,12,-1
 821 1035 l 1,13,-1
 821 1484 l 1,14,-1
 1001 1484 l 1,15,-1
 1001 223 l 2,16,17
 1001 54 1001 54 1007 0 c 1,18,-1
 835 0 l 1,19,20
 832 16 832 16 828.5 74 c 128,-1,21
 825 132 825 132 825 174 c 1,22,-1
 821 174 l 1,0,1
275 542 m 0,23,24
 275 315 275 315 335 217 c 128,-1,25
 395 119 395 119 530 119 c 0,26,27
 683 119 683 119 752 225 c 128,-1,28
 821 331 821 331 821 554 c 0,29,30
 821 769 821 769 752 869 c 128,-1,31
 683 969 683 969 532 969 c 0,32,33
 396 969 396 969 335.5 868.5 c 128,-1,34
 275 768 275 768 275 542 c 0,23,24
EndSplineSet
EndChar

StartChar: e
Encoding: 101 101 69
Width: 1139
GlyphClass: 2
Flags: W
LayerCount: 2
Fore
SplineSet
276 503 m 1,0,1
 276 317 276 317 353 216 c 128,-1,2
 430 115 430 115 578 115 c 0,3,4
 695 115 695 115 765.5 162 c 128,-1,5
 836 209 836 209 861 281 c 1,6,-1
 1019 236 l 1,7,8
 922 -20 922 -20 578 -20 c 0,9,10
 338 -20 338 -20 212.5 123 c 128,-1,11
 87 266 87 266 87 548 c 0,12,13
 87 816 87 816 212.5 959 c 128,-1,14
 338 1102 338 1102 571 1102 c 0,15,16
 1048 1102 1048 1102 1048 527 c 2,17,-1
 1048 503 l 1,18,-1
 276 503 l 1,0,1
862 641 m 1,19,20
 847 812 847 812 775 890.5 c 128,-1,21
 703 969 703 969 568 969 c 0,22,23
 437 969 437 969 360.5 881.5 c 128,-1,24
 284 794 284 794 278 641 c 1,25,-1
 862 641 l 1,19,20
EndSplineSet
EndChar

StartChar: f
Encoding: 102 102 70
Width: 569
GlyphClass: 2
Flags: W
LayerCount: 2
Fore
SplineSet
361 951 m 1,0,-1
 361 0 l 1,1,-1
 181 0 l 1,2,-1
 181 951 l 1,3,-1
 29 951 l 1,4,-1
 29 1082 l 1,5,-1
 181 1082 l 1,6,-1
 181 1204 l 2,7,8
 181 1352 181 1352 246 1417 c 128,-1,9
 311 1482 311 1482 445 1482 c 0,10,11
 520 1482 520 1482 572 1470 c 1,12,-1
 572 1333 l 1,13,14
 527 1341 527 1341 492 1341 c 0,15,16
 423 1341 423 1341 392 1306 c 128,-1,17
 361 1271 361 1271 361 1179 c 2,18,-1
 361 1082 l 1,19,-1
 572 1082 l 1,20,-1
 572 951 l 1,21,-1
 361 951 l 1,0,-1
EndSplineSet
EndChar

StartChar: g
Encoding: 103 103 71
Width: 1139
GlyphClass: 2
Flags: W
LayerCount: 2
Fore
SplineSet
548 -425 m 0,0,1
 371 -425 371 -425 266 -355.5 c 128,-1,2
 161 -286 161 -286 131 -158 c 1,3,-1
 312 -132 l 1,4,5
 330 -207 330 -207 391.5 -247.5 c 128,-1,6
 453 -288 453 -288 553 -288 c 0,7,8
 822 -288 822 -288 822 27 c 2,9,-1
 822 201 l 1,10,-1
 820 201 l 1,11,12
 769 97 769 97 680 44.5 c 128,-1,13
 591 -8 591 -8 472 -8 c 0,14,15
 273 -8 273 -8 179.5 124 c 128,-1,16
 86 256 86 256 86 539 c 0,17,18
 86 826 86 826 186.5 962.5 c 128,-1,19
 287 1099 287 1099 492 1099 c 0,20,21
 607 1099 607 1099 691.5 1046.5 c 128,-1,22
 776 994 776 994 822 897 c 1,23,-1
 824 897 l 1,24,25
 824 927 824 927 828 1001 c 128,-1,26
 832 1075 832 1075 836 1082 c 1,27,-1
 1007 1082 l 1,28,29
 1001 1028 1001 1028 1001 858 c 2,30,-1
 1001 31 l 2,31,32
 1001 -425 1001 -425 548 -425 c 0,0,1
822 541 m 0,33,34
 822 673 822 673 786 768.5 c 128,-1,35
 750 864 750 864 684.5 914.5 c 128,-1,36
 619 965 619 965 536 965 c 0,37,38
 398 965 398 965 335 865 c 128,-1,39
 272 765 272 765 272 541 c 0,40,41
 272 319 272 319 331 222 c 128,-1,42
 390 125 390 125 533 125 c 0,43,44
 618 125 618 125 684 175 c 128,-1,45
 750 225 750 225 786 318.5 c 128,-1,46
 822 412 822 412 822 541 c 0,33,34
EndSplineSet
EndChar

StartChar: h
Encoding: 104 104 72
Width: 1139
GlyphClass: 2
Flags: W
LayerCount: 2
Fore
SplineSet
317 897 m 1,0,1
 375 1003 375 1003 456.5 1052.5 c 128,-1,2
 538 1102 538 1102 663 1102 c 0,3,4
 839 1102 839 1102 922.5 1014.5 c 128,-1,5
 1006 927 1006 927 1006 721 c 2,6,-1
 1006 0 l 1,7,-1
 825 0 l 1,8,-1
 825 686 l 2,9,10
 825 800 825 800 804 855.5 c 128,-1,11
 783 911 783 911 735 937 c 128,-1,12
 687 963 687 963 602 963 c 0,13,14
 475 963 475 963 398.5 875 c 128,-1,15
 322 787 322 787 322 638 c 2,16,-1
 322 0 l 1,17,-1
 142 0 l 1,18,-1
 142 1484 l 1,19,-1
 322 1484 l 1,20,-1
 322 1098 l 2,21,22
 322 1037 322 1037 318.5 972 c 128,-1,23
 315 907 315 907 314 897 c 1,24,-1
 317 897 l 1,0,1
EndSplineSet
EndChar

StartChar: i
Encoding: 105 105 73
Width: 455
GlyphClass: 2
Flags: W
LayerCount: 2
Fore
SplineSet
137 1312 m 1,0,-1
 137 1484 l 1,1,-1
 317 1484 l 1,2,-1
 317 1312 l 1,3,-1
 137 1312 l 1,0,-1
137 0 m 1,4,-1
 137 1082 l 1,5,-1
 317 1082 l 1,6,-1
 317 0 l 1,7,-1
 137 0 l 1,4,-1
EndSplineSet
EndChar

StartChar: j
Encoding: 106 106 74
Width: 455
GlyphClass: 2
Flags: W
LayerCount: 2
Fore
SplineSet
137 1312 m 1,0,-1
 137 1484 l 1,1,-1
 317 1484 l 1,2,-1
 317 1312 l 1,3,-1
 137 1312 l 1,0,-1
317 -134 m 2,4,5
 317 -287 317 -287 257 -356 c 128,-1,6
 197 -425 197 -425 77 -425 c 0,7,8
 0 -425 0 -425 -50 -416 c 1,9,-1
 -50 -277 l 1,10,-1
 12 -283 l 1,11,12
 81 -283 81 -283 109 -247 c 128,-1,13
 137 -211 137 -211 137 -107 c 2,14,-1
 137 1082 l 1,15,-1
 317 1082 l 1,16,-1
 317 -134 l 2,4,5
EndSplineSet
EndChar

StartChar: k
Encoding: 107 107 75
Width: 1024
GlyphClass: 2
Flags: W
LayerCount: 2
Fore
SplineSet
816 0 m 1,0,-1
 450 494 l 1,1,-1
 318 385 l 1,2,-1
 318 0 l 1,3,-1
 138 0 l 1,4,-1
 138 1484 l 1,5,-1
 318 1484 l 1,6,-1
 318 557 l 1,7,-1
 793 1082 l 1,8,-1
 1004 1082 l 1,9,-1
 565 617 l 1,10,-1
 1027 0 l 1,11,-1
 816 0 l 1,0,-1
EndSplineSet
EndChar

StartChar: l
Encoding: 108 108 76
Width: 455
GlyphClass: 2
Flags: W
LayerCount: 2
Fore
SplineSet
138 0 m 1,0,-1
 138 1484 l 1,1,-1
 318 1484 l 1,2,-1
 318 0 l 1,3,-1
 138 0 l 1,0,-1
EndSplineSet
EndChar

StartChar: m
Encoding: 109 109 77
Width: 1706
GlyphClass: 2
Flags: W
LayerCount: 2
Fore
SplineSet
768 0 m 1,0,-1
 768 686 l 2,1,2
 768 843 768 843 725 903 c 128,-1,3
 682 963 682 963 570 963 c 0,4,5
 455 963 455 963 388 875 c 128,-1,6
 321 787 321 787 321 627 c 2,7,-1
 321 0 l 1,8,-1
 142 0 l 1,9,-1
 142 851 l 2,10,11
 142 1040 142 1040 136 1082 c 1,12,-1
 306 1082 l 1,13,14
 307 1077 307 1077 308 1055 c 128,-1,15
 309 1033 309 1033 310.5 1004.5 c 128,-1,16
 312 976 312 976 314 897 c 1,17,-1
 317 897 l 1,18,19
 375 1012 375 1012 450 1057 c 128,-1,20
 525 1102 525 1102 633 1102 c 0,21,22
 756 1102 756 1102 827.5 1053 c 128,-1,23
 899 1004 899 1004 927 897 c 1,24,-1
 930 897 l 1,25,26
 986 1006 986 1006 1065.5 1054 c 128,-1,27
 1145 1102 1145 1102 1258 1102 c 0,28,29
 1422 1102 1422 1102 1496.5 1013 c 128,-1,30
 1571 924 1571 924 1571 721 c 2,31,-1
 1571 0 l 1,32,-1
 1393 0 l 1,33,-1
 1393 686 l 2,34,35
 1393 843 1393 843 1350 903 c 128,-1,36
 1307 963 1307 963 1195 963 c 0,37,38
 1077 963 1077 963 1011.5 875.5 c 128,-1,39
 946 788 946 788 946 627 c 2,40,-1
 946 0 l 1,41,-1
 768 0 l 1,0,-1
EndSplineSet
EndChar

StartChar: n
Encoding: 110 110 78
Width: 1139
GlyphClass: 2
Flags: W
LayerCount: 2
Fore
SplineSet
825 0 m 1,0,-1
 825 686 l 2,1,2
 825 793 825 793 804 852 c 128,-1,3
 783 911 783 911 737 937 c 128,-1,4
 691 963 691 963 602 963 c 0,5,6
 472 963 472 963 397 874 c 128,-1,7
 322 785 322 785 322 627 c 2,8,-1
 322 0 l 1,9,-1
 142 0 l 1,10,-1
 142 851 l 2,11,12
 142 1040 142 1040 136 1082 c 1,13,-1
 306 1082 l 1,14,15
 307 1077 307 1077 308 1055 c 128,-1,16
 309 1033 309 1033 310.5 1004.5 c 128,-1,17
 312 976 312 976 314 897 c 1,18,-1
 317 897 l 1,19,20
 379 1009 379 1009 460.5 1055.5 c 128,-1,21
 542 1102 542 1102 663 1102 c 0,22,23
 841 1102 841 1102 923.5 1013.5 c 128,-1,24
 1006 925 1006 925 1006 721 c 2,25,-1
 1006 0 l 1,26,-1
 825 0 l 1,0,-1
EndSplineSet
EndChar

StartChar: o
Encoding: 111 111 79
Width: 1139
GlyphClass: 2
Flags: W
LayerCount: 2
Fore
SplineSet
1053 542 m 0,0,1
 1053 258 1053 258 928 119 c 128,-1,2
 803 -20 803 -20 565 -20 c 0,3,4
 328 -20 328 -20 207 124.5 c 128,-1,5
 86 269 86 269 86 542 c 0,6,7
 86 1102 86 1102 571 1102 c 0,8,9
 819 1102 819 1102 936 965.5 c 128,-1,10
 1053 829 1053 829 1053 542 c 0,0,1
864 542 m 0,11,12
 864 766 864 766 797.5 867.5 c 128,-1,13
 731 969 731 969 574 969 c 0,14,15
 416 969 416 969 345.5 865.5 c 128,-1,16
 275 762 275 762 275 542 c 0,17,18
 275 328 275 328 344.5 220.5 c 128,-1,19
 414 113 414 113 563 113 c 0,20,21
 725 113 725 113 794.5 217 c 128,-1,22
 864 321 864 321 864 542 c 0,11,12
EndSplineSet
EndChar

StartChar: p
Encoding: 112 112 80
Width: 1139
GlyphClass: 2
Flags: W
LayerCount: 2
Fore
SplineSet
1053 546 m 0,0,1
 1053 -20 1053 -20 655 -20 c 0,2,3
 405 -20 405 -20 319 168 c 1,4,-1
 314 168 l 1,5,6
 318 160 318 160 318 -2 c 2,7,-1
 318 -425 l 1,8,-1
 138 -425 l 1,9,-1
 138 861 l 2,10,11
 138 1028 138 1028 132 1082 c 1,12,-1
 306 1082 l 1,13,14
 307 1078 307 1078 309 1053.5 c 128,-1,15
 311 1029 311 1029 313.5 978 c 128,-1,16
 316 927 316 927 316 908 c 1,17,-1
 320 908 l 1,18,19
 368 1008 368 1008 447 1054.5 c 128,-1,20
 526 1101 526 1101 655 1101 c 0,21,22
 855 1101 855 1101 954 967 c 128,-1,23
 1053 833 1053 833 1053 546 c 0,0,1
864 542 m 0,24,25
 864 768 864 768 803 865 c 128,-1,26
 742 962 742 962 609 962 c 0,27,28
 502 962 502 962 441.5 917 c 128,-1,29
 381 872 381 872 349.5 776.5 c 128,-1,30
 318 681 318 681 318 528 c 0,31,32
 318 315 318 315 386 214 c 128,-1,33
 454 113 454 113 607 113 c 0,34,35
 741 113 741 113 802.5 211.5 c 128,-1,36
 864 310 864 310 864 542 c 0,24,25
EndSplineSet
EndChar

StartChar: q
Encoding: 113 113 81
Width: 1139
GlyphClass: 2
Flags: W
LayerCount: 2
Fore
SplineSet
484 -20 m 0,0,1
 278 -20 278 -20 182 119 c 128,-1,2
 86 258 86 258 86 536 c 0,3,4
 86 1102 86 1102 484 1102 c 0,5,6
 607 1102 607 1102 687 1058.5 c 128,-1,7
 767 1015 767 1015 821 914 c 1,8,-1
 823 914 l 1,9,10
 823 944 823 944 827 1017.5 c 128,-1,11
 831 1091 831 1091 835 1096 c 1,12,-1
 1008 1096 l 1,13,14
 1001 1037 1001 1037 1001 801 c 2,15,-1
 1001 -425 l 1,16,-1
 821 -425 l 1,17,-1
 821 14 l 1,18,-1
 825 178 l 1,19,-1
 823 178 l 1,20,21
 769 71 769 71 690 25.5 c 128,-1,22
 611 -20 611 -20 484 -20 c 0,0,1
821 554 m 0,23,24
 821 765 821 765 752 867 c 128,-1,25
 683 969 683 969 532 969 c 0,26,27
 395 969 395 969 335 867 c 128,-1,28
 275 765 275 765 275 542 c 0,29,30
 275 315 275 315 335.5 217 c 128,-1,31
 396 119 396 119 530 119 c 0,32,33
 683 119 683 119 752 228 c 128,-1,34
 821 337 821 337 821 554 c 0,23,24
EndSplineSet
EndChar

StartChar: r
Encoding: 114 114 82
Width: 682
GlyphClass: 2
Flags: W
LayerCount: 2
Fore
SplineSet
142 0 m 1,0,-1
 142 830 l 2,1,2
 142 944 142 944 136 1082 c 1,3,-1
 306 1082 l 1,4,5
 314 898 314 898 314 861 c 1,6,-1
 318 861 l 1,7,8
 361 1000 361 1000 417 1051 c 128,-1,9
 473 1102 473 1102 575 1102 c 0,10,11
 611 1102 611 1102 648 1092 c 1,12,-1
 648 927 l 1,13,14
 612 937 612 937 552 937 c 0,15,16
 440 937 440 937 381 840.5 c 128,-1,17
 322 744 322 744 322 564 c 2,18,-1
 322 0 l 1,19,-1
 142 0 l 1,0,-1
EndSplineSet
EndChar

StartChar: s
Encoding: 115 115 83
Width: 1024
GlyphClass: 2
Flags: W
LayerCount: 2
Fore
SplineSet
950 299 m 0,0,1
 950 146 950 146 834.5 63 c 128,-1,2
 719 -20 719 -20 511 -20 c 0,3,4
 309 -20 309 -20 199.5 46.5 c 128,-1,5
 90 113 90 113 57 254 c 1,6,-1
 216 285 l 1,7,8
 239 198 239 198 311 157.5 c 128,-1,9
 383 117 383 117 511 117 c 0,10,11
 648 117 648 117 711.5 159 c 128,-1,12
 775 201 775 201 775 285 c 0,13,14
 775 349 775 349 731 389 c 128,-1,15
 687 429 687 429 589 455 c 2,16,-1
 460 489 l 2,17,18
 305 529 305 529 239.5 567.5 c 128,-1,19
 174 606 174 606 137 661 c 128,-1,20
 100 716 100 716 100 796 c 0,21,22
 100 944 100 944 205.5 1021.5 c 128,-1,23
 311 1099 311 1099 513 1099 c 0,24,25
 692 1099 692 1099 797.5 1036 c 128,-1,26
 903 973 903 973 931 834 c 1,27,-1
 769 814 l 1,28,29
 754 886 754 886 688.5 924.5 c 128,-1,30
 623 963 623 963 513 963 c 0,31,32
 391 963 391 963 333 926 c 128,-1,33
 275 889 275 889 275 814 c 0,34,35
 275 768 275 768 299 738 c 128,-1,36
 323 708 323 708 370 687 c 128,-1,37
 417 666 417 666 568 629 c 0,38,39
 711 593 711 593 774 562.5 c 128,-1,40
 837 532 837 532 873.5 495 c 128,-1,41
 910 458 910 458 930 409.5 c 128,-1,42
 950 361 950 361 950 299 c 0,0,1
EndSplineSet
EndChar

StartChar: t
Encoding: 116 116 84
Width: 569
GlyphClass: 2
Flags: W
LayerCount: 2
Fore
SplineSet
554 8 m 1,0,1
 465 -16 465 -16 372 -16 c 0,2,3
 156 -16 156 -16 156 229 c 2,4,-1
 156 951 l 1,5,-1
 31 951 l 1,6,-1
 31 1082 l 1,7,-1
 163 1082 l 1,8,-1
 216 1324 l 1,9,-1
 336 1324 l 1,10,-1
 336 1082 l 1,11,-1
 536 1082 l 1,12,-1
 536 951 l 1,13,-1
 336 951 l 1,14,-1
 336 268 l 2,15,16
 336 190 336 190 361.5 158.5 c 128,-1,17
 387 127 387 127 450 127 c 0,18,19
 486 127 486 127 554 141 c 1,20,-1
 554 8 l 1,0,1
EndSplineSet
EndChar

StartChar: u
Encoding: 117 117 85
Width: 1139
GlyphClass: 2
Flags: W
LayerCount: 2
Fore
SplineSet
314 1082 m 1,0,-1
 314 396 l 2,1,2
 314 289 314 289 335 230 c 128,-1,3
 356 171 356 171 402 145 c 128,-1,4
 448 119 448 119 537 119 c 0,5,6
 667 119 667 119 742 208 c 128,-1,7
 817 297 817 297 817 455 c 2,8,-1
 817 1082 l 1,9,-1
 997 1082 l 1,10,-1
 997 231 l 2,11,12
 997 42 997 42 1003 0 c 1,13,-1
 833 0 l 1,14,15
 832 5 832 5 831 27 c 128,-1,16
 830 49 830 49 828.5 77.5 c 128,-1,17
 827 106 827 106 825 185 c 1,18,-1
 822 185 l 1,19,20
 760 73 760 73 678.5 26.5 c 128,-1,21
 597 -20 597 -20 476 -20 c 0,22,23
 298 -20 298 -20 215.5 68.5 c 128,-1,24
 133 157 133 157 133 361 c 2,25,-1
 133 1082 l 1,26,-1
 314 1082 l 1,0,-1
EndSplineSet
EndChar

StartChar: v
Encoding: 118 118 86
Width: 1024
GlyphClass: 2
Flags: W
LayerCount: 2
Fore
SplineSet
613 0 m 1,0,-1
 400 0 l 1,1,-1
 7 1082 l 1,2,-1
 199 1082 l 1,3,-1
 437 378 l 2,4,5
 450 338 450 338 506 141 c 1,6,-1
 541 258 l 1,7,-1
 580 376 l 1,8,-1
 826 1082 l 1,9,-1
 1017 1082 l 1,10,-1
 613 0 l 1,0,-1
EndSplineSet
EndChar

StartChar: w
Encoding: 119 119 87
Width: 1479
GlyphClass: 2
Flags: W
LayerCount: 2
Fore
SplineSet
1174 0 m 1,0,-1
 965 0 l 1,1,-1
 776 765 l 1,2,-1
 740 934 l 1,3,4
 731 889 731 889 712 804.5 c 128,-1,5
 693 720 693 720 508 0 c 1,6,-1
 300 0 l 1,7,-1
 -3 1082 l 1,8,-1
 175 1082 l 1,9,-1
 358 347 l 2,10,11
 365 323 365 323 401 149 c 1,12,-1
 418 223 l 1,13,-1
 644 1082 l 1,14,-1
 837 1082 l 1,15,-1
 1026 339 l 1,16,-1
 1072 149 l 1,17,-1
 1103 288 l 1,18,-1
 1308 1082 l 1,19,-1
 1484 1082 l 1,20,-1
 1174 0 l 1,0,-1
EndSplineSet
EndChar

StartChar: x
Encoding: 120 120 88
Width: 1024
GlyphClass: 2
Flags: W
LayerCount: 2
Fore
SplineSet
801 0 m 1,0,-1
 510 444 l 1,1,-1
 217 0 l 1,2,-1
 23 0 l 1,3,-1
 408 556 l 1,4,-1
 41 1082 l 1,5,-1
 240 1082 l 1,6,-1
 510 661 l 1,7,-1
 778 1082 l 1,8,-1
 979 1082 l 1,9,-1
 612 558 l 1,10,-1
 1002 0 l 1,11,-1
 801 0 l 1,0,-1
EndSplineSet
EndChar

StartChar: y
Encoding: 121 121 89
Width: 1024
GlyphClass: 2
Flags: W
LayerCount: 2
Fore
SplineSet
191 -425 m 0,0,1
 117 -425 117 -425 67 -414 c 1,2,-1
 67 -279 l 1,3,4
 105 -285 105 -285 151 -285 c 0,5,6
 319 -285 319 -285 417 -38 c 2,7,-1
 434 5 l 1,8,-1
 5 1082 l 1,9,-1
 197 1082 l 1,10,-1
 425 484 l 2,11,12
 430 470 430 470 437 450.5 c 128,-1,13
 444 431 444 431 482 320 c 128,-1,14
 520 209 520 209 523 196 c 1,15,-1
 593 393 l 1,16,-1
 830 1082 l 1,17,-1
 1020 1082 l 1,18,-1
 604 0 l 2,19,20
 537 -173 537 -173 479 -257.5 c 128,-1,21
 421 -342 421 -342 350.5 -383.5 c 128,-1,22
 280 -425 280 -425 191 -425 c 0,0,1
EndSplineSet
EndChar

StartChar: z
Encoding: 122 122 90
Width: 1024
GlyphClass: 2
Flags: W
LayerCount: 2
Fore
SplineSet
83 0 m 1,0,-1
 83 137 l 1,1,-1
 688 943 l 1,2,-1
 117 943 l 1,3,-1
 117 1082 l 1,4,-1
 901 1082 l 1,5,-1
 901 945 l 1,6,-1
 295 139 l 1,7,-1
 922 139 l 1,8,-1
 922 0 l 1,9,-1
 83 0 l 1,0,-1
EndSplineSet
EndChar

StartChar: braceleft
Encoding: 123 123 91
Width: 684
GlyphClass: 2
Flags: W
LayerCount: 2
Fore
SplineSet
513 -425 m 2,0,1
 386 -425 386 -425 317.5 -348 c 128,-1,2
 249 -271 249 -271 249 -132 c 2,3,-1
 249 229 l 2,4,5
 249 346 249 346 196.5 403.5 c 128,-1,6
 144 461 144 461 34 466 c 1,7,-1
 34 593 l 1,8,9
 143 597 143 597 196 654.5 c 128,-1,10
 249 712 249 712 249 829 c 2,11,-1
 249 1191 l 2,12,13
 249 1332 249 1332 315.5 1408 c 128,-1,14
 382 1484 382 1484 513 1484 c 2,15,-1
 648 1484 l 1,16,-1
 648 1355 l 1,17,-1
 585 1355 l 2,18,19
 494 1355 494 1355 455.5 1301.5 c 128,-1,20
 417 1248 417 1248 417 1140 c 2,21,-1
 417 784 l 2,22,23
 417 690 417 690 364 621.5 c 128,-1,24
 311 553 311 553 223 532 c 1,25,-1
 223 530 l 1,26,27
 312 509 312 509 364.5 441 c 128,-1,28
 417 373 417 373 417 276 c 2,29,-1
 417 -81 l 2,30,31
 417 -187 417 -187 455.5 -241.5 c 128,-1,32
 494 -296 494 -296 585 -296 c 2,33,-1
 648 -296 l 1,34,-1
 648 -425 l 1,35,-1
 513 -425 l 2,0,1
EndSplineSet
EndChar

StartChar: bar
Encoding: 124 124 92
Width: 532
GlyphClass: 2
Flags: W
LayerCount: 2
Fore
SplineSet
183 -434 m 1,0,-1
 183 1484 l 1,1,-1
 349 1484 l 1,2,-1
 349 -434 l 1,3,-1
 183 -434 l 1,0,-1
EndSplineSet
EndChar

StartChar: braceright
Encoding: 125 125 93
Width: 684
GlyphClass: 2
Flags: W
LayerCount: 2
Fore
SplineSet
94 -296 m 2,0,1
 185 -296 185 -296 224.5 -241.5 c 128,-1,2
 264 -187 264 -187 264 -81 c 2,3,-1
 264 276 l 2,4,5
 264 374 264 374 316 442 c 128,-1,6
 368 510 368 510 457 530 c 1,7,-1
 457 532 l 1,8,9
 371 552 371 552 317.5 619.5 c 128,-1,10
 264 687 264 687 264 784 c 2,11,-1
 264 1140 l 2,12,13
 264 1248 264 1248 224.5 1301.5 c 128,-1,14
 185 1355 185 1355 94 1355 c 2,15,-1
 34 1355 l 1,16,-1
 34 1484 l 1,17,-1
 166 1484 l 2,18,19
 297 1484 297 1484 363.5 1408 c 128,-1,20
 430 1332 430 1332 430 1191 c 2,21,-1
 430 829 l 2,22,23
 430 713 430 713 483 655 c 128,-1,24
 536 597 536 597 647 593 c 1,25,-1
 647 466 l 1,26,27
 535 462 535 462 482.5 404 c 128,-1,28
 430 346 430 346 430 229 c 2,29,-1
 430 -132 l 2,30,31
 430 -270 430 -270 361.5 -347.5 c 128,-1,32
 293 -425 293 -425 166 -425 c 2,33,-1
 34 -425 l 1,34,-1
 34 -296 l 1,35,-1
 94 -296 l 2,0,1
EndSplineSet
EndChar

StartChar: asciitilde
Encoding: 126 126 94
Width: 1196
GlyphClass: 2
Flags: W
LayerCount: 2
Fore
SplineSet
844 553 m 0,0,1
 775 553 775 553 702.5 575 c 128,-1,2
 630 597 630 597 557 623 c 0,3,4
 428 668 428 668 340 668 c 0,5,6
 273 668 273 668 215 647.5 c 128,-1,7
 157 627 157 627 92 580 c 1,8,-1
 92 723 l 1,9,10
 203 807 203 807 355 807 c 0,11,12
 407 807 407 807 470.5 794 c 128,-1,13
 534 781 534 781 664 735 c 0,14,15
 695 723 695 723 755 706.5 c 128,-1,16
 815 690 815 690 860 690 c 0,17,18
 990 690 990 690 1104 782 c 1,19,-1
 1104 633 l 1,20,21
 1046 591 1046 591 987.5 572 c 128,-1,22
 929 553 929 553 844 553 c 0,0,1
EndSplineSet
EndChar

StartChar: dagger
Encoding: 8224 8224 127
Width: 1139
GlyphClass: 2
Flags: W
LayerCount: 2
Fore
SplineSet
649 1000 m 1,0,-1
 627 -138 l 1,1,-1
 512 -138 l 1,2,-1
 490 1000 l 1,3,-1
 138 973 l 1,4,-1
 138 1137 l 1,5,-1
 490 1108 l 1,6,-1
 462 1484 l 1,7,-1
 677 1484 l 1,8,-1
 649 1108 l 1,9,-1
 1002 1137 l 1,10,-1
 1002 973 l 1,11,-1
 649 1000 l 1,0,-1
EndSplineSet
EndChar

StartChar: degree
Encoding: 176 176 128
Width: 819
GlyphClass: 2
Flags: W
LayerCount: 2
Fore
SplineSet
696 1145 m 256,0,1
 696 1026 696 1026 611.5 943 c 128,-1,2
 527 860 527 860 409 860 c 256,3,4
 291 860 291 860 206.5 944 c 128,-1,5
 122 1028 122 1028 122 1145 c 256,6,7
 122 1262 122 1262 205.5 1346 c 128,-1,8
 289 1430 289 1430 409 1430 c 256,9,10
 529 1430 529 1430 612.5 1347 c 128,-1,11
 696 1264 696 1264 696 1145 c 256,0,1
587 1145 m 0,12,13
 587 1221 587 1221 535.5 1273 c 128,-1,14
 484 1325 484 1325 409 1325 c 256,15,16
 334 1325 334 1325 282.5 1272 c 128,-1,17
 231 1219 231 1219 231 1145 c 256,18,19
 231 1071 231 1071 283.5 1018 c 128,-1,20
 336 965 336 965 409 965 c 0,21,22
 483 965 483 965 535 1017.5 c 128,-1,23
 587 1070 587 1070 587 1145 c 0,12,13
EndSplineSet
EndChar

StartChar: cent
Encoding: 162 162 129
Width: 1139
GlyphClass: 2
Flags: W
LayerCount: 2
Fore
SplineSet
596 277 m 0,0,1
 692 277 692 277 756.5 329 c 128,-1,2
 821 381 821 381 836 489 c 1,3,-1
 1018 477 l 1,4,5
 999 333 999 333 904 242 c 128,-1,6
 809 151 809 151 662 137 c 1,7,-1
 662 -31 l 1,8,-1
 538 -31 l 1,9,-1
 538 137 l 1,10,11
 339 155 339 155 237 297.5 c 128,-1,12
 135 440 135 440 135 697 c 0,13,14
 135 950 135 950 237 1093.5 c 128,-1,15
 339 1237 339 1237 538 1254 c 1,16,-1
 538 1409 l 1,17,-1
 662 1409 l 1,18,-1
 662 1254 l 1,19,20
 805 1239 805 1239 895 1156 c 128,-1,21
 985 1073 985 1073 1012 934 c 1,22,-1
 827 920 l 1,23,24
 813 1010 813 1010 756 1063 c 128,-1,25
 699 1116 699 1116 594 1116 c 0,26,27
 451 1116 451 1116 387 1021 c 128,-1,28
 323 926 323 926 323 701 c 0,29,30
 323 485 323 485 391 381 c 128,-1,31
 459 277 459 277 596 277 c 0,0,1
EndSplineSet
EndChar

StartChar: sterling
Encoding: 163 163 130
Width: 1139
GlyphClass: 2
Flags: W
LayerCount: 2
Fore
SplineSet
1104 311 m 1,0,1
 1087 161 1087 161 999 80.5 c 128,-1,2
 911 0 911 0 767 0 c 2,3,-1
 69 0 l 1,4,-1
 69 154 l 1,5,6
 158 200 158 200 201 280 c 128,-1,7
 244 360 244 360 244 481 c 2,8,-1
 244 625 l 1,9,-1
 58 625 l 1,10,-1
 58 754 l 1,11,-1
 244 754 l 1,12,-1
 244 1034 l 2,13,14
 244 1229 244 1229 347 1329.5 c 128,-1,15
 450 1430 450 1430 646 1430 c 0,16,17
 793 1430 793 1430 893 1369.5 c 128,-1,18
 993 1309 993 1309 1027 1200 c 1,19,-1
 853 1143 l 1,20,21
 832 1207 832 1207 776.5 1244.5 c 128,-1,22
 721 1282 721 1282 650 1282 c 0,23,24
 536 1282 536 1282 480 1224.5 c 128,-1,25
 424 1167 424 1167 424 1042 c 2,26,-1
 424 754 l 1,27,-1
 832 754 l 1,28,-1
 832 625 l 1,29,-1
 424 625 l 1,30,-1
 424 499 l 2,31,32
 424 380 424 380 378 287 c 128,-1,33
 332 194 332 194 255 153 c 1,34,-1
 738 153 l 2,35,36
 912 153 912 153 941 329 c 1,37,-1
 1104 311 l 1,0,1
EndSplineSet
EndChar

StartChar: section
Encoding: 167 167 131
Width: 1139
GlyphClass: 2
Flags: W
LayerCount: 2
Fore
SplineSet
588 1484 m 0,0,1
 761 1484 761 1484 867.5 1417.5 c 128,-1,2
 974 1351 974 1351 1001 1224 c 1,3,-1
 840 1204 l 1,4,5
 813 1354 813 1354 588 1354 c 0,6,7
 463 1354 463 1354 398.5 1314.5 c 128,-1,8
 334 1275 334 1275 334 1204 c 0,9,10
 334 1156 334 1156 364 1121 c 128,-1,11
 394 1086 394 1086 449.5 1060 c 128,-1,12
 505 1034 505 1034 635 1003 c 0,13,14
 782 968 782 968 860 926.5 c 128,-1,15
 938 885 938 885 981 826 c 128,-1,16
 1024 767 1024 767 1024 686 c 0,17,18
 1024 587 1024 587 964.5 512 c 128,-1,19
 905 437 905 437 805 413 c 1,20,21
 917 365 917 365 967.5 300.5 c 128,-1,22
 1018 236 1018 236 1018 145 c 0,23,24
 1018 -3 1018 -3 902.5 -87.5 c 128,-1,25
 787 -172 787 -172 577 -172 c 0,26,27
 368 -172 368 -172 258.5 -105.5 c 128,-1,28
 149 -39 149 -39 115 100 c 1,29,-1
 276 131 l 1,30,31
 296 41 296 41 364 0 c 128,-1,32
 432 -41 432 -41 577 -41 c 0,33,34
 713 -41 713 -41 785.5 3 c 128,-1,35
 858 47 858 47 858 129 c 0,36,37
 858 186 858 186 825 224.5 c 128,-1,38
 792 263 792 263 730.5 292 c 128,-1,39
 669 321 669 321 518 358 c 1,40,41
 324 403 324 403 238.5 481 c 128,-1,42
 153 559 153 559 153 671 c 0,43,44
 153 760 153 760 214.5 834 c 128,-1,45
 276 908 276 908 381 938 c 1,46,47
 285 970 285 970 229.5 1037 c 128,-1,48
 174 1104 174 1104 174 1190 c 0,49,50
 174 1329 174 1329 279.5 1406.5 c 128,-1,51
 385 1484 385 1484 588 1484 c 0,0,1
866 663 m 0,52,53
 866 735 866 735 796.5 787 c 128,-1,54
 727 839 727 839 551 880 c 1,55,56
 442 874 442 874 377.5 821 c 128,-1,57
 313 768 313 768 313 684 c 0,58,59
 313 635 313 635 342.5 598.5 c 128,-1,60
 372 562 372 562 427.5 535 c 128,-1,61
 483 508 483 508 612 475 c 1,62,63
 731 477 731 477 798.5 527.5 c 128,-1,64
 866 578 866 578 866 663 c 0,52,53
EndSplineSet
EndChar

StartChar: bullet
Encoding: 8226 8226 132
Width: 717
GlyphClass: 2
Flags: W
LayerCount: 2
Fore
SplineSet
636 682 m 256,0,1
 636 569 636 569 554.5 485 c 128,-1,2
 473 401 473 401 355 401 c 0,3,4
 242 401 242 401 161.5 484 c 128,-1,5
 81 567 81 567 81 682 c 256,6,7
 81 797 81 797 162 876.5 c 128,-1,8
 243 956 243 956 355 956 c 0,9,10
 471 956 471 956 553.5 875.5 c 128,-1,11
 636 795 636 795 636 682 c 256,0,1
EndSplineSet
EndChar

StartChar: paragraph
Encoding: 182 182 133
Width: 1100
GlyphClass: 2
Flags: W
LayerCount: 2
Fore
SplineSet
884 1307 m 1,0,-1
 884 -264 l 1,1,-1
 772 -264 l 1,2,-1
 772 1307 l 1,3,-1
 555 1307 l 1,4,-1
 555 -264 l 1,5,-1
 442 -264 l 1,6,-1
 442 694 l 1,7,8
 274 694 274 694 177 786.5 c 128,-1,9
 80 879 80 879 80 1049 c 0,10,11
 80 1218 80 1218 178.5 1313.5 c 128,-1,12
 277 1409 277 1409 450 1409 c 2,13,-1
 1013 1409 l 1,14,-1
 1013 1307 l 1,15,-1
 884 1307 l 1,0,-1
EndSplineSet
EndChar

StartChar: germandbls
Encoding: 223 223 134
Width: 1251
GlyphClass: 2
Flags: W
LayerCount: 2
Fore
SplineSet
1167 295 m 0,0,1
 1167 145 1167 145 1073 62.5 c 128,-1,2
 979 -20 979 -20 809 -20 c 0,3,4
 638 -20 638 -20 526 29 c 1,5,-1
 524 193 l 1,6,7
 576 164 576 164 656 144 c 128,-1,8
 736 124 736 124 805 124 c 0,9,10
 897 124 897 124 946 167 c 128,-1,11
 995 210 995 210 995 289 c 0,12,13
 995 353 995 353 952.5 404 c 128,-1,14
 910 455 910 455 813 513 c 0,15,16
 721 567 721 567 675.5 633 c 128,-1,17
 630 699 630 699 630 785 c 0,18,19
 630 846 630 846 658.5 896 c 128,-1,20
 687 946 687 946 741 991 c 0,21,22
 799 1039 799 1039 825.5 1081 c 128,-1,23
 852 1123 852 1123 852 1173 c 0,24,25
 852 1250 852 1250 785 1296.5 c 128,-1,26
 718 1343 718 1343 609 1343 c 0,27,28
 461 1343 461 1343 391.5 1263 c 128,-1,29
 322 1183 322 1183 322 1021 c 2,30,-1
 322 0 l 1,31,-1
 142 0 l 1,32,-1
 142 1027 l 2,33,34
 142 1254 142 1254 259.5 1369 c 128,-1,35
 377 1484 377 1484 609 1484 c 0,36,37
 799 1484 799 1484 911.5 1403.5 c 128,-1,38
 1024 1323 1024 1323 1024 1187 c 0,39,40
 1024 1044 1024 1044 911 941 c 0,41,42
 832 869 832 869 815 844.5 c 128,-1,43
 798 820 798 820 798 791 c 0,44,45
 798 753 798 753 825.5 723.5 c 128,-1,46
 853 694 853 694 894 665.5 c 128,-1,47
 935 637 935 637 983 605 c 0,48,49
 1167 481 1167 481 1167 295 c 0,0,1
EndSplineSet
EndChar

StartChar: registered
Encoding: 174 174 135
Width: 1509
GlyphClass: 2
Flags: W
LayerCount: 2
Fore
SplineSet
1477 707 m 0,0,1
 1477 514 1477 514 1380.5 345.5 c 128,-1,2
 1284 177 1284 177 1115.5 80.5 c 128,-1,3
 947 -16 947 -16 754 -16 c 0,4,5
 557 -16 557 -16 387.5 84.5 c 128,-1,6
 218 185 218 185 124.5 351.5 c 128,-1,7
 31 518 31 518 31 707 c 0,8,9
 31 900 31 900 128 1068 c 128,-1,10
 225 1236 225 1236 393 1333 c 128,-1,11
 561 1430 561 1430 754 1430 c 0,12,13
 948 1430 948 1430 1116.5 1332.5 c 128,-1,14
 1285 1235 1285 1235 1381 1068 c 128,-1,15
 1477 901 1477 901 1477 707 c 0,0,1
1385 707 m 256,16,17
 1385 876 1385 876 1301 1020.5 c 128,-1,18
 1217 1165 1217 1165 1070.5 1250 c 128,-1,19
 924 1335 924 1335 754 1335 c 0,20,21
 586 1335 586 1335 440 1250.5 c 128,-1,22
 294 1166 294 1166 210 1020 c 128,-1,23
 126 874 126 874 126 707 c 0,24,25
 126 538 126 538 210.5 392 c 128,-1,26
 295 246 295 246 440 162 c 128,-1,27
 585 78 585 78 754 78 c 256,28,29
 923 78 923 78 1070 162 c 128,-1,30
 1217 246 1217 246 1301 392 c 128,-1,31
 1385 538 1385 538 1385 707 c 256,16,17
955 289 m 1,32,-1
 756 625 l 1,33,-1
 595 625 l 1,34,-1
 595 289 l 1,35,-1
 468 289 l 1,36,-1
 468 1120 l 1,37,-1
 775 1120 l 2,38,39
 917 1120 917 1120 992.5 1057 c 128,-1,40
 1068 994 1068 994 1068 883 c 0,41,42
 1068 781 1068 781 1016 719.5 c 128,-1,43
 964 658 964 658 879 639 c 1,44,-1
 1100 289 l 1,45,-1
 955 289 l 1,32,-1
941 881 m 0,46,47
 941 950 941 950 893.5 986 c 128,-1,48
 846 1022 846 1022 765 1022 c 2,49,-1
 595 1022 l 1,50,-1
 595 721 l 1,51,-1
 777 721 l 2,52,53
 857 721 857 721 899 763.5 c 128,-1,54
 941 806 941 806 941 881 c 0,46,47
EndSplineSet
EndChar

StartChar: copyright
Encoding: 169 169 136
Width: 1509
GlyphClass: 2
Flags: W
LayerCount: 2
Fore
SplineSet
1477 707 m 0,0,1
 1477 514 1477 514 1380.5 345.5 c 128,-1,2
 1284 177 1284 177 1115.5 80.5 c 128,-1,3
 947 -16 947 -16 754 -16 c 0,4,5
 557 -16 557 -16 387.5 84.5 c 128,-1,6
 218 185 218 185 124.5 351.5 c 128,-1,7
 31 518 31 518 31 707 c 0,8,9
 31 900 31 900 128 1068 c 128,-1,10
 225 1236 225 1236 393 1333 c 128,-1,11
 561 1430 561 1430 754 1430 c 0,12,13
 948 1430 948 1430 1116.5 1332.5 c 128,-1,14
 1285 1235 1285 1235 1381 1068 c 128,-1,15
 1477 901 1477 901 1477 707 c 0,0,1
1385 707 m 256,16,17
 1385 876 1385 876 1301 1020.5 c 128,-1,18
 1217 1165 1217 1165 1070.5 1250 c 128,-1,19
 924 1335 924 1335 754 1335 c 0,20,21
 586 1335 586 1335 440 1250.5 c 128,-1,22
 294 1166 294 1166 210 1020 c 128,-1,23
 126 874 126 874 126 707 c 0,24,25
 126 538 126 538 210.5 392 c 128,-1,26
 295 246 295 246 440 162 c 128,-1,27
 585 78 585 78 754 78 c 256,28,29
 923 78 923 78 1070 162 c 128,-1,30
 1217 246 1217 246 1301 392 c 128,-1,31
 1385 538 1385 538 1385 707 c 256,16,17
498 709 m 0,32,33
 498 554 498 554 569 468.5 c 128,-1,34
 640 383 640 383 765 383 c 0,35,36
 923 383 923 383 998 539 c 1,37,-1
 1113 504 l 1,38,39
 1051 383 1051 383 966.5 331 c 128,-1,40
 882 279 882 279 765 279 c 0,41,42
 577 279 577 279 473 392 c 128,-1,43
 369 505 369 505 369 709 c 0,44,45
 369 912 369 912 469 1022.5 c 128,-1,46
 569 1133 569 1133 758 1133 c 0,47,48
 1002 1133 1002 1133 1098 924 c 1,49,-1
 984 891 l 1,50,51
 952 960 952 960 894 994 c 128,-1,52
 836 1028 836 1028 760 1028 c 0,53,54
 633 1028 633 1028 565.5 947.5 c 128,-1,55
 498 867 498 867 498 709 c 0,32,33
EndSplineSet
EndChar

StartChar: trademark
Encoding: 8482 8482 137
Width: 2048
GlyphClass: 2
Flags: W
LayerCount: 2
Fore
SplineSet
1691 634 m 1,0,-1
 1691 1253 l 1,1,-1
 1682 1231 l 1,2,-1
 1671 1199 l 1,3,-1
 1441 634 l 1,4,-1
 1333 634 l 1,5,-1
 1170 1047 l 1,6,-1
 1093 1253 l 1,7,-1
 1092 1233 l 1,8,-1
 1091 1216 l 1,9,-1
 1091 634 l 1,10,-1
 963 634 l 1,11,-1
 963 1409 l 1,12,-1
 1153 1409 l 1,13,-1
 1376 846 l 1,14,-1
 1391 804 l 1,15,-1
 1465 996 l 1,16,-1
 1633 1409 l 1,17,-1
 1817 1409 l 1,18,-1
 1817 634 l 1,19,-1
 1691 634 l 1,0,-1
577 1298 m 1,20,-1
 577 634 l 1,21,-1
 443 634 l 1,22,-1
 443 1298 l 1,23,-1
 188 1298 l 1,24,-1
 188 1409 l 1,25,-1
 838 1409 l 1,26,-1
 838 1298 l 1,27,-1
 577 1298 l 1,20,-1
EndSplineSet
EndChar

StartChar: acute
Encoding: 180 180 138
Width: 682
GlyphClass: 2
Flags: W
LayerCount: 2
Fore
SplineSet
72 1201 m 1,0,-1
 72 1221 l 1,1,-1
 289 1508 l 1,2,-1
 496 1508 l 1,3,-1
 496 1479 l 1,4,-1
 166 1201 l 1,5,-1
 72 1201 l 1,0,-1
EndSplineSet
EndChar

StartChar: dieresis
Encoding: 168 168 139
Width: 682
GlyphClass: 2
Flags: W
LayerCount: 2
Fore
SplineSet
439 1219 m 1,0,-1
 439 1403 l 1,1,-1
 602 1403 l 1,2,-1
 602 1219 l 1,3,-1
 439 1219 l 1,0,-1
45 1219 m 1,4,-1
 45 1403 l 1,5,-1
 210 1403 l 1,6,-1
 210 1219 l 1,7,-1
 45 1219 l 1,4,-1
EndSplineSet
EndChar

StartChar: notequal
Encoding: 8800 8800 140
Width: 1124
GlyphClass: 2
Flags: W
LayerCount: 2
Fore
SplineSet
448 344 m 1,0,-1
 296 55 l 1,1,-1
 151 55 l 1,2,-1
 302 344 l 1,3,-1
 65 344 l 1,4,-1
 65 492 l 1,5,-1
 376 492 l 1,6,-1
 566 856 l 1,7,-1
 65 856 l 1,8,-1
 65 1004 l 1,9,-1
 638 1004 l 1,10,-1
 792 1296 l 1,11,-1
 935 1296 l 1,12,-1
 783 1004 l 1,13,-1
 1060 1004 l 1,14,-1
 1060 856 l 1,15,-1
 710 856 l 1,16,-1
 519 492 l 1,17,-1
 1060 492 l 1,18,-1
 1060 344 l 1,19,-1
 448 344 l 1,0,-1
EndSplineSet
EndChar

StartChar: AE
Encoding: 198 198 141
Width: 2048
GlyphClass: 2
Flags: W
LayerCount: 2
Fore
SplineSet
969 0 m 1,0,-1
 969 412 l 1,1,-1
 421 412 l 1,2,-1
 223 0 l 1,3,-1
 24 0 l 1,4,-1
 710 1409 l 1,5,-1
 1919 1409 l 1,6,-1
 1919 1253 l 1,7,-1
 1160 1253 l 1,8,-1
 1160 801 l 1,9,-1
 1859 801 l 1,10,-1
 1859 647 l 1,11,-1
 1160 647 l 1,12,-1
 1160 156 l 1,13,-1
 1960 156 l 1,14,-1
 1960 0 l 1,15,-1
 969 0 l 1,0,-1
969 1262 m 1,16,-1
 818 1262 l 1,17,-1
 790 1199 l 1,18,-1
 491 561 l 1,19,-1
 969 561 l 1,20,-1
 969 1262 l 1,16,-1
EndSplineSet
EndChar

StartChar: Oslash
Encoding: 216 216 142
Width: 1593
GlyphClass: 2
Flags: W
LayerCount: 2
Fore
SplineSet
1495 711 m 0,0,1
 1495 490 1495 490 1410.5 324 c 128,-1,2
 1326 158 1326 158 1168 69 c 128,-1,3
 1010 -20 1010 -20 795 -20 c 0,4,5
 549 -20 549 -20 381 92 c 1,6,-1
 261 -53 l 1,7,-1
 71 -53 l 1,8,-1
 271 188 l 1,9,10
 97 380 97 380 97 711 c 0,11,12
 97 1049 97 1049 282 1239.5 c 128,-1,13
 467 1430 467 1430 797 1430 c 0,14,15
 1044 1430 1044 1430 1211 1320 c 1,16,-1
 1332 1466 l 1,17,-1
 1524 1466 l 1,18,-1
 1323 1224 l 1,19,20
 1495 1034 1495 1034 1495 711 c 0,0,1
1300 711 m 0,21,22
 1300 935 1300 935 1202 1079 c 1,23,-1
 493 226 l 1,24,25
 615 135 615 135 795 135 c 0,26,27
 1039 135 1039 135 1169.5 285.5 c 128,-1,28
 1300 436 1300 436 1300 711 c 0,21,22
291 711 m 0,29,30
 291 482 291 482 392 333 c 1,31,-1
 1099 1186 l 1,32,33
 975 1274 975 1274 797 1274 c 0,34,35
 555 1274 555 1274 423 1126 c 128,-1,36
 291 978 291 978 291 711 c 0,29,30
EndSplineSet
EndChar

StartChar: infinity
Encoding: 8734 8734 143
Width: 1460
GlyphClass: 2
Flags: W
LayerCount: 2
Fore
SplineSet
1373 590 m 0,0,1
 1373 424 1373 424 1284 313.5 c 128,-1,2
 1195 203 1195 203 1062 203 c 0,3,4
 859 203 859 203 727 485 c 1,5,6
 659 352 659 352 573.5 280.5 c 128,-1,7
 488 209 488 209 400 209 c 0,8,9
 261 209 261 209 174 314.5 c 128,-1,10
 87 420 87 420 87 596 c 0,11,12
 87 767 87 767 175.5 875 c 128,-1,13
 264 983 264 983 400 983 c 0,14,15
 601 983 601 983 729 700 c 1,16,17
 794 830 794 830 880.5 903.5 c 128,-1,18
 967 977 967 977 1064 977 c 0,19,20
 1204 977 1204 977 1288.5 870 c 128,-1,21
 1373 763 1373 763 1373 590 c 0,0,1
1040 846 m 0,22,23
 970 846 970 846 910.5 783 c 128,-1,24
 851 720 851 720 795 590 c 1,25,26
 846 462 846 462 905.5 398 c 128,-1,27
 965 334 965 334 1042 334 c 0,28,29
 1125 334 1125 334 1179.5 406.5 c 128,-1,30
 1234 479 1234 479 1234 592 c 0,31,32
 1234 699 1234 699 1179.5 772.5 c 128,-1,33
 1125 846 1125 846 1040 846 c 0,22,23
664 596 m 1,34,35
 613 724 613 724 553.5 788 c 128,-1,36
 494 852 494 852 416 852 c 0,37,38
 332 852 332 852 279.5 778.5 c 128,-1,39
 227 705 227 705 227 594 c 0,40,41
 227 482 227 482 279 411 c 128,-1,42
 331 340 331 340 418 340 c 0,43,44
 488 340 488 340 548 403 c 128,-1,45
 608 466 608 466 664 596 c 1,34,35
EndSplineSet
EndChar

StartChar: plusminus
Encoding: 177 177 144
Width: 1124
GlyphClass: 2
Flags: W
LayerCount: 2
Fore
SplineSet
636 680 m 1,0,-1
 636 285 l 1,1,-1
 489 285 l 1,2,-1
 489 680 l 1,3,-1
 65 680 l 1,4,-1
 65 825 l 1,5,-1
 489 825 l 1,6,-1
 489 1219 l 1,7,-1
 636 1219 l 1,8,-1
 636 825 l 1,9,-1
 1060 825 l 1,10,-1
 1060 680 l 1,11,-1
 636 680 l 1,0,-1
65 0 m 1,12,-1
 65 145 l 1,13,-1
 1060 145 l 1,14,-1
 1060 0 l 1,15,-1
 65 0 l 1,12,-1
EndSplineSet
EndChar

StartChar: lessequal
Encoding: 8804 8804 145
Width: 1124
GlyphClass: 2
Flags: W
LayerCount: 2
Fore
SplineSet
65 631 m 1,0,-1
 65 836 l 1,1,-1
 1060 1231 l 1,2,-1
 1060 1077 l 1,3,-1
 202 733 l 1,4,-1
 1060 389 l 1,5,-1
 1060 236 l 1,6,-1
 65 631 l 1,0,-1
63 0 m 1,7,-1
 63 145 l 1,8,-1
 1058 145 l 1,9,-1
 1058 0 l 1,10,-1
 63 0 l 1,7,-1
EndSplineSet
EndChar

StartChar: greaterequal
Encoding: 8805 8805 146
Width: 1124
GlyphClass: 2
Flags: W
LayerCount: 2
Fore
SplineSet
65 236 m 1,0,-1
 65 389 l 1,1,-1
 923 733 l 1,2,-1
 65 1077 l 1,3,-1
 65 1231 l 1,4,-1
 1060 836 l 1,5,-1
 1060 631 l 1,6,-1
 65 236 l 1,0,-1
65 0 m 1,7,-1
 65 145 l 1,8,-1
 1060 145 l 1,9,-1
 1060 0 l 1,10,-1
 65 0 l 1,7,-1
EndSplineSet
EndChar

StartChar: yen
Encoding: 165 165 147
Width: 1139
GlyphClass: 2
Flags: W
LayerCount: 2
Fore
SplineSet
720 709 m 1,0,-1
 1041 709 l 1,1,-1
 1041 584 l 1,2,-1
 658 584 l 1,3,-1
 658 430 l 1,4,-1
 1041 430 l 1,5,-1
 1041 303 l 1,6,-1
 658 303 l 1,7,-1
 658 0 l 1,8,-1
 480 0 l 1,9,-1
 480 303 l 1,10,-1
 99 303 l 1,11,-1
 99 430 l 1,12,-1
 480 430 l 1,13,-1
 482 584 l 1,14,-1
 99 584 l 1,15,-1
 99 709 l 1,16,-1
 419 709 l 1,17,-1
 -2 1409 l 1,18,-1
 197 1409 l 1,19,-1
 568 762 l 1,20,-1
 943 1409 l 1,21,-1
 1142 1409 l 1,22,-1
 720 709 l 1,0,-1
EndSplineSet
EndChar

StartChar: mu1
Encoding: 181 181 148
Width: 1180
GlyphClass: 2
Flags: W
LayerCount: 2
Fore
SplineSet
140 -425 m 1,0,-1
 140 1082 l 1,1,-1
 321 1082 l 1,2,-1
 321 396 l 2,3,4
 321 258 321 258 374.5 188.5 c 128,-1,5
 428 119 428 119 547 119 c 0,6,7
 675 119 675 119 748 206 c 128,-1,8
 821 293 821 293 821 455 c 2,9,-1
 821 1082 l 1,10,-1
 1001 1082 l 1,11,-1
 1001 266 l 2,12,13
 1001 190 1001 190 1019 155.5 c 128,-1,14
 1037 121 1037 121 1079 121 c 0,15,16
 1104 121 1104 121 1133 129 c 1,17,-1
 1133 0 l 1,18,19
 1068 -20 1068 -20 1020 -20 c 0,20,21
 929 -20 929 -20 881.5 27 c 128,-1,22
 834 74 834 74 829 174 c 1,23,-1
 826 174 l 1,24,25
 720 -20 720 -20 527 -20 c 0,26,27
 460 -20 460 -20 405.5 0.5 c 128,-1,28
 351 21 351 21 320 59 c 1,29,-1
 320 -425 l 1,30,-1
 140 -425 l 1,0,-1
EndSplineSet
EndChar

StartChar: partialdiff
Encoding: 8706 8706 149
Width: 1012
GlyphClass: 2
Flags: W
LayerCount: 2
Fore
SplineSet
954 938 m 0,0,1
 954 780 954 780 918 591.5 c 128,-1,2
 882 403 882 403 808.5 261.5 c 128,-1,3
 735 120 735 120 628 46.5 c 128,-1,4
 521 -27 521 -27 389 -27 c 0,5,6
 228 -27 228 -27 142 74.5 c 128,-1,7
 56 176 56 176 56 356 c 0,8,9
 56 522 56 522 119.5 681 c 128,-1,10
 183 840 183 840 286 922 c 128,-1,11
 389 1004 389 1004 515 1004 c 0,12,13
 599 1004 599 1004 665.5 954.5 c 128,-1,14
 732 905 732 905 764 821 c 1,15,-1
 768 821 l 1,16,-1
 772 938 l 1,17,18
 772 1134 772 1134 707 1238.5 c 128,-1,19
 642 1343 642 1343 513 1343 c 0,20,21
 460 1343 460 1343 398.5 1323 c 128,-1,22
 337 1303 337 1303 291 1268 c 1,23,-1
 327 1415 l 1,24,25
 440 1477 440 1477 552 1477 c 0,26,27
 747 1477 747 1477 850.5 1337 c 128,-1,28
 954 1197 954 1197 954 938 c 0,0,1
743 680 m 1,29,30
 726 768 726 768 671.5 825.5 c 128,-1,31
 617 883 617 883 548 883 c 0,32,33
 467 883 467 883 400 817 c 128,-1,34
 333 751 333 751 289.5 620.5 c 128,-1,35
 246 490 246 490 246 358 c 0,36,37
 246 243 246 243 291 176 c 128,-1,38
 336 109 336 109 418 109 c 0,39,40
 496 109 496 109 563.5 184.5 c 128,-1,41
 631 260 631 260 678.5 393.5 c 128,-1,42
 726 527 726 527 743 680 c 1,29,30
EndSplineSet
EndChar

StartChar: summation
Encoding: 8721 8721 150
Width: 1460
GlyphClass: 2
Flags: W
LayerCount: 2
Fore
SplineSet
154 -434 m 1,0,-1
 154 -325 l 1,1,-1
 789 491 l 1,2,-1
 170 1303 l 1,3,-1
 170 1409 l 1,4,-1
 1260 1409 l 1,5,-1
 1260 1257 l 1,6,-1
 414 1257 l 1,7,-1
 998 493 l 1,8,-1
 398 -282 l 1,9,-1
 1328 -282 l 1,10,-1
 1328 -434 l 1,11,-1
 154 -434 l 1,0,-1
EndSplineSet
EndChar

StartChar: product
Encoding: 8719 8719 151
Width: 1686
GlyphClass: 2
Flags: W
LayerCount: 2
Fore
SplineSet
1268 -434 m 1,0,-1
 1268 1247 l 1,1,-1
 426 1247 l 1,2,-1
 426 -434 l 1,3,-1
 235 -434 l 1,4,-1
 235 1409 l 1,5,-1
 1452 1409 l 1,6,-1
 1452 -434 l 1,7,-1
 1268 -434 l 1,0,-1
EndSplineSet
EndChar

StartChar: integral
Encoding: 8747 8747 152
Width: 561
GlyphClass: 2
Flags: W
LayerCount: 2
Fore
SplineSet
36 -434 m 0,0,1
 -43 -434 -43 -434 -98 -415 c 1,2,-1
 -98 -268 l 1,3,4
 -38 -292 -38 -292 19 -292 c 0,5,6
 191 -292 191 -292 191 -59 c 2,7,-1
 189 1153 l 2,8,9
 189 1325 189 1325 276 1416 c 128,-1,10
 363 1507 363 1507 529 1507 c 0,11,12
 616 1507 616 1507 660 1489 c 1,13,-1
 660 1341 l 1,14,15
 611 1368 611 1368 545 1368 c 0,16,17
 462 1368 462 1368 417.5 1308.5 c 128,-1,18
 373 1249 373 1249 373 1135 c 2,19,-1
 373 -79 l 2,20,21
 373 -251 373 -251 286 -342.5 c 128,-1,22
 199 -434 199 -434 36 -434 c 0,0,1
EndSplineSet
EndChar

StartChar: ordfeminine
Encoding: 170 170 153
Width: 758
GlyphClass: 2
Flags: W
LayerCount: 2
Fore
SplineSet
260 651 m 0,0,1
 152 651 152 651 89 709 c 128,-1,2
 26 767 26 767 26 870 c 0,3,4
 26 986 26 986 104.5 1048 c 128,-1,5
 183 1110 183 1110 338 1112 c 1,6,-1
 516 1116 l 1,7,-1
 516 1176 l 2,8,9
 516 1257 516 1257 481 1294 c 128,-1,10
 446 1331 446 1331 365 1331 c 0,11,12
 298 1331 298 1331 257.5 1301.5 c 128,-1,13
 217 1272 217 1272 208 1196 c 1,14,-1
 59 1206 l 1,15,16
 75 1312 75 1312 154.5 1372 c 128,-1,17
 234 1432 234 1432 363 1432 c 0,18,19
 508 1432 508 1432 583.5 1369.5 c 128,-1,20
 659 1307 659 1307 659 1182 c 2,21,-1
 659 874 l 2,22,23
 659 816 659 816 673 791 c 128,-1,24
 687 766 687 766 722 766 c 0,25,26
 741 766 741 766 765 774 c 1,27,-1
 765 670 l 1,28,29
 716 657 716 657 682 657 c 0,30,31
 609 657 609 657 568.5 695 c 128,-1,32
 528 733 528 733 524 798 c 1,33,-1
 520 798 l 1,34,35
 447 651 447 651 260 651 c 0,0,1
299 762 m 0,36,37
 389 762 389 762 452.5 821 c 128,-1,38
 516 880 516 880 516 959 c 2,39,-1
 516 1024 l 1,40,-1
 378 1020 l 1,41,42
 260 1014 260 1014 218 981 c 128,-1,43
 176 948 176 948 176 883 c 0,44,45
 176 762 176 762 299 762 c 0,36,37
EndSplineSet
EndChar

StartChar: ordmasculine
Encoding: 186 186 154
Width: 748
GlyphClass: 2
Flags: W
LayerCount: 2
Fore
SplineSet
723 1042 m 0,0,1
 723 854 723 854 635 752.5 c 128,-1,2
 547 651 547 651 372 651 c 0,3,4
 204 651 204 651 115.5 751.5 c 128,-1,5
 27 852 27 852 27 1042 c 0,6,7
 27 1231 27 1231 116 1331.5 c 128,-1,8
 205 1432 205 1432 376 1432 c 0,9,10
 723 1432 723 1432 723 1042 c 0,0,1
574 1042 m 0,11,12
 574 1196 574 1196 528.5 1261.5 c 128,-1,13
 483 1327 483 1327 379 1327 c 0,14,15
 271 1327 271 1327 225 1259.5 c 128,-1,16
 179 1192 179 1192 179 1042 c 0,17,18
 179 897 179 897 224.5 826.5 c 128,-1,19
 270 756 270 756 371 756 c 0,20,21
 482 756 482 756 528 825 c 128,-1,22
 574 894 574 894 574 1042 c 0,11,12
EndSplineSet
EndChar

StartChar: Ohm
Encoding: 8486 8486 155
Width: 1573
GlyphClass: 2
Flags: W
LayerCount: 2
Fore
SplineSet
786 1430 m 256,0,1
 1089 1430 1089 1430 1262.5 1262.5 c 128,-1,2
 1436 1095 1436 1095 1436 801 c 0,3,4
 1436 600 1436 600 1328.5 430 c 128,-1,5
 1221 260 1221 260 1012 145 c 1,6,-1
 1093 150 l 1,7,-1
 1220 156 l 1,8,-1
 1464 156 l 1,9,-1
 1464 0 l 1,10,-1
 875 0 l 1,11,-1
 875 224 l 1,12,13
 1054 319 1054 319 1147.5 461.5 c 128,-1,14
 1241 604 1241 604 1241 788 c 0,15,16
 1241 1020 1241 1020 1122 1147 c 128,-1,17
 1003 1274 1003 1274 787 1274 c 0,18,19
 569 1274 569 1274 450 1147 c 128,-1,20
 331 1020 331 1020 331 788 c 0,21,22
 331 605 331 605 424 462.5 c 128,-1,23
 517 320 517 320 697 224 c 1,24,-1
 697 0 l 1,25,-1
 108 0 l 1,26,-1
 108 156 l 1,27,-1
 352 156 l 1,28,-1
 479 150 l 1,29,-1
 560 145 l 1,30,31
 352 258 352 258 244 428.5 c 128,-1,32
 136 599 136 599 136 801 c 0,33,34
 136 1095 136 1095 309.5 1262.5 c 128,-1,35
 483 1430 483 1430 786 1430 c 256,0,1
EndSplineSet
EndChar

StartChar: ae
Encoding: 230 230 156
Width: 1821
GlyphClass: 2
Flags: W
LayerCount: 2
Fore
SplineSet
968 503 m 1,0,-1
 968 486 l 1,1,2
 970 305 970 305 1045 210 c 128,-1,3
 1120 115 1120 115 1260 115 c 0,4,5
 1377 115 1377 115 1447.5 162 c 128,-1,6
 1518 209 1518 209 1543 281 c 1,7,-1
 1701 236 l 1,8,9
 1604 -20 1604 -20 1260 -20 c 0,10,11
 939 -20 939 -20 837 237 c 1,12,13
 758 97 758 97 653 38.5 c 128,-1,14
 548 -20 548 -20 402 -20 c 0,15,16
 235 -20 235 -20 150.5 66 c 128,-1,17
 66 152 66 152 66 302 c 0,18,19
 66 476 66 476 185 564 c 128,-1,20
 304 652 304 652 546 656 c 2,21,-1
 786 660 l 1,22,-1
 786 719 l 2,23,24
 786 854 786 854 730.5 909.5 c 128,-1,25
 675 965 675 965 554 965 c 0,26,27
 428 965 428 965 371.5 925 c 128,-1,28
 315 885 315 885 302 793 c 1,29,-1
 114 810 l 1,30,31
 160 1102 160 1102 558 1102 c 0,32,33
 808 1102 808 1102 907 963 c 1,34,35
 1025 1102 1025 1102 1253 1102 c 0,36,37
 1730 1102 1730 1102 1730 527 c 2,38,-1
 1730 503 l 1,39,-1
 968 503 l 1,0,-1
786 534 m 1,40,-1
 591 530 l 2,41,42
 458 527 458 527 387.5 500.5 c 128,-1,43
 317 474 317 474 284 423.5 c 128,-1,44
 251 373 251 373 251 299 c 0,45,46
 251 212 251 212 301 163.5 c 128,-1,47
 351 115 351 115 444 115 c 0,48,49
 546 115 546 115 622.5 159.5 c 128,-1,50
 699 204 699 204 742.5 281.5 c 128,-1,51
 786 359 786 359 786 445 c 2,52,-1
 786 534 l 1,40,-1
1544 641 m 1,53,54
 1529 812 1529 812 1457 890.5 c 128,-1,55
 1385 969 1385 969 1250 969 c 0,56,57
 1123 969 1123 969 1049.5 883.5 c 128,-1,58
 976 798 976 798 970 641 c 1,59,-1
 1544 641 l 1,53,54
EndSplineSet
EndChar

StartChar: oslash
Encoding: 248 248 157
Width: 1251
GlyphClass: 2
Flags: W
LayerCount: 2
Fore
SplineSet
1112 542 m 0,0,1
 1112 258 1112 258 987 119 c 128,-1,2
 862 -20 862 -20 624 -20 c 0,3,4
 429 -20 429 -20 311 78 c 1,5,-1
 211 -38 l 1,6,-1
 44 -38 l 1,7,-1
 228 176 l 1,8,9
 145 314 145 314 145 542 c 0,10,11
 145 1102 145 1102 630 1102 c 0,12,13
 831 1102 831 1102 946 1011 c 1,14,-1
 1037 1116 l 1,15,-1
 1204 1116 l 1,16,-1
 1031 915 l 1,17,18
 1112 782 1112 782 1112 542 c 0,0,1
923 542 m 0,19,20
 923 671 923 671 900 763 c 1,21,-1
 417 201 l 1,22,23
 485 113 485 113 622 113 c 0,24,25
 784 113 784 113 853.5 217 c 128,-1,26
 923 321 923 321 923 542 c 0,19,20
334 542 m 0,27,28
 334 412 334 412 358 327 c 1,29,-1
 840 888 l 1,30,31
 773 969 773 969 633 969 c 0,32,33
 475 969 475 969 404.5 865.5 c 128,-1,34
 334 762 334 762 334 542 c 0,27,28
EndSplineSet
EndChar

StartChar: questiondown
Encoding: 191 191 158
Width: 1251
GlyphClass: 2
Flags: W
LayerCount: 2
Fore
SplineSet
131 50 m 0,0,1
 131 125 131 125 153 184 c 128,-1,2
 175 243 175 243 216 293 c 128,-1,3
 257 343 257 343 350 411 c 2,4,-1
 431 470 l 2,5,6
 502 522 502 522 537 579.5 c 128,-1,7
 572 637 572 637 573 705 c 1,8,-1
 748 705 l 1,9,10
 746 636 746 636 726.5 584 c 128,-1,11
 707 532 707 532 676 492 c 128,-1,12
 645 452 645 452 606 420.5 c 128,-1,13
 567 389 567 389 527 360.5 c 128,-1,14
 487 332 487 332 448.5 303.5 c 128,-1,15
 410 275 410 275 380 240 c 128,-1,16
 350 205 350 205 331.5 161 c 128,-1,17
 313 117 313 117 313 58 c 0,18,19
 313 -56 313 -56 390.5 -122 c 128,-1,20
 468 -188 468 -188 608 -188 c 256,21,22
 748 -188 748 -188 830 -118 c 128,-1,23
 912 -48 912 -48 926 74 c 1,24,-1
 1110 62 l 1,25,26
 1084 -136 1084 -136 954 -242 c 128,-1,27
 824 -348 824 -348 610 -348 c 0,28,29
 387 -348 387 -348 259 -242.5 c 128,-1,30
 131 -137 131 -137 131 50 c 0,0,1
756 1082 m 1,31,-1
 756 881 l 1,32,-1
 561 881 l 1,33,-1
 561 1082 l 1,34,-1
 756 1082 l 1,31,-1
EndSplineSet
EndChar

StartChar: exclamdown
Encoding: 161 161 159
Width: 682
GlyphClass: 2
Flags: W
LayerCount: 2
Fore
SplineSet
266 685 m 1,0,-1
 414 685 l 1,1,-1
 438 -327 l 1,2,-1
 242 -327 l 1,3,-1
 266 685 l 1,0,-1
440 1082 m 1,4,-1
 440 881 l 1,5,-1
 246 881 l 1,6,-1
 246 1082 l 1,7,-1
 440 1082 l 1,4,-1
EndSplineSet
EndChar

StartChar: logicalnot
Encoding: 172 172 160
Width: 1196
GlyphClass: 2
Flags: W
LayerCount: 2
Fore
SplineSet
950 180 m 1,0,-1
 950 608 l 1,1,-1
 100 608 l 1,2,-1
 100 754 l 1,3,-1
 1095 754 l 1,4,-1
 1095 180 l 1,5,-1
 950 180 l 1,0,-1
EndSplineSet
EndChar

StartChar: radical
Encoding: 8730 8730 161
Width: 1124
GlyphClass: 2
Flags: W
LayerCount: 2
Fore
SplineSet
622 -14 m 1,0,-1
 516 -14 l 1,1,-1
 233 778 l 1,2,-1
 51 778 l 1,3,-1
 51 895 l 1,4,-1
 321 895 l 1,5,-1
 563 205 l 1,6,-1
 993 1620 l 1,7,-1
 1122 1620 l 1,8,-1
 622 -14 l 1,0,-1
EndSplineSet
EndChar

StartChar: florin
Encoding: 402 402 162
Width: 1139
GlyphClass: 2
Flags: W
LayerCount: 2
Fore
SplineSet
932 1312 m 1,0,1
 881 1327 881 1327 822 1327 c 0,2,3
 762 1327 762 1327 730 1290 c 128,-1,4
 698 1253 698 1253 679 1159 c 1,5,-1
 653 1022 l 1,6,-1
 864 1022 l 1,7,-1
 839 891 l 1,8,-1
 626 891 l 1,9,-1
 372 -434 l 1,10,-1
 192 -434 l 1,11,-1
 446 891 l 1,12,-1
 294 891 l 1,13,-1
 321 1022 l 1,14,-1
 472 1022 l 1,15,-1
 501 1174 l 1,16,17
 532 1327 532 1327 606.5 1390.5 c 128,-1,18
 681 1454 681 1454 814 1454 c 0,19,20
 893 1454 893 1454 963 1434 c 1,21,-1
 932 1312 l 1,0,1
EndSplineSet
EndChar

StartChar: approxequal
Encoding: 8776 8776 163
Width: 1124
GlyphClass: 2
Flags: W
LayerCount: 2
Fore
SplineSet
808 758 m 0,0,1
 739 758 739 758 666.5 779.5 c 128,-1,2
 594 801 594 801 521 827 c 1,3,4
 388 872 388 872 304 872 c 0,5,6
 241 872 241 872 184 853.5 c 128,-1,7
 127 835 127 835 56 784 c 1,8,-1
 56 928 l 1,9,10
 170 1012 170 1012 319 1012 c 0,11,12
 422 1012 422 1012 554 965 c 0,13,14
 664 925 664 925 721.5 909 c 128,-1,15
 779 893 779 893 824 893 c 0,16,17
 954 893 954 893 1068 987 c 1,18,-1
 1068 838 l 1,19,20
 1010 796 1010 796 951.5 777 c 128,-1,21
 893 758 893 758 808 758 c 0,0,1
808 336 m 0,22,23
 739 336 739 336 666.5 358 c 128,-1,24
 594 380 594 380 521 406 c 0,25,26
 388 453 388 453 304 453 c 0,27,28
 237 453 237 453 179 432.5 c 128,-1,29
 121 412 121 412 56 365 c 1,30,-1
 56 506 l 1,31,32
 167 590 167 590 319 590 c 0,33,34
 371 590 371 590 434.5 577 c 128,-1,35
 498 564 498 564 628 518 c 0,36,37
 659 506 659 506 719 489.5 c 128,-1,38
 779 473 779 473 824 473 c 0,39,40
 954 473 954 473 1068 565 c 1,41,-1
 1068 418 l 1,42,43
 1002 371 1002 371 945.5 353.5 c 128,-1,44
 889 336 889 336 808 336 c 0,22,23
EndSplineSet
EndChar

StartChar: uni2206
Encoding: 8710 8710 164
Width: 1253
GlyphClass: 2
Flags: W
LayerCount: 2
Fore
SplineSet
522 1409 m 1,0,-1
 739 1409 l 1,1,-1
 1249 141 l 1,2,-1
 1249 0 l 1,3,-1
 4 0 l 1,4,-1
 5 141 l 1,5,-1
 522 1409 l 1,0,-1
1049 156 m 1,6,-1
 711 1018 l 2,7,8
 681 1092 681 1092 655.5 1172.5 c 128,-1,9
 630 1253 630 1253 628 1265 c 1,10,-1
 619 1233 l 2,11,12
 588 1122 588 1122 545 1016 c 1,13,-1
 206 156 l 1,14,-1
 1049 156 l 1,6,-1
EndSplineSet
EndChar

StartChar: guillemotleft
Encoding: 171 171 165
Width: 1139
GlyphClass: 2
Flags: W
LayerCount: 2
Fore
SplineSet
886 141 m 1,0,-1
 548 506 l 1,1,-1
 548 569 l 1,2,-1
 886 940 l 1,3,-1
 1054 940 l 1,4,-1
 1054 909 l 1,5,-1
 716 537 l 1,6,-1
 1056 170 l 1,7,-1
 1056 141 l 1,8,-1
 886 141 l 1,0,-1
419 141 m 1,9,-1
 83 506 l 1,10,-1
 83 569 l 1,11,-1
 419 940 l 1,12,-1
 586 940 l 1,13,-1
 586 909 l 1,14,-1
 251 537 l 1,15,-1
 588 170 l 1,16,-1
 588 141 l 1,17,-1
 419 141 l 1,9,-1
EndSplineSet
EndChar

StartChar: guillemotright
Encoding: 187 187 166
Width: 1139
GlyphClass: 2
Flags: W
LayerCount: 2
Fore
SplineSet
718 141 m 1,0,-1
 550 141 l 1,1,-1
 550 170 l 1,2,-1
 888 537 l 1,3,-1
 552 909 l 1,4,-1
 552 940 l 1,5,-1
 718 940 l 1,6,-1
 1056 569 l 1,7,-1
 1056 506 l 1,8,-1
 718 141 l 1,0,-1
253 141 m 1,9,-1
 83 141 l 1,10,-1
 83 170 l 1,11,-1
 421 537 l 1,12,-1
 85 909 l 1,13,-1
 85 940 l 1,14,-1
 253 940 l 1,15,-1
 588 569 l 1,16,-1
 588 506 l 1,17,-1
 253 141 l 1,9,-1
EndSplineSet
EndChar

StartChar: ellipsis
Encoding: 8230 8230 167
Width: 2048
GlyphClass: 2
Flags: W
LayerCount: 2
Fore
SplineSet
1576 0 m 1,0,-1
 1576 219 l 1,1,-1
 1770 219 l 1,2,-1
 1770 0 l 1,3,-1
 1576 0 l 1,0,-1
929 0 m 1,4,-1
 929 219 l 1,5,-1
 1121 219 l 1,6,-1
 1121 0 l 1,7,-1
 929 0 l 1,4,-1
278 0 m 1,8,-1
 278 219 l 1,9,-1
 473 219 l 1,10,-1
 473 0 l 1,11,-1
 278 0 l 1,8,-1
EndSplineSet
EndChar

StartChar: OE
Encoding: 338 338 171
Width: 2048
GlyphClass: 2
Flags: W
LayerCount: 2
Fore
SplineSet
999 0 m 1,0,1
 932 -10 932 -10 789 -10 c 0,2,3
 466 -10 466 -10 281.5 183 c 128,-1,4
 97 376 97 376 97 711 c 0,5,6
 97 1043 97 1043 281 1231.5 c 128,-1,7
 465 1420 465 1420 791 1420 c 0,8,9
 898 1420 898 1420 1003 1409 c 1,10,-1
 1917 1409 l 1,11,-1
 1917 1253 l 1,12,-1
 1114 1253 l 1,13,-1
 1114 801 l 1,14,-1
 1857 801 l 1,15,-1
 1857 647 l 1,16,-1
 1114 647 l 1,17,-1
 1114 156 l 1,18,-1
 1958 156 l 1,19,-1
 1958 0 l 1,20,-1
 999 0 l 1,0,1
789 145 m 0,21,22
 871 145 871 145 923 149 c 1,23,-1
 923 1260 l 1,24,25
 879 1264 879 1264 842.5 1264 c 128,-1,26
 806 1264 806 1264 791 1264 c 0,27,28
 546 1264 546 1264 418.5 1121 c 128,-1,29
 291 978 291 978 291 711 c 0,30,31
 291 443 291 443 422.5 294 c 128,-1,32
 554 145 554 145 789 145 c 0,21,22
EndSplineSet
EndChar

StartChar: oe
Encoding: 339 339 172
Width: 1933
GlyphClass: 2
Flags: W
LayerCount: 2
Fore
SplineSet
1070 503 m 1,0,1
 1070 317 1070 317 1147 216 c 128,-1,2
 1224 115 1224 115 1372 115 c 0,3,4
 1489 115 1489 115 1559.5 162 c 128,-1,5
 1630 209 1630 209 1655 281 c 1,6,-1
 1813 236 l 1,7,8
 1716 -20 1716 -20 1372 -20 c 0,9,10
 1097 -20 1097 -20 976 163 c 1,11,12
 852 -20 852 -20 575 -20 c 0,13,14
 337 -20 337 -20 211.5 124.5 c 128,-1,15
 86 269 86 269 86 542 c 0,16,17
 86 821 86 821 212.5 961.5 c 128,-1,18
 339 1102 339 1102 581 1102 c 0,19,20
 862 1102 862 1102 979 925 c 1,21,22
 1105 1102 1105 1102 1365 1102 c 0,23,24
 1842 1102 1842 1102 1842 527 c 2,25,-1
 1842 503 l 1,26,-1
 1070 503 l 1,0,1
881 542 m 0,27,28
 881 761 881 761 812 865 c 128,-1,29
 743 969 743 969 584 969 c 0,30,31
 422 969 422 969 348.5 862.5 c 128,-1,32
 275 756 275 756 275 542 c 0,33,34
 275 113 275 113 573 113 c 0,35,36
 737 113 737 113 809 217 c 128,-1,37
 881 321 881 321 881 542 c 0,27,28
1656 641 m 1,38,39
 1641 812 1641 812 1569 890.5 c 128,-1,40
 1497 969 1497 969 1362 969 c 0,41,42
 1231 969 1231 969 1154.5 881.5 c 128,-1,43
 1078 794 1078 794 1072 641 c 1,44,-1
 1656 641 l 1,38,39
EndSplineSet
EndChar

StartChar: endash
Encoding: 8211 8211 173
Width: 1139
GlyphClass: 2
Flags: W
LayerCount: 2
Fore
SplineSet
0 451 m 1,0,-1
 0 588 l 1,1,-1
 1138 588 l 1,2,-1
 1138 451 l 1,3,-1
 0 451 l 1,0,-1
EndSplineSet
EndChar

StartChar: quotedblleft
Encoding: 8220 8220 174
Width: 682
GlyphClass: 2
Flags: W
LayerCount: 2
Fore
SplineSet
407 952 m 1,0,-1
 407 1098 l 2,1,2
 407 1193 407 1193 425 1267.5 c 128,-1,3
 443 1342 443 1342 485 1409 c 1,4,-1
 607 1409 l 1,5,6
 513 1273 513 1273 513 1147 c 1,7,-1
 601 1147 l 1,8,-1
 601 952 l 1,9,-1
 407 952 l 1,0,-1
75 952 m 1,10,-1
 75 1098 l 2,11,12
 75 1195 75 1195 93.5 1268.5 c 128,-1,13
 112 1342 112 1342 155 1409 c 1,14,-1
 276 1409 l 1,15,16
 181 1272 181 1272 181 1147 c 1,17,-1
 270 1147 l 1,18,-1
 270 952 l 1,19,-1
 75 952 l 1,10,-1
EndSplineSet
EndChar

StartChar: quotedblright
Encoding: 8221 8221 175
Width: 682
GlyphClass: 2
Flags: W
LayerCount: 2
Fore
SplineSet
607 1264 m 2,0,1
 607 1171 607 1171 590 1098 c 128,-1,2
 573 1025 573 1025 528 952 c 1,3,-1
 407 952 l 1,4,5
 501 1088 501 1088 501 1214 c 1,6,-1
 413 1214 l 1,7,-1
 413 1409 l 1,8,-1
 607 1409 l 1,9,-1
 607 1264 l 2,0,1
276 1264 m 2,10,11
 276 1159 276 1159 257 1087.5 c 128,-1,12
 238 1016 238 1016 198 952 c 1,13,-1
 75 952 l 1,14,15
 169 1088 169 1088 169 1214 c 1,16,-1
 81 1214 l 1,17,-1
 81 1409 l 1,18,-1
 276 1409 l 1,19,-1
 276 1264 l 2,10,11
EndSplineSet
EndChar

StartChar: quoteleft
Encoding: 8216 8216 176
Width: 455
GlyphClass: 2
Flags: W
LayerCount: 2
Fore
SplineSet
127 952 m 1,0,-1
 127 1098 l 2,1,2
 127 1195 127 1195 145.5 1268.5 c 128,-1,3
 164 1342 164 1342 207 1409 c 1,4,-1
 328 1409 l 1,5,6
 233 1272 233 1272 233 1147 c 1,7,-1
 322 1147 l 1,8,-1
 322 952 l 1,9,-1
 127 952 l 1,0,-1
EndSplineSet
EndChar

StartChar: quoteright
Encoding: 8217 8217 177
Width: 455
GlyphClass: 2
Flags: W
LayerCount: 2
Fore
SplineSet
328 1264 m 2,0,1
 328 1159 328 1159 309 1087.5 c 128,-1,2
 290 1016 290 1016 250 952 c 1,3,-1
 127 952 l 1,4,5
 221 1088 221 1088 221 1212 c 1,6,-1
 133 1212 l 1,7,-1
 133 1409 l 1,8,-1
 328 1409 l 1,9,-1
 328 1264 l 2,0,1
EndSplineSet
EndChar

StartChar: divide
Encoding: 247 247 178
Width: 1124
GlyphClass: 2
Flags: W
LayerCount: 2
Fore
SplineSet
478 958 m 1,0,-1
 478 1141 l 1,1,-1
 646 1141 l 1,2,-1
 646 958 l 1,3,-1
 478 958 l 1,0,-1
65 608 m 1,4,-1
 65 754 l 1,5,-1
 1060 754 l 1,6,-1
 1060 608 l 1,7,-1
 65 608 l 1,4,-1
478 223 m 1,8,-1
 478 406 l 1,9,-1
 646 406 l 1,10,-1
 646 223 l 1,11,-1
 478 223 l 1,8,-1
EndSplineSet
EndChar

StartChar: lozenge
Encoding: 9674 9674 179
Width: 1012
GlyphClass: 2
Flags: W
LayerCount: 2
Fore
SplineSet
547 0 m 1,0,-1
 465 0 l 1,1,-1
 8 719 l 1,2,-1
 465 1440 l 1,3,-1
 547 1440 l 1,4,-1
 1006 721 l 1,5,-1
 547 0 l 1,0,-1
508 1286 m 1,6,-1
 154 721 l 1,7,-1
 508 147 l 1,8,-1
 860 721 l 1,9,-1
 508 1286 l 1,6,-1
EndSplineSet
EndChar

StartChar: guilsinglleft
Encoding: 8249 8249 182
Width: 682
GlyphClass: 2
Flags: W
LayerCount: 2
Fore
SplineSet
424 141 m 1,0,-1
 88 506 l 1,1,-1
 88 569 l 1,2,-1
 424 940 l 1,3,-1
 591 940 l 1,4,-1
 591 909 l 1,5,-1
 256 537 l 1,6,-1
 593 170 l 1,7,-1
 593 141 l 1,8,-1
 424 141 l 1,0,-1
EndSplineSet
EndChar

StartChar: guilsinglright
Encoding: 8250 8250 183
Width: 682
GlyphClass: 2
Flags: W
LayerCount: 2
Fore
SplineSet
257 141 m 1,0,-1
 89 141 l 1,1,-1
 89 170 l 1,2,-1
 427 537 l 1,3,-1
 91 909 l 1,4,-1
 91 940 l 1,5,-1
 257 940 l 1,6,-1
 594 569 l 1,7,-1
 594 506 l 1,8,-1
 257 141 l 1,0,-1
EndSplineSet
EndChar

StartChar: daggerdbl
Encoding: 8225 8225 184
Width: 1139
GlyphClass: 2
Flags: W
LayerCount: 2
Fore
SplineSet
497 1000 m 1,0,-1
 137 973 l 1,1,-1
 137 1137 l 1,2,-1
 497 1108 l 1,3,-1
 481 1484 l 1,4,-1
 656 1484 l 1,5,-1
 640 1108 l 1,6,-1
 1001 1137 l 1,7,-1
 1001 973 l 1,8,-1
 640 1000 l 1,9,-1
 614 670 l 1,10,-1
 640 343 l 1,11,-1
 1000 370 l 1,12,-1
 1000 206 l 1,13,-1
 640 235 l 1,14,-1
 656 -141 l 1,15,-1
 481 -141 l 1,16,-1
 497 235 l 1,17,-1
 136 206 l 1,18,-1
 136 370 l 1,19,-1
 497 343 l 1,20,-1
 523 670 l 1,21,-1
 497 1000 l 1,0,-1
EndSplineSet
EndChar

StartChar: periodcentered
Encoding: 8729 8729 185
Width: 569
GlyphClass: 2
Flags: W
LayerCount: 2
Fore
SplineSet
187 446 m 1,0,-1
 187 666 l 1,1,-1
 382 666 l 1,2,-1
 382 446 l 1,3,-1
 187 446 l 1,0,-1
EndSplineSet
EndChar

StartChar: quotesinglbase
Encoding: 8218 8218 186
Width: 455
GlyphClass: 2
Flags: W
LayerCount: 2
Fore
SplineSet
328 51 m 2,0,1
 328 -55 328 -55 309 -126 c 128,-1,2
 290 -197 290 -197 250 -262 c 1,3,-1
 127 -262 l 1,4,5
 221 -126 221 -126 221 0 c 1,6,-1
 133 0 l 1,7,-1
 133 195 l 1,8,-1
 328 195 l 1,9,-1
 328 51 l 2,0,1
EndSplineSet
EndChar

StartChar: quotedblbase
Encoding: 8222 8222 187
Width: 682
GlyphClass: 2
Flags: W
LayerCount: 2
Fore
SplineSet
607 51 m 2,0,1
 607 -44 607 -44 589.5 -117.5 c 128,-1,2
 572 -191 572 -191 528 -262 c 1,3,-1
 407 -262 l 1,4,5
 501 -126 501 -126 501 0 c 1,6,-1
 413 0 l 1,7,-1
 413 195 l 1,8,-1
 607 195 l 1,9,-1
 607 51 l 2,0,1
276 51 m 2,10,11
 276 -55 276 -55 257 -126 c 128,-1,12
 238 -197 238 -197 198 -262 c 1,13,-1
 75 -262 l 1,14,15
 169 -126 169 -126 169 0 c 1,16,-1
 81 0 l 1,17,-1
 81 195 l 1,18,-1
 276 195 l 1,19,-1
 276 51 l 2,10,11
EndSplineSet
EndChar

StartChar: perthousand
Encoding: 8240 8240 188
Width: 2048
GlyphClass: 2
Flags: W
LayerCount: 2
Fore
SplineSet
304 0 m 1,0,-1
 149 0 l 1,1,-1
 1071 1409 l 1,2,-1
 1228 1409 l 1,3,-1
 304 0 l 1,0,-1
356 1421 m 0,4,5
 506 1421 506 1421 577.5 1329.5 c 128,-1,6
 649 1238 649 1238 649 1060 c 0,7,8
 649 880 649 880 573 787 c 128,-1,9
 497 694 497 694 352 694 c 0,10,11
 204 694 204 694 129.5 788 c 128,-1,12
 55 882 55 882 55 1060 c 0,13,14
 55 1241 55 1241 127.5 1331 c 128,-1,15
 200 1421 200 1421 356 1421 c 0,4,5
502 1060 m 0,16,17
 502 1193 502 1193 468.5 1253 c 128,-1,18
 435 1313 435 1313 356 1313 c 0,19,20
 272 1313 272 1313 237 1253.5 c 128,-1,21
 202 1194 202 1194 202 1060 c 0,22,23
 202 928 202 928 238.5 867.5 c 128,-1,24
 275 807 275 807 354 807 c 0,25,26
 429 807 429 807 465.5 869 c 128,-1,27
 502 931 502 931 502 1060 c 0,16,17
1044 716 m 0,28,29
 1194 716 1194 716 1265.5 624.5 c 128,-1,30
 1337 533 1337 533 1337 355 c 0,31,32
 1337 175 1337 175 1261 82 c 128,-1,33
 1185 -11 1185 -11 1040 -11 c 0,34,35
 892 -11 892 -11 817.5 83 c 128,-1,36
 743 177 743 177 743 355 c 0,37,38
 743 536 743 536 815.5 626 c 128,-1,39
 888 716 888 716 1044 716 c 0,28,29
1190 355 m 0,40,41
 1190 488 1190 488 1156.5 548 c 128,-1,42
 1123 608 1123 608 1044 608 c 0,43,44
 960 608 960 608 925 548.5 c 128,-1,45
 890 489 890 489 890 355 c 0,46,47
 890 223 890 223 926.5 162.5 c 128,-1,48
 963 102 963 102 1042 102 c 0,49,50
 1117 102 1117 102 1153.5 164 c 128,-1,51
 1190 226 1190 226 1190 355 c 0,40,41
1699 716 m 0,52,53
 1849 716 1849 716 1920.5 624.5 c 128,-1,54
 1992 533 1992 533 1992 355 c 0,55,56
 1992 175 1992 175 1916 82 c 128,-1,57
 1840 -11 1840 -11 1695 -11 c 0,58,59
 1547 -11 1547 -11 1472.5 83 c 128,-1,60
 1398 177 1398 177 1398 355 c 0,61,62
 1398 536 1398 536 1470.5 626 c 128,-1,63
 1543 716 1543 716 1699 716 c 0,52,53
1845 355 m 0,64,65
 1845 488 1845 488 1811.5 548 c 128,-1,66
 1778 608 1778 608 1699 608 c 0,67,68
 1615 608 1615 608 1580 548.5 c 128,-1,69
 1545 489 1545 489 1545 355 c 0,70,71
 1545 223 1545 223 1581.5 162.5 c 128,-1,72
 1618 102 1618 102 1697 102 c 0,73,74
 1772 102 1772 102 1808.5 164 c 128,-1,75
 1845 226 1845 226 1845 355 c 0,64,65
EndSplineSet
EndChar

StartChar: dotlessi
Encoding: 305 305 204
Width: 569
GlyphClass: 2
Flags: W
LayerCount: 2
Fore
SplineSet
194 0 m 1,0,-1
 194 1082 l 1,1,-1
 374 1082 l 1,2,-1
 374 0 l 1,3,-1
 194 0 l 1,0,-1
EndSplineSet
EndChar

StartChar: circumflex
Encoding: 710 710 205
Width: 682
GlyphClass: 2
Flags: W
LayerCount: 2
Fore
SplineSet
662 1221 m 1,0,-1
 662 1201 l 1,1,-1
 557 1201 l 1,2,-1
 338 1370 l 1,3,-1
 336 1370 l 1,4,-1
 104 1201 l 1,5,-1
 0 1201 l 1,6,-1
 0 1221 l 1,7,-1
 234 1491 l 1,8,-1
 438 1491 l 1,9,-1
 662 1221 l 1,0,-1
EndSplineSet
EndChar

StartChar: tilde
Encoding: 732 732 206
Width: 682
GlyphClass: 2
Flags: W
LayerCount: 2
Fore
SplineSet
492 1201 m 0,0,1
 450 1201 450 1201 408 1219.5 c 128,-1,2
 366 1238 366 1238 327 1260.5 c 128,-1,3
 288 1283 288 1283 252.5 1301.5 c 128,-1,4
 217 1320 217 1320 186 1320 c 0,5,6
 131 1320 131 1320 104 1289 c 128,-1,7
 77 1258 77 1258 68 1201 c 1,8,-1
 -23 1201 l 1,9,10
 -12 1303 -12 1303 12 1355.5 c 128,-1,11
 36 1408 36 1408 76.5 1438.5 c 128,-1,12
 117 1469 117 1469 180 1469 c 0,13,14
 224 1469 224 1469 266 1450.5 c 128,-1,15
 308 1432 308 1432 347 1409.5 c 128,-1,16
 386 1387 386 1387 420.5 1368.5 c 128,-1,17
 455 1350 455 1350 485 1350 c 0,18,19
 585 1350 585 1350 602 1469 c 1,20,-1
 694 1469 l 1,21,22
 677 1321 677 1321 627 1261 c 128,-1,23
 577 1201 577 1201 492 1201 c 0,0,1
EndSplineSet
EndChar

StartChar: macron
Encoding: 713 713 207
Width: 682
GlyphClass: 2
Flags: W
LayerCount: 2
Fore
SplineSet
600 1236 m 1,0,-1
 51 1236 l 1,1,-1
 51 1363 l 1,2,-1
 600 1363 l 1,3,-1
 600 1236 l 1,0,-1
EndSplineSet
EndChar

StartChar: breve
Encoding: 728 728 208
Width: 682
GlyphClass: 2
Flags: W
LayerCount: 2
Fore
SplineSet
297 1201 m 0,0,1
 165 1201 165 1201 74 1286 c 128,-1,2
 -17 1371 -17 1371 -35 1510 c 1,3,-1
 82 1510 l 1,4,5
 110 1357 110 1357 299 1357 c 0,6,7
 485 1357 485 1357 514 1510 c 1,8,-1
 631 1510 l 1,9,10
 610 1368 610 1368 520.5 1284.5 c 128,-1,11
 431 1201 431 1201 297 1201 c 0,0,1
EndSplineSet
EndChar

StartChar: dotaccent
Encoding: 729 729 209
Width: 682
GlyphClass: 2
Flags: W
LayerCount: 2
Fore
SplineSet
156 1312 m 1,0,-1
 156 1484 l 1,1,-1
 336 1484 l 1,2,-1
 336 1312 l 1,3,-1
 156 1312 l 1,0,-1
EndSplineSet
EndChar

StartChar: ring
Encoding: 730 730 210
Width: 682
GlyphClass: 2
Flags: W
LayerCount: 2
Fore
SplineSet
535 1410 m 256,0,1
 535 1310 535 1310 464 1239 c 128,-1,2
 393 1168 393 1168 293 1168 c 256,3,4
 193 1168 193 1168 122 1239 c 128,-1,5
 51 1310 51 1310 51 1410 c 0,6,7
 51 1511 51 1511 122 1581 c 128,-1,8
 193 1651 193 1651 293 1651 c 0,9,10
 392 1651 392 1651 463.5 1580.5 c 128,-1,11
 535 1510 535 1510 535 1410 c 256,0,1
427 1410 m 256,12,13
 427 1466 427 1466 388 1505 c 128,-1,14
 349 1544 349 1544 293 1544 c 0,15,16
 236 1544 236 1544 197 1505 c 128,-1,17
 158 1466 158 1466 158 1410 c 0,18,19
 158 1355 158 1355 196 1314 c 128,-1,20
 234 1273 234 1273 293 1273 c 0,21,22
 351 1273 351 1273 389 1313.5 c 128,-1,23
 427 1354 427 1354 427 1410 c 256,12,13
EndSplineSet
EndChar

StartChar: cedilla
Encoding: 184 184 211
Width: 682
GlyphClass: 2
Flags: W
LayerCount: 2
Fore
SplineSet
483 -253 m 0,0,1
 483 -434 483 -434 209 -434 c 0,2,3
 152 -434 152 -434 119 -430 c 1,4,-1
 119 -332 l 1,5,6
 168 -338 168 -338 205 -338 c 0,7,8
 352 -338 352 -338 352 -257 c 0,9,10
 352 -180 352 -180 219 -180 c 0,11,12
 176 -180 176 -180 162 -182 c 1,13,-1
 227 0 l 1,14,-1
 334 0 l 1,15,-1
 295 -100 l 1,16,17
 389 -103 389 -103 436 -143.5 c 128,-1,18
 483 -184 483 -184 483 -253 c 0,0,1
EndSplineSet
EndChar

StartChar: hungarumlaut
Encoding: 733 733 212
Width: 682
GlyphClass: 2
Flags: W
LayerCount: 2
Fore
SplineSet
22 1201 m 1,0,-1
 22 1221 l 1,1,-1
 239 1508 l 1,2,-1
 446 1508 l 1,3,-1
 446 1479 l 1,4,-1
 116 1201 l 1,5,-1
 22 1201 l 1,0,-1
369 1201 m 1,6,-1
 369 1221 l 1,7,-1
 586 1508 l 1,8,-1
 793 1508 l 1,9,-1
 793 1479 l 1,10,-1
 463 1201 l 1,11,-1
 369 1201 l 1,6,-1
EndSplineSet
EndChar

StartChar: ogonek
Encoding: 731 731 213
Width: 682
GlyphClass: 2
Flags: W
LayerCount: 2
Fore
SplineSet
430 -400 m 1,0,1
 367 -427 367 -427 291 -427 c 0,2,3
 186 -427 186 -427 133 -376 c 128,-1,4
 80 -325 80 -325 80 -240 c 0,5,6
 80 -170 80 -170 123.5 -104 c 128,-1,7
 167 -38 167 -38 235 0 c 1,8,-1
 368 0 l 1,9,10
 343 -14 343 -14 317 -36.5 c 128,-1,11
 291 -59 291 -59 269.5 -88.5 c 128,-1,12
 248 -118 248 -118 234.5 -153 c 128,-1,13
 221 -188 221 -188 221 -227 c 0,14,15
 221 -269 221 -269 245.5 -293 c 128,-1,16
 270 -317 270 -317 315 -317 c 0,17,18
 369 -317 369 -317 430 -293 c 1,19,-1
 430 -400 l 1,0,1
EndSplineSet
EndChar

StartChar: caron
Encoding: 711 711 214
Width: 682
GlyphClass: 2
Flags: W
LayerCount: 2
Fore
SplineSet
438 1201 m 1,0,-1
 234 1201 l 1,1,-1
 0 1471 l 1,2,-1
 0 1491 l 1,3,-1
 104 1491 l 1,4,-1
 336 1322 l 1,5,-1
 338 1322 l 1,6,-1
 557 1491 l 1,7,-1
 662 1491 l 1,8,-1
 662 1471 l 1,9,-1
 438 1201 l 1,0,-1
EndSplineSet
EndChar

StartChar: Lslash
Encoding: 321 321 215
Width: 1139
GlyphClass: 2
Flags: W
LayerCount: 2
Fore
SplineSet
616 797 m 1,0,-1
 359 648 l 1,1,-1
 359 156 l 1,2,-1
 1071 156 l 1,3,-1
 1071 0 l 1,4,-1
 168 0 l 1,5,-1
 168 538 l 1,6,-1
 20 453 l 1,7,-1
 20 611 l 1,8,-1
 168 696 l 1,9,-1
 168 1409 l 1,10,-1
 359 1409 l 1,11,-1
 359 806 l 1,12,-1
 616 954 l 1,13,-1
 616 797 l 1,0,-1
EndSplineSet
EndChar

StartChar: lslash
Encoding: 322 322 216
Width: 455
GlyphClass: 2
Flags: W
LayerCount: 2
Fore
SplineSet
138 0 m 1,0,-1
 138 542 l 1,1,-1
 16 474 l 1,2,-1
 16 632 l 1,3,-1
 138 700 l 1,4,-1
 138 1484 l 1,5,-1
 318 1484 l 1,6,-1
 318 804 l 1,7,-1
 442 876 l 1,8,-1
 442 717 l 1,9,-1
 318 646 l 1,10,-1
 318 0 l 1,11,-1
 138 0 l 1,0,-1
EndSplineSet
EndChar

StartChar: brokenbar
Encoding: 166 166 221
Width: 532
GlyphClass: 2
Flags: W
LayerCount: 2
Fore
SplineSet
183 706 m 1,0,-1
 183 1484 l 1,1,-1
 349 1484 l 1,2,-1
 349 706 l 1,3,-1
 183 706 l 1,0,-1
183 -434 m 1,4,-1
 183 345 l 1,5,-1
 349 345 l 1,6,-1
 349 -434 l 1,7,-1
 183 -434 l 1,4,-1
EndSplineSet
EndChar

StartChar: Eth
Encoding: 208 208 222
Width: 1479
GlyphClass: 2
Flags: W
LayerCount: 2
Fore
SplineSet
14 801 m 1,0,-1
 168 801 l 1,1,-1
 168 1409 l 1,2,-1
 634 1409 l 2,3,4
 992 1409 992 1409 1186.5 1229.5 c 128,-1,5
 1381 1050 1381 1050 1381 719 c 0,6,7
 1381 501 1381 501 1296 337.5 c 128,-1,8
 1211 174 1211 174 1055 87 c 128,-1,9
 899 0 899 0 695 0 c 2,10,-1
 168 0 l 1,11,-1
 168 647 l 1,12,-1
 14 647 l 1,13,-1
 14 801 l 1,0,-1
1189 719 m 0,14,15
 1189 981 1189 981 1045.5 1118.5 c 128,-1,16
 902 1256 902 1256 630 1256 c 2,17,-1
 359 1256 l 1,18,-1
 359 801 l 1,19,-1
 765 801 l 1,20,-1
 765 647 l 1,21,-1
 359 647 l 1,22,-1
 359 153 l 1,23,-1
 673 153 l 2,24,25
 828 153 828 153 945.5 221 c 128,-1,26
 1063 289 1063 289 1126 417 c 128,-1,27
 1189 545 1189 545 1189 719 c 0,14,15
EndSplineSet
EndChar

StartChar: eth
Encoding: 240 240 223
Width: 1139
GlyphClass: 2
Flags: W
LayerCount: 2
Fore
SplineSet
566 -20 m 0,0,1
 334 -20 334 -20 210 109 c 128,-1,2
 86 238 86 238 86 481 c 0,3,4
 86 725 86 725 210 852 c 128,-1,5
 334 979 334 979 573 979 c 0,6,7
 710 979 710 979 804 920 c 1,8,9
 695 1137 695 1137 570 1251 c 1,10,-1
 269 1118 l 1,11,-1
 269 1232 l 1,12,-1
 487 1326 l 1,13,14
 378 1413 378 1413 245 1484 c 1,15,-1
 454 1484 l 1,16,17
 534 1448 534 1448 624 1382 c 1,18,-1
 930 1514 l 1,19,-1
 929 1402 l 1,20,-1
 718 1310 l 1,21,22
 889 1154 889 1154 976 951 c 128,-1,23
 1063 748 1063 748 1063 516 c 2,24,-1
 1063 510 l 2,25,26
 1063 249 1063 249 938.5 114.5 c 128,-1,27
 814 -20 814 -20 566 -20 c 0,0,1
874 481 m 0,28,29
 874 673 874 673 803.5 759.5 c 128,-1,30
 733 846 733 846 577 846 c 0,31,32
 420 846 420 846 347.5 759 c 128,-1,33
 275 672 275 672 275 481 c 0,34,35
 275 291 275 291 347 202 c 128,-1,36
 419 113 419 113 564 113 c 0,37,38
 725 113 725 113 799.5 200.5 c 128,-1,39
 874 288 874 288 874 481 c 0,28,29
EndSplineSet
EndChar

StartChar: Thorn
Encoding: 222 222 226
Width: 1366
GlyphClass: 2
Flags: W
LayerCount: 2
Fore
SplineSet
1258 735 m 0,0,1
 1258 607 1258 607 1200 507.5 c 128,-1,2
 1142 408 1142 408 1032.5 352.5 c 128,-1,3
 923 297 923 297 773 297 c 2,4,-1
 359 297 l 1,5,-1
 359 0 l 1,6,-1
 168 0 l 1,7,-1
 168 1409 l 1,8,-1
 359 1409 l 1,9,-1
 359 1157 l 1,10,-1
 761 1157 l 2,11,12
 1000 1157 1000 1157 1129 1046 c 128,-1,13
 1258 935 1258 935 1258 735 c 0,0,1
1066 731 m 0,14,15
 1066 865 1066 865 984 939.5 c 128,-1,16
 902 1014 902 1014 738 1014 c 2,17,-1
 359 1014 l 1,18,-1
 359 438 l 1,19,-1
 746 438 l 2,20,21
 899 438 899 438 982.5 515.5 c 128,-1,22
 1066 593 1066 593 1066 731 c 0,14,15
EndSplineSet
EndChar

StartChar: thorn
Encoding: 254 254 227
Width: 1139
GlyphClass: 2
Flags: W
LayerCount: 2
Fore
SplineSet
138 1484 m 1,0,-1
 318 1484 l 1,1,-1
 318 1061 l 2,2,3
 318 996 318 996 314 908 c 1,4,-1
 320 908 l 1,5,6
 368 1008 368 1008 447 1054.5 c 128,-1,7
 526 1101 526 1101 655 1101 c 0,8,9
 855 1101 855 1101 954 967 c 128,-1,10
 1053 833 1053 833 1053 546 c 0,11,12
 1053 -20 1053 -20 655 -20 c 0,13,14
 405 -20 405 -20 319 168 c 1,15,-1
 314 168 l 1,16,17
 318 160 318 160 318 -2 c 2,18,-1
 318 -425 l 1,19,-1
 138 -425 l 1,20,-1
 138 1484 l 1,0,-1
864 542 m 0,21,22
 864 768 864 768 803 865 c 128,-1,23
 742 962 742 962 609 962 c 0,24,25
 502 962 502 962 441.5 917 c 128,-1,26
 381 872 381 872 349.5 776.5 c 128,-1,27
 318 681 318 681 318 528 c 0,28,29
 318 315 318 315 386 214 c 128,-1,30
 454 113 454 113 607 113 c 0,31,32
 741 113 741 113 802.5 211.5 c 128,-1,33
 864 310 864 310 864 542 c 0,21,22
EndSplineSet
EndChar

StartChar: minus
Encoding: 8722 8722 228
Width: 1196
GlyphClass: 2
Flags: W
LayerCount: 2
Fore
SplineSet
101 608 m 1,0,-1
 101 754 l 1,1,-1
 1096 754 l 1,2,-1
 1096 608 l 1,3,-1
 101 608 l 1,0,-1
EndSplineSet
EndChar

StartChar: multiply
Encoding: 215 215 229
Width: 1196
GlyphClass: 2
Flags: W
LayerCount: 2
Fore
SplineSet
142 330 m 1,0,-1
 496 684 l 1,1,-1
 144 1036 l 1,2,-1
 248 1139 l 1,3,-1
 598 786 l 1,4,-1
 948 1137 l 1,5,-1
 1053 1032 l 1,6,-1
 703 684 l 1,7,-1
 1055 332 l 1,8,-1
 953 227 l 1,9,-1
 600 580 l 1,10,-1
 244 225 l 1,11,-1
 142 330 l 1,0,-1
EndSplineSet
EndChar

StartChar: onesuperior
Encoding: 185 185 230
Width: 682
GlyphClass: 2
Flags: W
LayerCount: 2
Fore
SplineSet
80 563 m 1,0,-1
 80 670 l 1,1,-1
 291 670 l 1,2,-1
 291 1290 l 1,3,-1
 89 1152 l 1,4,-1
 89 1272 l 1,5,-1
 299 1409 l 1,6,-1
 422 1409 l 1,7,-1
 422 670 l 1,8,-1
 637 670 l 1,9,-1
 637 563 l 1,10,-1
 80 563 l 1,0,-1
EndSplineSet
EndChar

StartChar: twosuperior
Encoding: 178 178 231
Width: 682
GlyphClass: 2
Flags: W
LayerCount: 2
Fore
SplineSet
43 563 m 1,0,-1
 41 666 l 1,1,2
 72 735 72 735 136.5 800.5 c 128,-1,3
 201 866 201 866 308 940 c 0,4,5
 405 1008 405 1008 449 1064 c 128,-1,6
 493 1120 493 1120 493 1178 c 0,7,8
 493 1240 493 1240 457.5 1277.5 c 128,-1,9
 422 1315 422 1315 348 1315 c 0,10,11
 280 1315 280 1315 236 1278.5 c 128,-1,12
 192 1242 192 1242 184 1174 c 1,13,-1
 51 1182 l 1,14,15
 64 1289 64 1289 144.5 1355 c 128,-1,16
 225 1421 225 1421 354 1421 c 0,17,18
 481 1421 481 1421 555.5 1359.5 c 128,-1,19
 630 1298 630 1298 630 1188 c 0,20,21
 630 1041 630 1041 442 903 c 0,22,23
 320 813 320 813 270 767 c 128,-1,24
 220 721 220 721 200 676 c 1,25,-1
 643 676 l 1,26,-1
 643 563 l 1,27,-1
 43 563 l 1,0,-1
EndSplineSet
EndChar

StartChar: threesuperior
Encoding: 179 179 232
Width: 682
GlyphClass: 2
Flags: W
LayerCount: 2
Fore
SplineSet
642 795 m 0,0,1
 642 679 642 679 564.5 615 c 128,-1,2
 487 551 487 551 345 551 c 0,3,4
 59 551 59 551 27 778 c 1,5,-1
 163 791 l 1,6,7
 181 655 181 655 345 655 c 0,8,9
 505 655 505 655 505 803 c 0,10,11
 505 940 505 940 316 940 c 2,12,-1
 255 940 l 1,13,-1
 255 1049 l 1,14,-1
 312 1049 l 2,15,16
 392 1049 392 1049 438 1085 c 128,-1,17
 484 1121 484 1121 484 1186 c 0,18,19
 484 1246 484 1246 447 1280.5 c 128,-1,20
 410 1315 410 1315 339 1315 c 0,21,22
 271 1315 271 1315 229 1280 c 128,-1,23
 187 1245 187 1245 181 1180 c 1,24,-1
 46 1192 l 1,25,26
 59 1301 59 1301 137.5 1361 c 128,-1,27
 216 1421 216 1421 343 1421 c 0,28,29
 473 1421 473 1421 547 1361.5 c 128,-1,30
 621 1302 621 1302 621 1204 c 0,31,32
 621 1129 621 1129 578 1074 c 128,-1,33
 535 1019 535 1019 445 999 c 1,34,-1
 445 997 l 1,35,36
 536 988 536 988 589 935.5 c 128,-1,37
 642 883 642 883 642 795 c 0,0,1
EndSplineSet
EndChar

StartChar: onehalf
Encoding: 189 189 233
Width: 1708
GlyphClass: 2
Flags: W
LayerCount: 2
Fore
SplineSet
493 0 m 1,0,-1
 345 0 l 1,1,-1
 1226 1409 l 1,2,-1
 1371 1409 l 1,3,-1
 493 0 l 1,0,-1
EndSplineSet
Refer: 230 185 N 1 0 0 1 -24 0 2
Refer: 231 178 N 1 0 0 1 1010 -561 2
EndChar

StartChar: onequarter
Encoding: 188 188 234
Width: 1708
GlyphClass: 2
Flags: W
LayerCount: 2
Fore
SplineSet
1503 180 m 1,0,-1
 1503 2 l 1,1,-1
 1372 2 l 1,2,-1
 1372 180 l 1,3,-1
 966 180 l 1,4,-1
 966 291 l 1,5,-1
 1352 848 l 1,6,-1
 1503 848 l 1,7,-1
 1503 293 l 1,8,-1
 1614 293 l 1,9,-1
 1614 180 l 1,10,-1
 1503 180 l 1,0,-1
1374 715 m 1,11,12
 1353 675 1353 675 1292 580 c 1,13,-1
 1093 293 l 1,14,-1
 1372 293 l 1,15,-1
 1372 653 l 1,16,-1
 1374 715 l 1,11,12
493 0 m 1,17,-1
 345 0 l 1,18,-1
 1226 1409 l 1,19,-1
 1371 1409 l 1,20,-1
 493 0 l 1,17,-1
EndSplineSet
Refer: 230 185 N 1 0 0 1 -24 0 2
EndChar

StartChar: threequarters
Encoding: 190 190 235
Width: 1708
GlyphClass: 2
Flags: W
LayerCount: 2
Fore
SplineSet
1503 180 m 1,0,-1
 1503 2 l 1,1,-1
 1372 2 l 1,2,-1
 1372 180 l 1,3,-1
 966 180 l 1,4,-1
 966 291 l 1,5,-1
 1352 848 l 1,6,-1
 1503 848 l 1,7,-1
 1503 293 l 1,8,-1
 1614 293 l 1,9,-1
 1614 180 l 1,10,-1
 1503 180 l 1,0,-1
1374 715 m 1,11,12
 1353 675 1353 675 1292 580 c 1,13,-1
 1093 293 l 1,14,-1
 1372 293 l 1,15,-1
 1372 653 l 1,16,-1
 1374 715 l 1,11,12
513 0 m 1,17,-1
 365 0 l 1,18,-1
 1246 1409 l 1,19,-1
 1391 1409 l 1,20,-1
 513 0 l 1,17,-1
EndSplineSet
Refer: 232 179 N 1 0 0 1 46 0 2
EndChar

StartChar: dcroat
Encoding: 273 273 245
Width: 1139
GlyphClass: 2
Flags: W
LayerCount: 2
Fore
SplineSet
821 174 m 1,0,1
 771 70 771 70 688.5 25 c 128,-1,2
 606 -20 606 -20 484 -20 c 0,3,4
 279 -20 279 -20 182.5 118 c 128,-1,5
 86 256 86 256 86 536 c 0,6,7
 86 1102 86 1102 484 1102 c 0,8,9
 607 1102 607 1102 689 1057 c 128,-1,10
 771 1012 771 1012 821 914 c 1,11,-1
 823 914 l 1,12,-1
 821 1035 l 1,13,-1
 821 1206 l 1,14,-1
 521 1206 l 1,15,-1
 521 1337 l 1,16,-1
 821 1337 l 1,17,-1
 821 1484 l 1,18,-1
 1001 1484 l 1,19,-1
 1001 1337 l 1,20,-1
 1133 1337 l 1,21,-1
 1133 1206 l 1,22,-1
 1001 1206 l 1,23,-1
 1001 223 l 2,24,25
 1001 54 1001 54 1007 0 c 1,26,-1
 835 0 l 1,27,28
 832 16 832 16 828.5 74 c 128,-1,29
 825 132 825 132 825 174 c 1,30,-1
 821 174 l 1,0,1
275 542 m 0,31,32
 275 315 275 315 335 217 c 128,-1,33
 395 119 395 119 530 119 c 0,34,35
 683 119 683 119 752 225 c 128,-1,36
 821 331 821 331 821 554 c 0,37,38
 821 769 821 769 752 869 c 128,-1,39
 683 969 683 969 532 969 c 0,40,41
 396 969 396 969 335.5 868.5 c 128,-1,42
 275 768 275 768 275 542 c 0,31,32
EndSplineSet
EndChar

StartChar: overscore
Encoding: 175 175 246
Width: 1131
GlyphClass: 2
Flags: W
LayerCount: 2
Fore
SplineSet
1148 1452 m 1,0,-1
 -17 1452 l 1,1,-1
 -17 1546 l 1,2,-1
 1148 1546 l 1,3,-1
 1148 1452 l 1,0,-1
EndSplineSet
EndChar

StartChar: house
Encoding: 8962 8962 287
Width: 1237
GlyphClass: 2
Flags: W
LayerCount: 2
Fore
SplineSet
157 0 m 1,0,-1
 157 635 l 1,1,-1
 618 1153 l 1,2,-1
 1079 635 l 1,3,-1
 1079 0 l 1,4,-1
 157 0 l 1,0,-1
237 82 m 1,5,-1
 999 82 l 1,6,-1
 999 600 l 1,7,-1
 618 1026 l 1,8,-1
 237 600 l 1,9,-1
 237 82 l 1,5,-1
EndSplineSet
EndChar

StartChar: Hbar
Encoding: 294 294 308
Width: 1479
GlyphClass: 2
Flags: W
LayerCount: 2
Fore
SplineSet
1126 0 m 1,0,-1
 1126 653 l 1,1,-1
 359 653 l 1,2,-1
 359 0 l 1,3,-1
 168 0 l 1,4,-1
 168 1025 l 1,5,-1
 14 1025 l 1,6,-1
 14 1179 l 1,7,-1
 168 1179 l 1,8,-1
 168 1409 l 1,9,-1
 359 1409 l 1,10,-1
 359 1179 l 1,11,-1
 1126 1179 l 1,12,-1
 1126 1409 l 1,13,-1
 1312 1409 l 1,14,-1
 1312 1179 l 1,15,-1
 1465 1179 l 1,16,-1
 1465 1025 l 1,17,-1
 1312 1025 l 1,18,-1
 1312 0 l 1,19,-1
 1126 0 l 1,0,-1
1126 813 m 1,20,-1
 1126 1025 l 1,21,-1
 359 1025 l 1,22,-1
 359 813 l 1,23,-1
 1126 813 l 1,20,-1
EndSplineSet
EndChar

StartChar: hbar
Encoding: 295 295 309
Width: 1139
GlyphClass: 2
Flags: W
LayerCount: 2
Fore
SplineSet
317 857 m 1,0,1
 375 963 375 963 456.5 1012.5 c 128,-1,2
 538 1062 538 1062 663 1062 c 0,3,4
 839 1062 839 1062 922.5 974.5 c 128,-1,5
 1006 887 1006 887 1006 681 c 2,6,-1
 1006 0 l 1,7,-1
 825 0 l 1,8,-1
 825 646 l 2,9,10
 825 760 825 760 804 815.5 c 128,-1,11
 783 871 783 871 735 897 c 128,-1,12
 687 923 687 923 602 923 c 0,13,14
 475 923 475 923 398.5 835 c 128,-1,15
 322 747 322 747 322 598 c 2,16,-1
 322 0 l 1,17,-1
 142 0 l 1,18,-1
 142 1206 l 1,19,-1
 10 1206 l 1,20,-1
 10 1337 l 1,21,-1
 142 1337 l 1,22,-1
 142 1484 l 1,23,-1
 322 1484 l 1,24,-1
 322 1337 l 1,25,-1
 622 1337 l 1,26,-1
 622 1206 l 1,27,-1
 322 1206 l 1,28,-1
 322 1058 l 2,29,30
 322 997 322 997 318.5 932 c 128,-1,31
 315 867 315 867 314 857 c 1,32,-1
 317 857 l 1,0,1
EndSplineSet
EndChar

StartChar: radicalex
Encoding: 8254 8254 322
Width: 682
GlyphClass: 2
Flags: W
LayerCount: 2
Fore
SplineSet
747 1503 m 1,0,-1
 -64 1503 l 1,1,-1
 -64 1620 l 1,2,-1
 747 1620 l 1,3,-1
 747 1503 l 1,0,-1
EndSplineSet
EndChar

StartChar: oneeighth
Encoding: 8539 8539 323
Width: 1708
GlyphClass: 2
Flags: W
LayerCount: 2
Fore
SplineSet
1451 631 m 0,0,1
 1451 701 1451 701 1417 730.5 c 0,2,3
 1383 760 1383 760 1314 760 c 256,4,5
 1245 760 1245 760 1211.5 729 c 0,6,7
 1178 698 1178 698 1178 631 c 0,8,9
 1178 561 1178 561 1213 529 c 0,10,11
 1248 497 1248 497 1315 497 c 0,12,13
 1383 497 1383 497 1417 526.5 c 0,14,15
 1451 556 1451 556 1451 631 c 0,0,1
1472 252 m 0,16,17
 1472 396 1472 396 1314 396 c 0,18,19
 1238 396 1238 396 1198.5 358 c 0,20,21
 1159 320 1159 320 1159 250 c 0,22,23
 1159 167 1159 167 1198 129 c 0,24,25
 1237 91 1237 91 1317 91 c 0,26,27
 1398 91 1398 91 1435 128.5 c 0,28,29
 1472 166 1472 166 1472 252 c 0,16,17
1614 238 m 0,30,31
 1614 120 1614 120 1537 55 c 0,32,33
 1460 -10 1460 -10 1316 -10 c 0,34,35
 1174 -10 1174 -10 1095.5 55 c 0,36,37
 1017 120 1017 120 1017 237 c 0,38,39
 1017 318 1017 318 1064.5 375 c 0,40,41
 1112 432 1112 432 1186 444 c 1,42,-1
 1186 447 l 1,43,44
 1118 462 1118 462 1077.5 516 c 0,45,46
 1037 570 1037 570 1037 643 c 0,47,48
 1037 741 1037 741 1112 800.5 c 0,49,50
 1187 860 1187 860 1314 860 c 0,51,52
 1444 860 1444 860 1518.5 801 c 0,53,54
 1593 742 1593 742 1593 642 c 0,55,56
 1593 569 1593 569 1552 515 c 0,57,58
 1511 461 1511 461 1443 448 c 1,59,-1
 1443 445 l 1,60,61
 1525 431 1525 431 1569.5 376.5 c 0,62,63
 1614 322 1614 322 1614 238 c 0,30,31
493 0 m 1,64,-1
 345 0 l 1,65,-1
 1226 1409 l 1,66,-1
 1371 1409 l 1,67,-1
 493 0 l 1,64,-1
EndSplineSet
Refer: 230 185 N 1 0 0 1 0 0 2
EndChar

StartChar: threeeighths
Encoding: 8540 8540 324
Width: 1708
GlyphClass: 2
Flags: W
LayerCount: 2
Fore
SplineSet
1451 631 m 0,0,1
 1451 701 1451 701 1417 730.5 c 0,2,3
 1383 760 1383 760 1314 760 c 256,4,5
 1245 760 1245 760 1211.5 729 c 0,6,7
 1178 698 1178 698 1178 631 c 0,8,9
 1178 561 1178 561 1213 529 c 0,10,11
 1248 497 1248 497 1315 497 c 0,12,13
 1383 497 1383 497 1417 526.5 c 0,14,15
 1451 556 1451 556 1451 631 c 0,0,1
1472 252 m 0,16,17
 1472 396 1472 396 1314 396 c 0,18,19
 1238 396 1238 396 1198.5 358 c 0,20,21
 1159 320 1159 320 1159 250 c 0,22,23
 1159 167 1159 167 1198 129 c 0,24,25
 1237 91 1237 91 1317 91 c 0,26,27
 1398 91 1398 91 1435 128.5 c 0,28,29
 1472 166 1472 166 1472 252 c 0,16,17
1614 238 m 0,30,31
 1614 120 1614 120 1537 55 c 0,32,33
 1460 -10 1460 -10 1316 -10 c 0,34,35
 1174 -10 1174 -10 1095.5 55 c 0,36,37
 1017 120 1017 120 1017 237 c 0,38,39
 1017 318 1017 318 1064.5 375 c 0,40,41
 1112 432 1112 432 1186 444 c 1,42,-1
 1186 447 l 1,43,44
 1118 462 1118 462 1077.5 516 c 0,45,46
 1037 570 1037 570 1037 643 c 0,47,48
 1037 741 1037 741 1112 800.5 c 0,49,50
 1187 860 1187 860 1314 860 c 0,51,52
 1444 860 1444 860 1518.5 801 c 0,53,54
 1593 742 1593 742 1593 642 c 0,55,56
 1593 569 1593 569 1552 515 c 0,57,58
 1511 461 1511 461 1443 448 c 1,59,-1
 1443 445 l 1,60,61
 1525 431 1525 431 1569.5 376.5 c 0,62,63
 1614 322 1614 322 1614 238 c 0,30,31
493 0 m 1,64,-1
 345 0 l 1,65,-1
 1226 1409 l 1,66,-1
 1371 1409 l 1,67,-1
 493 0 l 1,64,-1
EndSplineSet
Refer: 232 179 N 1 0 0 1 34 0 2
EndChar

StartChar: fiveeighths
Encoding: 8541 8541 325
Width: 1708
GlyphClass: 2
Flags: W
LayerCount: 2
Fore
SplineSet
1451 631 m 0,0,1
 1451 701 1451 701 1417 730.5 c 0,2,3
 1383 760 1383 760 1314 760 c 256,4,5
 1245 760 1245 760 1211.5 729 c 0,6,7
 1178 698 1178 698 1178 631 c 0,8,9
 1178 561 1178 561 1213 529 c 0,10,11
 1248 497 1248 497 1315 497 c 0,12,13
 1383 497 1383 497 1417 526.5 c 0,14,15
 1451 556 1451 556 1451 631 c 0,0,1
1472 252 m 0,16,17
 1472 396 1472 396 1314 396 c 0,18,19
 1238 396 1238 396 1198.5 358 c 0,20,21
 1159 320 1159 320 1159 250 c 0,22,23
 1159 167 1159 167 1198 129 c 0,24,25
 1237 91 1237 91 1317 91 c 0,26,27
 1398 91 1398 91 1435 128.5 c 0,28,29
 1472 166 1472 166 1472 252 c 0,16,17
1614 238 m 0,30,31
 1614 120 1614 120 1537 55 c 0,32,33
 1460 -10 1460 -10 1316 -10 c 0,34,35
 1174 -10 1174 -10 1095.5 55 c 0,36,37
 1017 120 1017 120 1017 237 c 0,38,39
 1017 318 1017 318 1064.5 375 c 0,40,41
 1112 432 1112 432 1186 444 c 1,42,-1
 1186 447 l 1,43,44
 1118 462 1118 462 1077.5 516 c 0,45,46
 1037 570 1037 570 1037 643 c 0,47,48
 1037 741 1037 741 1112 800.5 c 0,49,50
 1187 860 1187 860 1314 860 c 0,51,52
 1444 860 1444 860 1518.5 801 c 0,53,54
 1593 742 1593 742 1593 642 c 0,55,56
 1593 569 1593 569 1552 515 c 0,57,58
 1511 461 1511 461 1443 448 c 1,59,-1
 1443 445 l 1,60,61
 1525 431 1525 431 1569.5 376.5 c 0,62,63
 1614 322 1614 322 1614 238 c 0,30,31
676 835 m 0,64,65
 676 703 676 703 600.5 627.5 c 0,66,67
 525 552 525 552 387 552 c 0,68,69
 268 552 268 552 190.5 609 c 0,70,71
 113 666 113 666 93 773 c 1,72,-1
 226 788 l 1,73,74
 237 728 237 728 278.5 692.5 c 0,75,76
 320 657 320 657 384 657 c 0,77,78
 455 657 455 657 498 699.5 c 0,79,80
 541 742 541 742 541 835 c 0,81,82
 541 916 541 916 500.5 958.5 c 0,83,84
 460 1001 460 1001 385 1001 c 0,85,86
 294 1001 294 1001 234 941 c 1,87,-1
 105 941 l 1,88,-1
 138 1409 l 1,89,-1
 644 1409 l 1,90,-1
 644 1296 l 1,91,-1
 246 1296 l 1,92,-1
 227 1051 l 1,93,94
 256 1077 256 1077 301.5 1093.5 c 0,95,96
 347 1110 347 1110 401 1110 c 0,97,98
 531 1110 531 1110 603.5 1037.5 c 0,99,100
 676 965 676 965 676 835 c 0,64,65
493 0 m 1,101,-1
 345 0 l 1,102,-1
 1226 1409 l 1,103,-1
 1371 1409 l 1,104,-1
 493 0 l 1,101,-1
EndSplineSet
EndChar

StartChar: seveneighths
Encoding: 8542 8542 326
Width: 1708
GlyphClass: 2
Flags: W
LayerCount: 2
Fore
SplineSet
1451 631 m 0,0,1
 1451 701 1451 701 1417 730.5 c 0,2,3
 1383 760 1383 760 1314 760 c 256,4,5
 1245 760 1245 760 1211.5 729 c 0,6,7
 1178 698 1178 698 1178 631 c 0,8,9
 1178 561 1178 561 1213 529 c 0,10,11
 1248 497 1248 497 1315 497 c 0,12,13
 1383 497 1383 497 1417 526.5 c 0,14,15
 1451 556 1451 556 1451 631 c 0,0,1
1472 252 m 0,16,17
 1472 396 1472 396 1314 396 c 0,18,19
 1238 396 1238 396 1198.5 358 c 0,20,21
 1159 320 1159 320 1159 250 c 0,22,23
 1159 167 1159 167 1198 129 c 0,24,25
 1237 91 1237 91 1317 91 c 0,26,27
 1398 91 1398 91 1435 128.5 c 0,28,29
 1472 166 1472 166 1472 252 c 0,16,17
1614 238 m 0,30,31
 1614 120 1614 120 1537 55 c 0,32,33
 1460 -10 1460 -10 1316 -10 c 0,34,35
 1174 -10 1174 -10 1095.5 55 c 0,36,37
 1017 120 1017 120 1017 237 c 0,38,39
 1017 318 1017 318 1064.5 375 c 0,40,41
 1112 432 1112 432 1186 444 c 1,42,-1
 1186 447 l 1,43,44
 1118 462 1118 462 1077.5 516 c 0,45,46
 1037 570 1037 570 1037 643 c 0,47,48
 1037 741 1037 741 1112 800.5 c 0,49,50
 1187 860 1187 860 1314 860 c 0,51,52
 1444 860 1444 860 1518.5 801 c 0,53,54
 1593 742 1593 742 1593 642 c 0,55,56
 1593 569 1593 569 1552 515 c 0,57,58
 1511 461 1511 461 1443 448 c 1,59,-1
 1443 445 l 1,60,61
 1525 431 1525 431 1569.5 376.5 c 0,62,63
 1614 322 1614 322 1614 238 c 0,30,31
734 1308 m 1,64,65
 605 1112 605 1112 551 1001.5 c 0,66,67
 497 891 497 891 470.5 785 c 0,68,69
 444 679 444 679 444 564 c 1,70,-1
 311 564 l 1,71,72
 311 719 311 719 373 882.5 c 0,73,74
 435 1046 435 1046 605 1296 c 1,75,-1
 145 1296 l 1,76,-1
 145 1409 l 1,77,-1
 734 1409 l 1,78,-1
 734 1308 l 1,64,65
433 0 m 1,79,-1
 285 0 l 1,80,-1
 1166 1409 l 1,81,-1
 1311 1409 l 1,82,-1
 433 0 l 1,79,-1
EndSplineSet
EndChar

StartChar: uni0403
Encoding: 1027 1027 328
Width: 1109
GlyphClass: 2
Flags: W
LayerCount: 2
Fore
SplineSet
1071 1410 m 1,0,-1
 1071 1254 l 1,1,-1
 359 1254 l 1,2,-1
 359 1 l 1,3,-1
 168 1 l 1,4,-1
 168 1410 l 1,5,-1
 1071 1410 l 1,0,-1
EndSplineSet
Refer: 418 -1 N 1 0 0 1 369 0 2
EndChar

StartChar: uni0404
Encoding: 1028 1028 329
Width: 1472
GlyphClass: 2
Flags: W
LayerCount: 2
Fore
SplineSet
792 1274 m 0,0,1
 579 1274 579 1274 450.5 1147.5 c 128,-1,2
 322 1021 322 1021 301 792 c 1,3,-1
 955 792 l 1,4,-1
 955 638 l 1,5,-1
 301 638 l 1,6,7
 319 409 319 409 452.5 273 c 128,-1,8
 586 137 586 137 800 137 c 0,9,10
 947 137 947 137 1060.5 211 c 128,-1,11
 1174 285 1174 285 1245 429 c 1,12,-1
 1401 352 l 1,13,14
 1304 160 1304 160 1152.5 70 c 128,-1,15
 1001 -20 1001 -20 791 -20 c 0,16,17
 578 -20 578 -20 422.5 68.5 c 128,-1,18
 267 157 267 157 185.5 321.5 c 128,-1,19
 104 486 104 486 104 711 c 0,20,21
 104 1048 104 1048 286 1239 c 128,-1,22
 468 1430 468 1430 790 1430 c 0,23,24
 1015 1430 1015 1430 1166 1342 c 128,-1,25
 1317 1254 1317 1254 1388 1081 c 1,26,-1
 1207 1021 l 1,27,28
 1158 1144 1158 1144 1049.5 1209 c 128,-1,29
 941 1274 941 1274 792 1274 c 0,0,1
EndSplineSet
EndChar

StartChar: uni0411
Encoding: 1041 1041 337
Width: 1344
GlyphClass: 2
Flags: W
LayerCount: 2
Fore
SplineSet
1238 413 m 0,0,1
 1238 226 1238 226 1109 113 c 128,-1,2
 980 0 980 0 753 0 c 2,3,-1
 168 0 l 1,4,-1
 168 1409 l 1,5,-1
 1094 1409 l 1,6,-1
 1094 1253 l 1,7,-1
 359 1253 l 1,8,-1
 359 813 l 1,9,-1
 741 813 l 2,10,11
 977 813 977 813 1107.5 708 c 128,-1,12
 1238 603 1238 603 1238 413 c 0,0,1
1046 411 m 0,13,14
 1046 532 1046 532 964 596.5 c 128,-1,15
 882 661 882 661 718 661 c 2,16,-1
 359 661 l 1,17,-1
 359 151 l 1,18,-1
 726 151 l 2,19,20
 890 151 890 151 968 219 c 128,-1,21
 1046 287 1046 287 1046 411 c 0,13,14
EndSplineSet
EndChar

StartChar: uni0413
Encoding: 1043 1043 339
Width: 1109
GlyphClass: 2
Flags: W
LayerCount: 2
Fore
SplineSet
1071 1410 m 1,0,-1
 1071 1254 l 1,1,-1
 359 1254 l 1,2,-1
 359 1 l 1,3,-1
 168 1 l 1,4,-1
 168 1410 l 1,5,-1
 1071 1410 l 1,0,-1
EndSplineSet
EndChar

StartChar: uni0414
Encoding: 1044 1044 340
Width: 1387
GlyphClass: 2
Flags: W
LayerCount: 2
Fore
SplineSet
1174 160 m 1,0,-1
 1349 160 l 1,1,-1
 1349 -408 l 1,2,-1
 1169 -408 l 1,3,-1
 1169 0 l 1,4,-1
 195 0 l 1,5,-1
 195 -408 l 1,6,-1
 15 -408 l 1,7,-1
 15 160 l 1,8,-1
 159 160 l 1,9,10
 237 257 237 257 291.5 432.5 c 128,-1,11
 346 608 346 608 383 899 c 1,12,-1
 450 1409 l 1,13,-1
 1174 1409 l 1,14,-1
 1174 160 l 1,0,-1
988 160 m 1,15,-1
 988 1249 l 1,16,-1
 613 1249 l 1,17,-1
 564 881 l 2,18,19
 527 607 527 607 482 434 c 128,-1,20
 437 261 437 261 374 160 c 1,21,-1
 988 160 l 1,15,-1
EndSplineSet
EndChar

StartChar: uni0416
Encoding: 1046 1046 342
Width: 1891
GlyphClass: 2
Flags: W
LayerCount: 2
Fore
SplineSet
850 645 m 1,0,1
 813 645 813 645 757.5 658 c 128,-1,2
 702 671 702 671 677 683 c 1,3,-1
 250 0 l 1,4,-1
 28 0 l 1,5,-1
 537 775 l 1,6,7
 489 810 489 810 358 999 c 2,8,-1
 75 1409 l 1,9,-1
 275 1409 l 1,10,-1
 480 1104 l 1,11,12
 591 937 591 937 639 883.5 c 128,-1,13
 687 830 687 830 731 810 c 128,-1,14
 775 790 775 790 850 790 c 1,15,-1
 850 1409 l 1,16,-1
 1041 1409 l 1,17,-1
 1041 790 l 1,18,19
 1116 790 1116 790 1161 810.5 c 128,-1,20
 1206 831 1206 831 1255 886.5 c 128,-1,21
 1304 942 1304 942 1411 1104 c 1,22,-1
 1616 1409 l 1,23,-1
 1816 1409 l 1,24,-1
 1533 999 l 2,25,26
 1402 810 1402 810 1354 775 c 1,27,-1
 1863 0 l 1,28,-1
 1641 0 l 1,29,-1
 1214 683 l 1,30,31
 1189 671 1189 671 1134.5 658 c 128,-1,32
 1080 645 1080 645 1041 645 c 1,33,-1
 1041 0 l 1,34,-1
 850 0 l 1,35,-1
 850 645 l 1,0,1
EndSplineSet
EndChar

StartChar: uni0417
Encoding: 1047 1047 343
Width: 1237
GlyphClass: 2
Flags: W
LayerCount: 2
Fore
SplineSet
621 -20 m 0,0,1
 417 -20 417 -20 285 60.5 c 128,-1,2
 153 141 153 141 67 328 c 1,3,-1
 232 405 l 1,4,5
 351 133 351 133 614 133 c 0,6,7
 767 133 767 133 855 204 c 128,-1,8
 943 275 943 275 943 403 c 0,9,10
 943 536 943 536 847 595 c 128,-1,11
 751 654 751 654 549 654 c 2,12,-1
 478 654 l 1,13,-1
 478 802 l 1,14,-1
 549 802 l 2,15,16
 730 802 730 802 816.5 861.5 c 128,-1,17
 903 921 903 921 903 1044 c 0,18,19
 903 1151 903 1151 830.5 1212.5 c 128,-1,20
 758 1274 758 1274 623 1274 c 0,21,22
 497 1274 497 1274 411 1215.5 c 128,-1,23
 325 1157 325 1157 274 1027 c 1,24,-1
 96 1088 l 1,25,26
 166 1261 166 1261 298 1345 c 128,-1,27
 430 1429 430 1429 630 1429 c 0,28,29
 842 1429 842 1429 968 1329.5 c 128,-1,30
 1094 1230 1094 1230 1094 1061 c 0,31,32
 1094 934 1094 934 1022 851 c 128,-1,33
 950 768 950 768 814 736 c 1,34,35
 966 713 966 713 1051 625.5 c 128,-1,36
 1136 538 1136 538 1136 406 c 0,37,38
 1136 211 1136 211 997.5 95.5 c 128,-1,39
 859 -20 859 -20 621 -20 c 0,0,1
EndSplineSet
EndChar

StartChar: uni0418
Encoding: 1048 1048 344
Width: 1472
GlyphClass: 2
Flags: W
LayerCount: 2
Fore
SplineSet
168 0 m 1,0,-1
 168 1409 l 1,1,-1
 340 1409 l 1,2,-1
 340 485 l 2,3,4
 340 371 340 371 332 211 c 1,5,-1
 1082 1409 l 1,6,-1
 1304 1409 l 1,7,-1
 1304 0 l 1,8,-1
 1134 0 l 1,9,-1
 1134 936 l 2,10,11
 1134 1058 1134 1058 1140 1190 c 1,12,-1
 398 0 l 1,13,-1
 168 0 l 1,0,-1
EndSplineSet
EndChar

StartChar: uni041A
Encoding: 1050 1050 346
Width: 1193
GlyphClass: 2
Flags: W
LayerCount: 2
Fore
SplineSet
168 1409 m 1,0,-1
 359 1409 l 1,1,-1
 359 790 l 1,2,3
 434 790 434 790 479 810.5 c 128,-1,4
 524 831 524 831 573 886.5 c 128,-1,5
 622 942 622 942 729 1104 c 1,6,-1
 934 1409 l 1,7,-1
 1134 1409 l 1,8,-1
 851 999 l 2,9,10
 720 810 720 810 672 775 c 1,11,-1
 1181 0 l 1,12,-1
 959 0 l 1,13,-1
 532 683 l 1,14,15
 507 671 507 671 452.5 658 c 128,-1,16
 398 645 398 645 359 645 c 1,17,-1
 359 0 l 1,18,-1
 168 0 l 1,19,-1
 168 1409 l 1,0,-1
EndSplineSet
EndChar

StartChar: uni041B
Encoding: 1051 1051 347
Width: 1344
GlyphClass: 2
Flags: W
LayerCount: 2
Fore
SplineSet
991 1249 m 1,0,-1
 573 1249 l 1,1,-1
 524 881 l 1,2,3
 473 483 473 483 425.5 308 c 128,-1,4
 378 133 378 133 306 58.5 c 128,-1,5
 234 -16 234 -16 104 -16 c 0,6,7
 46 -16 46 -16 18 -6 c 1,8,-1
 18 146 l 1,9,10
 37 139 37 139 74 139 c 0,11,12
 127 139 127 139 160.5 171.5 c 128,-1,13
 194 204 194 204 223 279.5 c 128,-1,14
 252 355 252 355 281 503.5 c 128,-1,15
 310 652 310 652 339 869.5 c 128,-1,16
 368 1087 368 1087 410 1409 c 1,17,-1
 1177 1409 l 1,18,-1
 1177 0 l 1,19,-1
 991 0 l 1,20,-1
 991 1249 l 1,0,-1
EndSplineSet
EndChar

StartChar: uni041F
Encoding: 1055 1055 351
Width: 1472
GlyphClass: 2
Flags: W
LayerCount: 2
Fore
SplineSet
1119 0 m 1,0,-1
 1119 1248 l 1,1,-1
 357 1248 l 1,2,-1
 357 0 l 1,3,-1
 166 0 l 1,4,-1
 166 1409 l 1,5,-1
 1310 1409 l 1,6,-1
 1310 0 l 1,7,-1
 1119 0 l 1,0,-1
EndSplineSet
EndChar

StartChar: uni0423
Encoding: 1059 1059 355
Width: 1301
GlyphClass: 2
Flags: W
LayerCount: 2
Fore
SplineSet
332 -20 m 0,0,1
 270 -20 270 -20 202.5 -1 c 128,-1,2
 135 18 135 18 89 50 c 1,3,-1
 170 194 l 1,4,5
 264 135 264 135 336 135 c 0,6,7
 387 135 387 135 421.5 154.5 c 128,-1,8
 456 174 456 174 491 221.5 c 128,-1,9
 526 269 526 269 628 455 c 1,10,-1
 55 1409 l 1,11,-1
 273 1409 l 1,12,-1
 722 625 l 1,13,-1
 1106 1409 l 1,14,-1
 1311 1409 l 1,15,-1
 734 318 l 2,16,17
 649 158 649 158 596 97 c 128,-1,18
 543 36 543 36 480.5 8 c 128,-1,19
 418 -20 418 -20 332 -20 c 0,0,1
EndSplineSet
EndChar

StartChar: uni0424
Encoding: 1060 1060 356
Width: 1557
GlyphClass: 2
Flags: W
LayerCount: 2
Fore
SplineSet
1439 736 m 0,0,1
 1439 583 1439 583 1375.5 464.5 c 128,-1,2
 1312 346 1312 346 1193 281 c 128,-1,3
 1074 216 1074 216 914 216 c 2,4,-1
 874 216 l 1,5,-1
 874 -11 l 1,6,-1
 683 -11 l 1,7,-1
 683 216 l 1,8,-1
 643 216 l 2,9,10
 482 216 482 216 363 281.5 c 128,-1,11
 244 347 244 347 181 465.5 c 128,-1,12
 118 584 118 584 118 736 c 0,13,14
 118 974 118 974 257.5 1105.5 c 128,-1,15
 397 1237 397 1237 654 1237 c 2,16,-1
 683 1237 l 1,17,-1
 683 1419 l 1,18,-1
 874 1419 l 1,19,-1
 874 1237 l 1,20,-1
 902 1237 l 2,21,22
 1160 1237 1160 1237 1299.5 1105 c 128,-1,23
 1439 973 1439 973 1439 736 c 0,0,1
1247 732 m 0,24,25
 1247 1099 1247 1099 879 1099 c 2,26,-1
 874 1099 l 1,27,-1
 874 353 l 1,28,-1
 887 353 l 2,29,30
 1061 353 1061 353 1154 449 c 128,-1,31
 1247 545 1247 545 1247 732 c 0,24,25
310 732 m 256,32,33
 310 545 310 545 403 449 c 128,-1,34
 496 353 496 353 670 353 c 2,35,-1
 683 353 l 1,36,-1
 683 1099 l 1,37,-1
 674 1099 l 2,38,39
 492 1099 492 1099 401 1009 c 128,-1,40
 310 919 310 919 310 732 c 256,32,33
EndSplineSet
EndChar

StartChar: uni0426
Encoding: 1062 1062 358
Width: 1515
GlyphClass: 2
Flags: W
LayerCount: 2
Fore
SplineSet
1477 160 m 1,0,-1
 1477 -408 l 1,1,-1
 1297 -408 l 1,2,-1
 1297 0 l 1,3,-1
 168 0 l 1,4,-1
 168 1409 l 1,5,-1
 359 1409 l 1,6,-1
 359 160 l 1,7,-1
 1116 160 l 1,8,-1
 1116 1409 l 1,9,-1
 1302 1409 l 1,10,-1
 1302 160 l 1,11,-1
 1477 160 l 1,0,-1
EndSplineSet
EndChar

StartChar: uni0427
Encoding: 1063 1063 359
Width: 1365
GlyphClass: 2
Flags: W
LayerCount: 2
Fore
SplineSet
1008 508 m 1,0,1
 853 474 853 474 762 462 c 128,-1,2
 671 450 671 450 600 450 c 0,3,4
 378 450 378 450 269 540.5 c 128,-1,5
 160 631 160 631 160 815 c 2,6,-1
 160 1409 l 1,7,-1
 350 1409 l 1,8,-1
 350 835 l 2,9,10
 350 712 350 712 415 658 c 128,-1,11
 480 604 480 604 614 604 c 0,12,13
 763 604 763 604 1008 653 c 1,14,-1
 1008 1409 l 1,15,-1
 1198 1409 l 1,16,-1
 1198 0 l 1,17,-1
 1008 0 l 1,18,-1
 1008 508 l 1,0,1
EndSplineSet
EndChar

StartChar: uni0428
Encoding: 1064 1064 360
Width: 1877
GlyphClass: 2
Flags: W
LayerCount: 2
Fore
SplineSet
168 0 m 1,0,-1
 168 1409 l 1,1,-1
 359 1409 l 1,2,-1
 359 160 l 1,3,-1
 848 160 l 1,4,-1
 848 1409 l 1,5,-1
 1034 1409 l 1,6,-1
 1034 160 l 1,7,-1
 1523 160 l 1,8,-1
 1523 1409 l 1,9,-1
 1709 1409 l 1,10,-1
 1709 0 l 1,11,-1
 168 0 l 1,0,-1
EndSplineSet
EndChar

StartChar: uni0429
Encoding: 1065 1065 361
Width: 1920
GlyphClass: 2
Flags: W
LayerCount: 2
Fore
SplineSet
1839 160 m 1,0,-1
 1839 -408 l 1,1,-1
 1659 -408 l 1,2,-1
 1659 0 l 1,3,-1
 168 0 l 1,4,-1
 168 1409 l 1,5,-1
 359 1409 l 1,6,-1
 359 160 l 1,7,-1
 826 160 l 1,8,-1
 826 1409 l 1,9,-1
 1012 1409 l 1,10,-1
 1012 160 l 1,11,-1
 1478 160 l 1,12,-1
 1478 1409 l 1,13,-1
 1664 1409 l 1,14,-1
 1664 160 l 1,15,-1
 1839 160 l 1,0,-1
EndSplineSet
EndChar

StartChar: uni042A
Encoding: 1066 1066 362
Width: 1621
GlyphClass: 2
Flags: W
LayerCount: 2
Fore
SplineSet
696 813 m 1,0,-1
 1018 813 l 2,1,2
 1254 813 1254 813 1384.5 708 c 128,-1,3
 1515 603 1515 603 1515 413 c 0,4,5
 1515 226 1515 226 1386 113 c 128,-1,6
 1257 0 1257 0 1030 0 c 2,7,-1
 505 0 l 1,8,-1
 505 1253 l 1,9,-1
 46 1253 l 1,10,-1
 46 1409 l 1,11,-1
 696 1409 l 1,12,-1
 696 813 l 1,0,-1
1323 411 m 0,13,14
 1323 532 1323 532 1241 596.5 c 128,-1,15
 1159 661 1159 661 995 661 c 2,16,-1
 696 661 l 1,17,-1
 696 151 l 1,18,-1
 1003 151 l 2,19,20
 1167 151 1167 151 1245 219 c 128,-1,21
 1323 287 1323 287 1323 411 c 0,13,14
EndSplineSet
EndChar

StartChar: uni042B
Encoding: 1067 1067 363
Width: 1813
GlyphClass: 2
Flags: W
LayerCount: 2
Fore
SplineSet
1238 413 m 0,0,1
 1238 226 1238 226 1109 113 c 128,-1,2
 980 0 980 0 753 0 c 2,3,-1
 168 0 l 1,4,-1
 168 1409 l 1,5,-1
 359 1409 l 1,6,-1
 359 813 l 1,7,-1
 741 813 l 2,8,9
 977 813 977 813 1107.5 708 c 128,-1,10
 1238 603 1238 603 1238 413 c 0,0,1
1046 411 m 0,11,12
 1046 532 1046 532 964 596.5 c 128,-1,13
 882 661 882 661 718 661 c 2,14,-1
 359 661 l 1,15,-1
 359 151 l 1,16,-1
 726 151 l 2,17,18
 890 151 890 151 968 219 c 128,-1,19
 1046 287 1046 287 1046 411 c 0,11,12
1454 0 m 1,20,-1
 1454 1409 l 1,21,-1
 1645 1409 l 1,22,-1
 1645 0 l 1,23,-1
 1454 0 l 1,20,-1
EndSplineSet
EndChar

StartChar: uni042C
Encoding: 1068 1068 364
Width: 1344
GlyphClass: 2
Flags: W
LayerCount: 2
Fore
SplineSet
1238 413 m 0,0,1
 1238 226 1238 226 1109 113 c 128,-1,2
 980 0 980 0 753 0 c 2,3,-1
 168 0 l 1,4,-1
 168 1409 l 1,5,-1
 359 1409 l 1,6,-1
 359 813 l 1,7,-1
 741 813 l 2,8,9
 977 813 977 813 1107.5 708 c 128,-1,10
 1238 603 1238 603 1238 413 c 0,0,1
1046 407 m 0,11,12
 1046 528 1046 528 964 593.5 c 128,-1,13
 882 659 882 659 718 659 c 2,14,-1
 359 659 l 1,15,-1
 359 151 l 1,16,-1
 726 151 l 2,17,18
 1046 151 1046 151 1046 407 c 0,11,12
EndSplineSet
EndChar

StartChar: uni042D
Encoding: 1069 1069 365
Width: 1472
GlyphClass: 2
Flags: W
LayerCount: 2
Fore
SplineSet
713 1274 m 0,0,1
 561 1274 561 1274 452 1206.5 c 128,-1,2
 343 1139 343 1139 298 1021 c 1,3,-1
 117 1081 l 1,4,5
 188 1254 188 1254 339 1342 c 128,-1,6
 490 1430 490 1430 715 1430 c 0,7,8
 1037 1430 1037 1430 1219 1239 c 128,-1,9
 1401 1048 1401 1048 1401 711 c 0,10,11
 1401 488 1401 488 1320 323 c 128,-1,12
 1239 158 1239 158 1084.5 69 c 128,-1,13
 930 -20 930 -20 715 -20 c 0,14,15
 289 -20 289 -20 105 352 c 1,16,-1
 261 430 l 1,17,18
 330 290 330 290 445 213.5 c 128,-1,19
 560 137 560 137 705 137 c 0,20,21
 918 137 918 137 1051.5 272.5 c 128,-1,22
 1185 408 1185 408 1204 638 c 1,23,-1
 550 638 l 1,24,-1
 550 792 l 1,25,-1
 1204 792 l 1,26,27
 1183 1021 1183 1021 1054.5 1147.5 c 128,-1,28
 926 1274 926 1274 713 1274 c 0,0,1
EndSplineSet
EndChar

StartChar: uni042E
Encoding: 1070 1070 366
Width: 2069
GlyphClass: 2
Flags: W
LayerCount: 2
Fore
SplineSet
1971 711 m 0,0,1
 1971 490 1971 490 1891 323.5 c 128,-1,2
 1811 157 1811 157 1661 68.5 c 128,-1,3
 1511 -20 1511 -20 1311 -20 c 0,4,5
 1016 -20 1016 -20 842.5 159 c 128,-1,6
 669 338 669 338 654 653 c 1,7,-1
 359 653 l 1,8,-1
 359 0 l 1,9,-1
 168 0 l 1,10,-1
 168 1409 l 1,11,-1
 359 1409 l 1,12,-1
 359 813 l 1,13,-1
 657 813 l 1,14,15
 684 1105 684 1105 855.5 1267.5 c 128,-1,16
 1027 1430 1027 1430 1313 1430 c 0,17,18
 1623 1430 1623 1430 1797 1238.5 c 128,-1,19
 1971 1047 1971 1047 1971 711 c 0,0,1
1776 711 m 0,20,21
 1776 974 1776 974 1654.5 1124 c 128,-1,22
 1533 1274 1533 1274 1313 1274 c 0,23,24
 1090 1274 1090 1274 968.5 1126 c 128,-1,25
 847 978 847 978 847 711 c 0,26,27
 847 446 847 446 970.5 290.5 c 128,-1,28
 1094 135 1094 135 1311 135 c 0,29,30
 1534 135 1534 135 1655 284.5 c 128,-1,31
 1776 434 1776 434 1776 711 c 0,20,21
EndSplineSet
EndChar

StartChar: uni042F
Encoding: 1071 1071 367
Width: 1479
GlyphClass: 2
Flags: W
LayerCount: 2
Fore
SplineSet
96 0 m 1,0,-1
 496 607 l 1,1,2
 335 635 335 635 243.5 742 c 128,-1,3
 152 849 152 849 152 1006 c 0,4,5
 152 1196 152 1196 281 1302.5 c 128,-1,6
 410 1409 410 1409 649 1409 c 2,7,-1
 1312 1409 l 1,8,-1
 1312 0 l 1,9,-1
 1121 0 l 1,10,-1
 1121 585 l 1,11,-1
 682 585 l 1,12,-1
 316 0 l 1,13,-1
 96 0 l 1,0,-1
344 1004 m 0,14,15
 344 877 344 877 426.5 806.5 c 128,-1,16
 509 736 509 736 660 736 c 2,17,-1
 1121 736 l 1,18,-1
 1121 1256 l 1,19,-1
 668 1256 l 2,20,21
 511 1256 511 1256 427.5 1191.5 c 128,-1,22
 344 1127 344 1127 344 1004 c 0,14,15
EndSplineSet
EndChar

StartChar: uni0431
Encoding: 1073 1073 369
Width: 1173
GlyphClass: 2
Flags: W
LayerCount: 2
Fore
SplineSet
898 502 m 256,0,1
 898 704 898 704 832 799.5 c 128,-1,2
 766 895 766 895 617 895 c 0,3,4
 458 895 458 895 383.5 798 c 128,-1,5
 309 701 309 701 309 502 c 0,6,7
 309 308 309 308 378.5 210.5 c 128,-1,8
 448 113 448 113 597 113 c 0,9,10
 758 113 758 113 828 206.5 c 128,-1,11
 898 300 898 300 898 502 c 256,0,1
655 1027 m 0,12,13
 877 1027 877 1027 982 896.5 c 128,-1,14
 1087 766 1087 766 1087 504 c 0,15,16
 1087 239 1087 239 962 109.5 c 128,-1,17
 837 -20 837 -20 599 -20 c 0,18,19
 353 -20 353 -20 236.5 141 c 128,-1,20
 120 302 120 302 120 636 c 0,21,22
 120 806 120 806 143 934.5 c 128,-1,23
 166 1063 166 1063 215 1156 c 128,-1,24
 264 1249 264 1249 341.5 1311 c 128,-1,25
 419 1373 419 1373 536.5 1411 c 128,-1,26
 654 1449 654 1449 1036 1502 c 1,27,-1
 1036 1341 l 1,28,29
 617 1287 617 1287 493.5 1238 c 128,-1,30
 370 1189 370 1189 320 1082 c 128,-1,31
 270 975 270 975 266 762 c 1,32,33
 309 887 309 887 410 957 c 128,-1,34
 511 1027 511 1027 655 1027 c 0,12,13
EndSplineSet
Substitution2: "'locl' Localized Forms lookup 5-1" S_BE
EndChar

StartChar: uni0432
Encoding: 1074 1074 370
Width: 1088
GlyphClass: 2
Flags: W
LayerCount: 2
Fore
SplineSet
564 1082 m 2,0,1
 764 1082 764 1082 864 1012 c 128,-1,2
 964 942 964 942 964 811 c 0,3,4
 964 718 964 718 907 656 c 128,-1,5
 850 594 850 594 741 573 c 1,6,-1
 741 566 l 1,7,8
 870 549 870 549 934.5 484 c 128,-1,9
 999 419 999 419 999 312 c 0,10,11
 999 165 999 165 889.5 82.5 c 128,-1,12
 780 0 780 0 587 0 c 2,13,-1
 142 0 l 1,14,-1
 142 1082 l 1,15,-1
 564 1082 l 2,0,1
322 133 m 1,16,-1
 558 133 l 2,17,18
 696 133 696 133 752 175.5 c 128,-1,19
 808 218 808 218 808 311 c 0,20,21
 808 412 808 412 748.5 453.5 c 128,-1,22
 689 495 689 495 546 495 c 2,23,-1
 322 495 l 1,24,-1
 322 133 l 1,16,-1
322 945 m 1,25,-1
 322 625 l 1,26,-1
 538 625 l 2,27,28
 666 625 666 625 720.5 661 c 128,-1,29
 775 697 775 697 775 787 c 0,30,31
 775 869 775 869 724 907 c 128,-1,32
 673 945 673 945 552 945 c 2,33,-1
 322 945 l 1,25,-1
EndSplineSet
EndChar

StartChar: uni0433
Encoding: 1075 1075 371
Width: 747
GlyphClass: 2
Flags: W
LayerCount: 2
Fore
SplineSet
687 1082 m 1,0,-1
 687 951 l 1,1,-1
 322 951 l 1,2,-1
 322 0 l 1,3,-1
 142 0 l 1,4,-1
 142 1082 l 1,5,-1
 687 1082 l 1,0,-1
EndSplineSet
EndChar

StartChar: uni0434
Encoding: 1076 1076 372
Width: 1195
GlyphClass: 2
Flags: W
LayerCount: 2
Fore
SplineSet
834 951 m 1,0,-1
 528 951 l 1,1,2
 491 679 491 679 446 477.5 c 128,-1,3
 401 276 401 276 337 131 c 1,4,-1
 834 131 l 1,5,-1
 834 951 l 1,0,-1
1160 -408 m 1,6,-1
 997 -408 l 1,7,-1
 997 0 l 1,8,-1
 183 0 l 1,9,-1
 183 -408 l 1,10,-1
 20 -408 l 1,11,-1
 20 131 l 1,12,-1
 139 131 l 1,13,14
 214 256 214 256 269 486 c 128,-1,15
 324 716 324 716 370 1082 c 1,16,-1
 1014 1082 l 1,17,-1
 1014 131 l 1,18,-1
 1160 131 l 1,19,-1
 1160 -408 l 1,6,-1
EndSplineSet
EndChar

StartChar: uni0436
Encoding: 1078 1078 374
Width: 1370
GlyphClass: 2
Flags: W
LayerCount: 2
Fore
SplineSet
595 477 m 1,0,1
 569 477 569 477 536.5 483 c 128,-1,2
 504 489 504 489 485 497 c 1,3,-1
 207 0 l 1,4,-1
 7 0 l 1,5,-1
 360 592 l 1,6,7
 325 621 325 621 232 757 c 1,8,-1
 16 1082 l 1,9,-1
 204 1082 l 1,10,-1
 352 843 l 2,11,12
 418 737 418 737 454 690.5 c 128,-1,13
 490 644 490 644 519.5 626 c 128,-1,14
 549 608 549 608 595 608 c 1,15,-1
 595 1082 l 1,16,-1
 775 1082 l 1,17,-1
 775 608 l 1,18,19
 805 608 805 608 829 616 c 128,-1,20
 853 624 853 624 879 649.5 c 128,-1,21
 905 675 905 675 938 721 c 128,-1,22
 971 767 971 767 1166 1082 c 1,23,-1
 1354 1082 l 1,24,-1
 1138 757 l 1,25,26
 1045 621 1045 621 1010 592 c 1,27,-1
 1363 0 l 1,28,-1
 1163 0 l 1,29,-1
 885 497 l 1,30,31
 866 489 866 489 833.5 483 c 128,-1,32
 801 477 801 477 775 477 c 1,33,-1
 775 0 l 1,34,-1
 595 0 l 1,35,-1
 595 477 l 1,0,1
EndSplineSet
EndChar

StartChar: uni0437
Encoding: 1079 1079 375
Width: 939
GlyphClass: 2
Flags: W
LayerCount: 2
Fore
SplineSet
458 -20 m 0,0,1
 291 -20 291 -20 192.5 42.5 c 128,-1,2
 94 105 94 105 49 234 c 1,3,-1
 208 278 l 1,4,5
 261 114 261 114 462 114 c 0,6,7
 558 114 558 114 614.5 161 c 128,-1,8
 671 208 671 208 671 299 c 0,9,10
 671 499 671 499 340 499 c 1,11,-1
 340 636 l 1,12,13
 501 636 501 636 577 678 c 128,-1,14
 653 720 653 720 653 808 c 0,15,16
 653 882 653 882 603.5 925 c 128,-1,17
 554 968 554 968 461 968 c 0,18,19
 372 968 372 968 315.5 931 c 128,-1,20
 259 894 259 894 247 824 c 1,21,-1
 85 844 l 1,22,23
 131 1102 131 1102 462 1102 c 0,24,25
 630 1102 630 1102 733 1022.5 c 128,-1,26
 836 943 836 943 836 817 c 0,27,28
 836 716 836 716 763.5 648 c 128,-1,29
 691 580 691 580 588 571 c 1,30,-1
 588 569 l 1,31,32
 709 556 709 556 785.5 484.5 c 128,-1,33
 862 413 862 413 862 304 c 0,34,35
 862 152 862 152 754.5 66 c 128,-1,36
 647 -20 647 -20 458 -20 c 0,0,1
EndSplineSet
EndChar

StartChar: uni0438
Encoding: 1080 1080 376
Width: 1144
GlyphClass: 2
Flags: W
LayerCount: 2
Fore
SplineSet
316 1082 m 1,0,-1
 316 490 l 1,1,-1
 306 213 l 1,2,-1
 805 1082 l 1,3,-1
 1002 1082 l 1,4,-1
 1002 0 l 1,5,-1
 830 0 l 1,6,-1
 830 660 l 2,7,8
 830 696 830 696 833.5 769 c 128,-1,9
 837 842 837 842 840 873 c 1,10,-1
 334 0 l 1,11,-1
 142 0 l 1,12,-1
 142 1082 l 1,13,-1
 316 1082 l 1,0,-1
EndSplineSet
EndChar

StartChar: uni043A
Encoding: 1082 1082 378
Width: 896
GlyphClass: 2
Flags: W
LayerCount: 2
Fore
SplineSet
138 1082 m 1,0,-1
 318 1082 l 1,1,-1
 318 608 l 1,2,3
 348 608 348 608 372 616 c 128,-1,4
 396 624 396 624 422 649.5 c 128,-1,5
 448 675 448 675 481 721 c 128,-1,6
 514 767 514 767 709 1082 c 1,7,-1
 897 1082 l 1,8,-1
 681 757 l 1,9,10
 588 621 588 621 553 592 c 1,11,-1
 906 0 l 1,12,-1
 706 0 l 1,13,-1
 428 497 l 1,14,15
 409 489 409 489 376.5 483 c 128,-1,16
 344 477 344 477 318 477 c 1,17,-1
 318 0 l 1,18,-1
 138 0 l 1,19,-1
 138 1082 l 1,0,-1
EndSplineSet
EndChar

StartChar: uni043B
Encoding: 1083 1083 379
Width: 1195
GlyphClass: 2
Flags: W
LayerCount: 2
Fore
SplineSet
872 0 m 1,0,-1
 872 951 l 1,1,-1
 497 951 l 1,2,3
 438 515 438 515 406 362.5 c 128,-1,4
 374 210 374 210 337 132 c 128,-1,5
 300 54 300 54 245.5 17 c 128,-1,6
 191 -20 191 -20 105 -20 c 0,7,8
 55 -20 55 -20 11 -7 c 1,9,-1
 11 122 l 1,10,11
 36 113 36 113 79 113 c 0,12,13
 134 113 134 113 167.5 168 c 128,-1,14
 201 223 201 223 228.5 358 c 128,-1,15
 256 493 256 493 291 757 c 2,16,-1
 335 1082 l 1,17,-1
 1053 1082 l 1,18,-1
 1053 0 l 1,19,-1
 872 0 l 1,0,-1
EndSplineSet
EndChar

StartChar: uni043C
Encoding: 1084 1084 380
Width: 1408
GlyphClass: 2
Flags: W
LayerCount: 2
Fore
SplineSet
787 0 m 1,0,-1
 634 0 l 1,1,-1
 310 951 l 1,2,3
 316 795 316 795 316 724 c 2,4,-1
 316 0 l 1,5,-1
 142 0 l 1,6,-1
 142 1082 l 1,7,-1
 422 1082 l 1,8,-1
 642 421 l 1,9,10
 694 278 694 278 710 135 c 1,11,12
 732 296 732 296 778 421 c 1,13,-1
 998 1082 l 1,14,-1
 1267 1082 l 1,15,-1
 1267 0 l 1,16,-1
 1094 0 l 1,17,-1
 1094 724 l 1,18,-1
 1097 838 l 1,19,-1
 1102 953 l 1,20,-1
 787 0 l 1,0,-1
EndSplineSet
EndChar

StartChar: uni043D
Encoding: 1085 1085 381
Width: 1131
GlyphClass: 2
Flags: W
LayerCount: 2
Fore
SplineSet
322 1082 m 1,0,-1
 322 624 l 1,1,-1
 809 624 l 1,2,-1
 809 1082 l 1,3,-1
 989 1082 l 1,4,-1
 989 0 l 1,5,-1
 809 0 l 1,6,-1
 809 493 l 1,7,-1
 322 493 l 1,8,-1
 322 0 l 1,9,-1
 142 0 l 1,10,-1
 142 1082 l 1,11,-1
 322 1082 l 1,0,-1
EndSplineSet
EndChar

StartChar: uni043F
Encoding: 1087 1087 383
Width: 1109
GlyphClass: 2
Flags: W
LayerCount: 2
Fore
SplineSet
967 1082 m 1,0,-1
 967 0 l 1,1,-1
 787 0 l 1,2,-1
 787 951 l 1,3,-1
 322 951 l 1,4,-1
 322 0 l 1,5,-1
 142 0 l 1,6,-1
 142 1082 l 1,7,-1
 967 1082 l 1,0,-1
EndSplineSet
EndChar

StartChar: uni0442
Encoding: 1090 1090 386
Width: 938
GlyphClass: 2
Flags: W
LayerCount: 2
Fore
SplineSet
35 1082 m 1,0,-1
 903 1082 l 1,1,-1
 903 951 l 1,2,-1
 559 951 l 1,3,-1
 559 0 l 1,4,-1
 379 0 l 1,5,-1
 379 951 l 1,6,-1
 35 951 l 1,7,-1
 35 1082 l 1,0,-1
EndSplineSet
EndChar

StartChar: uni0444
Encoding: 1092 1092 388
Width: 1685
GlyphClass: 2
Flags: W
LayerCount: 2
Fore
SplineSet
1598 546 m 0,0,1
 1598 262 1598 262 1505.5 121 c 128,-1,2
 1413 -20 1413 -20 1233 -20 c 0,3,4
 1007 -20 1007 -20 928 168 c 1,5,-1
 922 168 l 1,6,7
 927 81 927 81 927 -2 c 2,8,-1
 927 -425 l 1,9,-1
 757 -425 l 1,10,-1
 757 -2 l 2,11,12
 757 107 757 107 762 174 c 1,13,-1
 757 174 l 1,14,15
 711 70 711 70 636.5 25 c 128,-1,16
 562 -20 562 -20 451 -20 c 0,17,18
 265 -20 265 -20 175.5 117.5 c 128,-1,19
 86 255 86 255 86 536 c 0,20,21
 86 1102 86 1102 451 1102 c 0,22,23
 563 1102 563 1102 637.5 1057 c 128,-1,24
 712 1012 712 1012 757 914 c 1,25,-1
 762 914 l 1,26,-1
 757 1065 l 1,27,-1
 757 1484 l 1,28,-1
 927 1484 l 1,29,-1
 927 1064 l 1,30,-1
 924 908 l 1,31,-1
 929 908 l 1,32,33
 975 1012 975 1012 1047 1056.5 c 128,-1,34
 1119 1101 1119 1101 1233 1101 c 0,35,36
 1416 1101 1416 1101 1507 964.5 c 128,-1,37
 1598 828 1598 828 1598 546 c 0,0,1
275 542 m 0,38,39
 275 317 275 317 329.5 218 c 128,-1,40
 384 119 384 119 502 119 c 0,41,42
 632 119 632 119 693 217.5 c 128,-1,43
 754 316 754 316 757 530 c 1,44,-1
 757 554 l 2,45,46
 757 765 757 765 697.5 867 c 128,-1,47
 638 969 638 969 504 969 c 0,48,49
 383 969 383 969 329 866 c 128,-1,50
 275 763 275 763 275 542 c 0,38,39
1409 542 m 0,51,52
 1409 760 1409 760 1355.5 861 c 128,-1,53
 1302 962 1302 962 1182 962 c 0,54,55
 1088 962 1088 962 1035 916 c 128,-1,56
 982 870 982 870 954.5 775.5 c 128,-1,57
 927 681 927 681 927 528 c 2,58,-1
 927 505 l 1,59,60
 929 304 929 304 990 208.5 c 128,-1,61
 1051 113 1051 113 1180 113 c 0,62,63
 1299 113 1299 113 1354 215.5 c 128,-1,64
 1409 318 1409 318 1409 542 c 0,51,52
EndSplineSet
EndChar

StartChar: uni0446
Encoding: 1094 1094 390
Width: 1173
GlyphClass: 2
Flags: W
LayerCount: 2
Fore
SplineSet
322 1082 m 1,0,-1
 322 131 l 1,1,-1
 799 131 l 1,2,-1
 799 1082 l 1,3,-1
 979 1082 l 1,4,-1
 979 131 l 1,5,-1
 1126 131 l 1,6,-1
 1126 -408 l 1,7,-1
 963 -408 l 1,8,-1
 963 0 l 1,9,-1
 142 0 l 1,10,-1
 142 1082 l 1,11,-1
 322 1082 l 1,0,-1
EndSplineSet
EndChar

StartChar: uni0447
Encoding: 1095 1095 391
Width: 1067
GlyphClass: 2
Flags: W
LayerCount: 2
Fore
SplineSet
302 1082 m 1,0,-1
 302 680 l 2,1,2
 302 518 302 518 468 518 c 0,3,4
 578 518 578 518 744 565 c 1,5,-1
 744 1082 l 1,6,-1
 924 1082 l 1,7,-1
 924 0 l 1,8,-1
 744 0 l 1,9,-1
 744 461 l 1,10,-1
 666 431 l 2,11,12
 520 375 520 375 394 375 c 0,13,14
 265 375 265 375 193.5 452.5 c 128,-1,15
 122 530 122 530 122 671 c 2,16,-1
 122 1082 l 1,17,-1
 302 1082 l 1,0,-1
EndSplineSet
EndChar

StartChar: uni0448
Encoding: 1096 1096 392
Width: 1643
GlyphClass: 2
Flags: W
LayerCount: 2
Fore
SplineSet
142 0 m 1,0,-1
 142 1082 l 1,1,-1
 322 1082 l 1,2,-1
 322 131 l 1,3,-1
 732 131 l 1,4,-1
 732 1082 l 1,5,-1
 912 1082 l 1,6,-1
 912 131 l 1,7,-1
 1321 131 l 1,8,-1
 1321 1082 l 1,9,-1
 1501 1082 l 1,10,-1
 1501 0 l 1,11,-1
 142 0 l 1,0,-1
EndSplineSet
EndChar

StartChar: uni0449
Encoding: 1097 1097 393
Width: 1685
GlyphClass: 2
Flags: W
LayerCount: 2
Fore
SplineSet
142 0 m 1,0,-1
 142 1082 l 1,1,-1
 322 1082 l 1,2,-1
 322 131 l 1,3,-1
 727 131 l 1,4,-1
 727 1082 l 1,5,-1
 907 1082 l 1,6,-1
 907 131 l 1,7,-1
 1311 131 l 1,8,-1
 1311 1082 l 1,9,-1
 1491 1082 l 1,10,-1
 1491 131 l 1,11,-1
 1638 131 l 1,12,-1
 1638 -408 l 1,13,-1
 1475 -408 l 1,14,-1
 1475 0 l 1,15,-1
 142 0 l 1,0,-1
EndSplineSet
EndChar

StartChar: uni044A
Encoding: 1098 1098 394
Width: 1280
GlyphClass: 2
Flags: W
LayerCount: 2
Fore
SplineSet
781 624 m 2,0,1
 986 624 986 624 1091 550.5 c 128,-1,2
 1196 477 1196 477 1196 318 c 0,3,4
 1196 164 1196 164 1088 82 c 128,-1,5
 980 0 980 0 782 0 c 2,6,-1
 373 0 l 1,7,-1
 373 951 l 1,8,-1
 45 951 l 1,9,-1
 45 1082 l 1,10,-1
 553 1082 l 1,11,-1
 553 624 l 1,12,-1
 781 624 l 2,0,1
553 127 m 1,13,-1
 755 127 l 2,14,15
 885 127 885 127 945 173 c 128,-1,16
 1005 219 1005 219 1005 318 c 0,17,18
 1005 412 1005 412 947 455.5 c 128,-1,19
 889 499 889 499 756 499 c 2,20,-1
 553 499 l 1,21,-1
 553 127 l 1,13,-1
EndSplineSet
EndChar

StartChar: uni044B
Encoding: 1099 1099 395
Width: 1472
GlyphClass: 2
Flags: W
LayerCount: 2
Fore
SplineSet
550 624 m 2,0,1
 755 624 755 624 860 550.5 c 128,-1,2
 965 477 965 477 965 318 c 0,3,4
 965 164 965 164 857 82 c 128,-1,5
 749 0 749 0 551 0 c 2,6,-1
 142 0 l 1,7,-1
 142 1082 l 1,8,-1
 322 1082 l 1,9,-1
 322 624 l 1,10,-1
 550 624 l 2,0,1
322 127 m 1,11,-1
 524 127 l 2,12,13
 654 127 654 127 714 173 c 128,-1,14
 774 219 774 219 774 318 c 0,15,16
 774 412 774 412 716 455.5 c 128,-1,17
 658 499 658 499 525 499 c 2,18,-1
 322 499 l 1,19,-1
 322 127 l 1,11,-1
1150 0 m 1,20,-1
 1150 1082 l 1,21,-1
 1330 1082 l 1,22,-1
 1330 0 l 1,23,-1
 1150 0 l 1,20,-1
EndSplineSet
EndChar

StartChar: uni044C
Encoding: 1100 1100 396
Width: 1067
GlyphClass: 2
Flags: W
LayerCount: 2
Fore
SplineSet
568 624 m 2,0,1
 773 624 773 624 878 550.5 c 128,-1,2
 983 477 983 477 983 318 c 0,3,4
 983 164 983 164 875 82 c 128,-1,5
 767 0 767 0 569 0 c 2,6,-1
 142 0 l 1,7,-1
 142 1082 l 1,8,-1
 322 1082 l 1,9,-1
 322 624 l 1,10,-1
 568 624 l 2,0,1
322 127 m 1,11,-1
 542 127 l 2,12,13
 672 127 672 127 732 173 c 128,-1,14
 792 219 792 219 792 318 c 0,15,16
 792 412 792 412 734 455.5 c 128,-1,17
 676 499 676 499 543 499 c 2,18,-1
 322 499 l 1,19,-1
 322 127 l 1,11,-1
EndSplineSet
EndChar

StartChar: uni044D
Encoding: 1101 1101 397
Width: 1045
GlyphClass: 2
Flags: W
LayerCount: 2
Fore
SplineSet
55 315 m 1,0,-1
 237 327 l 1,1,2
 253 219 253 219 319.5 167 c 128,-1,3
 386 115 386 115 486 115 c 0,4,5
 615 115 615 115 686 203.5 c 128,-1,6
 757 292 757 292 769 482 c 1,7,-1
 356 482 l 1,8,-1
 356 613 l 1,9,-1
 769 613 l 1,10,11
 761 802 761 802 693.5 885 c 128,-1,12
 626 968 626 968 488 968 c 0,13,14
 278 968 278 968 246 772 c 1,15,-1
 61 786 l 1,16,17
 89 935 89 935 200.5 1018.5 c 128,-1,18
 312 1102 312 1102 483 1102 c 0,19,20
 713 1102 713 1102 835.5 958 c 128,-1,21
 958 814 958 814 958 542 c 0,22,23
 958 266 958 266 835.5 123 c 128,-1,24
 713 -20 713 -20 481 -20 c 0,25,26
 304 -20 304 -20 190 70 c 128,-1,27
 76 160 76 160 55 315 c 1,0,-1
EndSplineSet
EndChar

StartChar: uni044E
Encoding: 1102 1102 398
Width: 1536
GlyphClass: 2
Flags: W
LayerCount: 2
Fore
SplineSet
1450 542 m 0,0,1
 1450 258 1450 258 1332.5 119 c 128,-1,2
 1215 -20 1215 -20 992 -20 c 0,3,4
 780 -20 780 -20 666.5 111.5 c 128,-1,5
 553 243 553 243 544 493 c 1,6,-1
 322 493 l 1,7,-1
 322 0 l 1,8,-1
 142 0 l 1,9,-1
 142 1082 l 1,10,-1
 322 1082 l 1,11,-1
 322 624 l 1,12,-1
 545 624 l 1,13,14
 578 1102 578 1102 998 1102 c 0,15,16
 1235 1102 1235 1102 1342.5 962 c 128,-1,17
 1450 822 1450 822 1450 542 c 0,0,1
1261 542 m 0,18,19
 1261 766 1261 766 1201 867.5 c 128,-1,20
 1141 969 1141 969 1001 969 c 0,21,22
 859 969 859 969 795.5 865.5 c 128,-1,23
 732 762 732 762 732 542 c 0,24,25
 732 324 732 324 795 218.5 c 128,-1,26
 858 113 858 113 991 113 c 0,27,28
 1137 113 1137 113 1199 217.5 c 128,-1,29
 1261 322 1261 322 1261 542 c 0,18,19
EndSplineSet
EndChar

StartChar: uni044F
Encoding: 1103 1103 399
Width: 1109
GlyphClass: 2
Flags: W
LayerCount: 2
Fore
SplineSet
535 458 m 1,0,-1
 220 0 l 1,1,-1
 17 0 l 1,2,-1
 361 471 l 1,3,4
 112 522 112 522 112 783 c 0,5,6
 112 932 112 932 220 1007 c 128,-1,7
 328 1082 328 1082 535 1082 c 2,8,-1
 967 1082 l 1,9,-1
 967 0 l 1,10,-1
 787 0 l 1,11,-1
 787 458 l 1,12,-1
 535 458 l 1,0,-1
787 955 m 1,13,-1
 553 955 l 2,14,15
 423 955 423 955 363 909 c 128,-1,16
 303 863 303 863 303 770 c 0,17,18
 303 676 303 676 356.5 629.5 c 128,-1,19
 410 583 410 583 534 583 c 2,20,-1
 787 583 l 1,21,-1
 787 955 l 1,13,-1
EndSplineSet
EndChar

StartChar: uni0454
Encoding: 1108 1108 402
Width: 1045
GlyphClass: 2
Flags: W
LayerCount: 2
Fore
SplineSet
564 -20 m 0,0,1
 332 -20 332 -20 209.5 123.5 c 128,-1,2
 87 267 87 267 87 542 c 0,3,4
 87 813 87 813 209 957.5 c 128,-1,5
 331 1102 331 1102 562 1102 c 0,6,7
 733 1102 733 1102 844 1018.5 c 128,-1,8
 955 935 955 935 984 786 c 1,9,-1
 799 772 l 1,10,11
 767 968 767 968 557 968 c 0,12,13
 418 968 418 968 351 884.5 c 128,-1,14
 284 801 284 801 276 613 c 1,15,-1
 688 613 l 1,16,-1
 688 482 l 1,17,-1
 275 482 l 1,18,19
 293 115 293 115 559 115 c 0,20,21
 659 115 659 115 725.5 166.5 c 128,-1,22
 792 218 792 218 808 327 c 1,23,-1
 990 315 l 1,24,25
 969 161 969 161 855 70.5 c 128,-1,26
 741 -20 741 -20 564 -20 c 0,0,1
EndSplineSet
EndChar

StartChar: uni0490
Encoding: 1168 1168 409
Width: 1001
GlyphClass: 2
Flags: W
LayerCount: 2
Fore
SplineSet
774 1409 m 1,0,-1
 774 1820 l 1,1,-1
 954 1820 l 1,2,-1
 954 1253 l 1,3,-1
 359 1253 l 1,4,-1
 359 1 l 1,5,-1
 168 1 l 1,6,-1
 168 1409 l 1,7,-1
 774 1409 l 1,0,-1
EndSplineSet
EndChar

StartChar: uni0491
Encoding: 1169 1169 410
Width: 842
GlyphClass: 2
Flags: W
LayerCount: 2
Fore
SplineSet
322 0 m 1,0,-1
 142 0 l 1,1,-1
 142 1082 l 1,2,-1
 615 1082 l 1,3,-1
 615 1484 l 1,4,-1
 778 1484 l 1,5,-1
 778 951 l 1,6,-1
 322 951 l 1,7,-1
 322 0 l 1,0,-1
EndSplineSet
EndChar

StartChar: uni2116
Encoding: 8470 8470 411
Width: 2197
GlyphClass: 2
Flags: W
LayerCount: 2
Fore
SplineSet
1062 0 m 1,0,-1
 342 1190 l 1,1,-1
 348 936 l 1,2,-1
 348 0 l 1,3,-1
 188 0 l 1,4,-1
 188 1409 l 1,5,-1
 390 1409 l 1,6,-1
 1118 211 l 1,7,8
 1110 371 1110 371 1110 485 c 2,9,-1
 1110 1409 l 1,10,-1
 1272 1409 l 1,11,-1
 1272 0 l 1,12,-1
 1062 0 l 1,0,-1
2094 690 m 0,13,14
 2094 502 2094 502 2006 400.5 c 128,-1,15
 1918 299 1918 299 1743 299 c 0,16,17
 1575 299 1575 299 1486.5 399.5 c 128,-1,18
 1398 500 1398 500 1398 690 c 0,19,20
 1398 879 1398 879 1487 979.5 c 128,-1,21
 1576 1080 1576 1080 1747 1080 c 0,22,23
 2094 1080 2094 1080 2094 690 c 0,13,14
1935 690 m 0,24,25
 1935 837 1935 837 1893 902.5 c 128,-1,26
 1851 968 1851 968 1750 968 c 0,27,28
 1648 968 1648 968 1604 901.5 c 128,-1,29
 1560 835 1560 835 1560 690 c 256,30,31
 1560 545 1560 545 1603.5 478 c 128,-1,32
 1647 411 1647 411 1742 411 c 0,33,34
 1845 411 1845 411 1890 474.5 c 128,-1,35
 1935 538 1935 538 1935 690 c 0,24,25
1439 0 m 1,36,-1
 1439 146 l 1,37,-1
 2074 146 l 1,38,-1
 2074 0 l 1,39,-1
 1439 0 l 1,36,-1
EndSplineSet
EndChar

StartChar: currency
Encoding: 164 164 412
Width: 1139
GlyphClass: 2
Flags: W
LayerCount: 2
Fore
SplineSet
137 684 m 256,0,1
 137 822 137 822 215 936 c 1,2,-1
 115 1036 l 1,3,-1
 219 1139 l 1,4,-1
 318 1038 l 1,5,6
 432 1120 432 1120 572 1120 c 0,7,8
 709 1120 709 1120 823 1040 c 1,9,-1
 920 1137 l 1,10,-1
 1024 1032 l 1,11,-1
 928 936 l 1,12,13
 1008 819 1008 819 1008 684 c 0,14,15
 1008 546 1008 546 926 432 c 1,16,-1
 1026 332 l 1,17,-1
 924 227 l 1,18,-1
 823 328 l 1,19,20
 709 250 709 250 572 250 c 0,21,22
 429 250 429 250 320 330 c 1,23,-1
 215 225 l 1,24,-1
 113 330 l 1,25,-1
 215 432 l 1,26,27
 137 546 137 546 137 684 c 256,0,1
291 686 m 0,28,29
 291 569 291 569 374 487.5 c 128,-1,30
 457 406 457 406 572 406 c 0,31,32
 686 406 686 406 769 487 c 128,-1,33
 852 568 852 568 852 686 c 0,34,35
 852 803 852 803 768.5 885 c 128,-1,36
 685 967 685 967 572 967 c 256,37,38
 459 967 459 967 375 885.5 c 128,-1,39
 291 804 291 804 291 686 c 0,28,29
EndSplineSet
EndChar

StartChar: commaaccent
Encoding: 65539 -1 413
Width: 682
GlyphClass: 2
Flags: W
LayerCount: 2
Fore
SplineSet
328 -193 m 2,0,1
 328 -280 328 -280 306 -333.5 c 128,-1,2
 284 -387 284 -387 244 -434 c 1,3,-1
 127 -434 l 1,4,5
 172 -386 172 -386 196.5 -343 c 128,-1,6
 221 -300 221 -300 221 -254 c 1,7,-1
 133 -254 l 1,8,-1
 133 -98 l 1,9,-1
 328 -98 l 1,10,-1
 328 -193 l 2,0,1
EndSplineSet
EndChar

StartChar: breve.cyr
Encoding: 65540 -1 414
Width: 682
GlyphClass: 2
Flags: W
LayerCount: 2
Fore
SplineSet
340 1200 m 256,0,1
 -16 1200 -16 1200 -27 1520 c 1,2,-1
 137 1520 l 1,3,4
 149 1321 149 1321 340 1321 c 256,5,6
 531 1321 531 1321 543 1520 c 1,7,-1
 707 1520 l 1,8,9
 696 1200 696 1200 340 1200 c 256,0,1
EndSplineSet
EndChar

StartChar: caroncommaaccent
Encoding: 65541 -1 415
Width: 455
GlyphClass: 2
Flags: W
LayerCount: 2
Fore
SplineSet
325 1303 m 2,0,1
 325 1216 325 1216 303 1157.5 c 128,-1,2
 281 1099 281 1099 241 1052 c 1,3,-1
 124 1052 l 1,4,5
 218 1152 218 1152 218 1242 c 1,6,-1
 130 1242 l 1,7,-1
 130 1409 l 1,8,-1
 325 1409 l 1,9,-1
 325 1303 l 2,0,1
EndSplineSet
EndChar

StartChar: commaaccentrotate
Encoding: 65542 -1 416
Width: 455
GlyphClass: 2
Flags: W
LayerCount: 2
Fore
SplineSet
130 1317 m 2,0,1
 130 1404 130 1404 152 1462.5 c 128,-1,2
 174 1521 174 1521 214 1568 c 1,3,-1
 331 1568 l 1,4,5
 237 1468 237 1468 237 1378 c 1,6,-1
 325 1378 l 1,7,-1
 325 1211 l 1,8,-1
 130 1211 l 1,9,-1
 130 1317 l 2,0,1
EndSplineSet
EndChar

StartChar: grave.uc
Encoding: 65543 -1 417
Width: 602
GlyphClass: 2
Flags: W
LayerCount: 2
Fore
SplineSet
416 1530 m 1,0,-1
 106 1747 l 1,1,-1
 106 1776 l 1,2,-1
 313 1776 l 1,3,-1
 530 1550 l 1,4,-1
 530 1530 l 1,5,-1
 416 1530 l 1,0,-1
EndSplineSet
EndChar

StartChar: acute.uc
Encoding: 65544 -1 418
Width: 602
GlyphClass: 2
Flags: W
LayerCount: 2
Fore
SplineSet
72 1530 m 1,0,-1
 72 1550 l 1,1,-1
 289 1776 l 1,2,-1
 496 1776 l 1,3,-1
 496 1747 l 1,4,-1
 186 1530 l 1,5,-1
 72 1530 l 1,0,-1
EndSplineSet
EndChar

StartChar: circumflex.uc
Encoding: 65545 -1 419
Width: 664
GlyphClass: 2
Flags: W
LayerCount: 2
Fore
SplineSet
662 1550 m 1,0,-1
 662 1530 l 1,1,-1
 557 1530 l 1,2,-1
 338 1669 l 1,3,-1
 336 1669 l 1,4,-1
 104 1530 l 1,5,-1
 0 1530 l 1,6,-1
 0 1550 l 1,7,-1
 234 1790 l 1,8,-1
 438 1790 l 1,9,-1
 662 1550 l 1,0,-1
EndSplineSet
EndChar

StartChar: caron.uc
Encoding: 65546 -1 420
Width: 664
GlyphClass: 2
Flags: W
LayerCount: 2
Fore
SplineSet
438 1530 m 1,0,-1
 234 1530 l 1,1,-1
 0 1769 l 1,2,-1
 0 1790 l 1,3,-1
 104 1790 l 1,4,-1
 336 1651 l 1,5,-1
 338 1651 l 1,6,-1
 557 1790 l 1,7,-1
 662 1790 l 1,8,-1
 662 1769 l 1,9,-1
 438 1530 l 1,0,-1
EndSplineSet
EndChar

StartChar: dieresis.uc
Encoding: 65547 -1 421
Width: 647
GlyphClass: 2
Flags: W
LayerCount: 2
Fore
SplineSet
439 1530 m 1,0,-1
 439 1714 l 1,1,-1
 602 1714 l 1,2,-1
 602 1530 l 1,3,-1
 439 1530 l 1,0,-1
45 1530 m 1,4,-1
 45 1714 l 1,5,-1
 210 1714 l 1,6,-1
 210 1530 l 1,7,-1
 45 1530 l 1,4,-1
EndSplineSet
EndChar

StartChar: tilde.uc
Encoding: 65548 -1 422
Width: 672
GlyphClass: 2
Flags: W
LayerCount: 2
Fore
SplineSet
492 1530 m 0,0,1
 450 1530 450 1530 408 1548.5 c 128,-1,2
 366 1567 366 1567 327 1589.5 c 128,-1,3
 288 1612 288 1612 252.5 1630.5 c 128,-1,4
 217 1649 217 1649 186 1649 c 0,5,6
 131 1649 131 1649 104 1618 c 128,-1,7
 77 1587 77 1587 68 1530 c 1,8,-1
 -23 1530 l 1,9,10
 -12 1632 -12 1632 12 1684.5 c 128,-1,11
 36 1737 36 1737 76.5 1767.5 c 128,-1,12
 117 1798 117 1798 180 1798 c 0,13,14
 224 1798 224 1798 266 1779.5 c 128,-1,15
 308 1761 308 1761 347 1738.5 c 128,-1,16
 386 1716 386 1716 420.5 1697.5 c 128,-1,17
 455 1679 455 1679 485 1679 c 0,18,19
 585 1679 585 1679 602 1798 c 1,20,-1
 694 1798 l 1,21,22
 677 1650 677 1650 627 1590 c 128,-1,23
 577 1530 577 1530 492 1530 c 0,0,1
EndSplineSet
EndChar

StartChar: hungarumlaut.uc
Encoding: 65549 -1 423
Width: 815
GlyphClass: 2
Flags: W
LayerCount: 2
Fore
SplineSet
32 1530 m 1,0,-1
 32 1550 l 1,1,-1
 229 1777 l 1,2,-1
 436 1777 l 1,3,-1
 436 1748 l 1,4,-1
 126 1530 l 1,5,-1
 32 1530 l 1,0,-1
379 1530 m 1,6,-1
 379 1550 l 1,7,-1
 576 1777 l 1,8,-1
 783 1777 l 1,9,-1
 783 1748 l 1,10,-1
 473 1530 l 1,11,-1
 379 1530 l 1,6,-1
EndSplineSet
EndChar

StartChar: breve.uc
Encoding: 65550 -1 424
Width: 584
GlyphClass: 2
Flags: W
LayerCount: 2
Fore
SplineSet
308 1530 m 256,0,1
 175 1530 175 1530 84.5 1599 c 128,-1,2
 -6 1668 -6 1668 -24 1779 c 1,3,-1
 93 1779 l 1,4,5
 110 1726 110 1726 164.5 1696 c 128,-1,6
 219 1666 219 1666 310 1666 c 256,7,8
 401 1666 401 1666 454.5 1696.5 c 128,-1,9
 508 1727 508 1727 525 1779 c 1,10,-1
 642 1779 l 1,11,12
 621 1665 621 1665 531 1597.5 c 128,-1,13
 441 1530 441 1530 308 1530 c 256,0,1
EndSplineSet
EndChar

StartChar: Ohorn
Encoding: 416 416 425
Width: 1756
GlyphClass: 2
Flags: W
LayerCount: 2
Fore
SplineSet
1495 711 m 0,0,1
 1495 490 1495 490 1410.5 324 c 128,-1,2
 1326 158 1326 158 1168 69 c 128,-1,3
 1010 -20 1010 -20 795 -20 c 0,4,5
 578 -20 578 -20 420.5 68 c 128,-1,6
 263 156 263 156 180 322.5 c 128,-1,7
 97 489 97 489 97 711 c 0,8,9
 97 1049 97 1049 282 1239.5 c 128,-1,10
 467 1430 467 1430 797 1430 c 0,11,12
 1041 1430 1041 1430 1207 1322.5 c 128,-1,13
 1373 1215 1373 1215 1445 1019 c 1,14,15
 1533 1063 1533 1063 1567.5 1116 c 128,-1,16
 1602 1169 1602 1169 1602 1242 c 1,17,-1
 1514 1242 l 1,18,-1
 1514 1409 l 1,19,-1
 1709 1409 l 1,20,-1
 1709 1303 l 2,21,22
 1709 1180 1709 1180 1651.5 1088.5 c 128,-1,23
 1594 997 1594 997 1469 936 c 1,24,25
 1495 830 1495 830 1495 711 c 0,0,1
1300 711 m 0,26,27
 1300 974 1300 974 1168.5 1124 c 128,-1,28
 1037 1274 1037 1274 797 1274 c 0,29,30
 555 1274 555 1274 423 1126 c 128,-1,31
 291 978 291 978 291 711 c 0,32,33
 291 446 291 446 424.5 290.5 c 128,-1,34
 558 135 558 135 795 135 c 0,35,36
 1039 135 1039 135 1169.5 285.5 c 128,-1,37
 1300 436 1300 436 1300 711 c 0,26,27
EndSplineSet
EndChar

StartChar: uni0492
Encoding: 1170 1170 446
Width: 1109
GlyphClass: 2
Flags: W
LayerCount: 2
Fore
SplineSet
-1 806 m 1,0,-1
 168 806 l 1,1,-1
 168 1410 l 1,2,-1
 1071 1410 l 1,3,-1
 1071 1254 l 1,4,-1
 359 1254 l 1,5,-1
 359 806 l 1,6,-1
 779 806 l 1,7,-1
 779 659 l 1,8,-1
 359 659 l 1,9,-1
 359 0 l 1,10,-1
 168 0 l 1,11,-1
 168 659 l 1,12,-1
 -1 659 l 1,13,-1
 -1 806 l 1,0,-1
EndSplineSet
EndChar

StartChar: uni0493
Encoding: 1171 1171 447
Width: 747
GlyphClass: 2
Flags: W
LayerCount: 2
Fore
SplineSet
687 1082 m 1,0,-1
 687 951 l 1,1,-1
 322 951 l 1,2,-1
 322 646 l 1,3,-1
 525 646 l 1,4,-1
 525 514 l 1,5,-1
 322 514 l 1,6,-1
 322 0 l 1,7,-1
 142 0 l 1,8,-1
 142 514 l 1,9,-1
 20 514 l 1,10,-1
 20 646 l 1,11,-1
 142 646 l 1,12,-1
 142 1082 l 1,13,-1
 687 1082 l 1,0,-1
EndSplineSet
EndChar

StartChar: uni049A
Encoding: 1178 1178 448
Width: 1193
GlyphClass: 2
Flags: W
LayerCount: 2
Fore
SplineSet
168 1409 m 1,0,-1
 359 1409 l 1,1,-1
 359 790 l 1,2,3
 434 790 434 790 479 810.5 c 128,-1,4
 524 831 524 831 573 886.5 c 128,-1,5
 622 942 622 942 729 1104 c 1,6,-1
 934 1409 l 1,7,-1
 1134 1409 l 1,8,-1
 851 999 l 2,9,10
 720 810 720 810 672 775 c 1,11,-1
 1076 160 l 1,12,-1
 1185 160 l 1,13,-1
 1185 -408 l 1,14,-1
 1005 -408 l 1,15,-1
 1005 0 l 1,16,-1
 959 0 l 1,17,-1
 532 683 l 1,18,19
 507 671 507 671 452.5 658 c 128,-1,20
 398 645 398 645 359 645 c 1,21,-1
 359 0 l 1,22,-1
 168 0 l 1,23,-1
 168 1409 l 1,0,-1
EndSplineSet
EndChar

StartChar: uni049B
Encoding: 1179 1179 449
Width: 896
GlyphClass: 2
Flags: W
LayerCount: 2
Fore
SplineSet
138 1082 m 1,0,-1
 318 1082 l 1,1,-1
 318 608 l 1,2,3
 348 608 348 608 372 616 c 128,-1,4
 396 624 396 624 422 649.5 c 128,-1,5
 448 675 448 675 481 721 c 128,-1,6
 514 767 514 767 709 1082 c 1,7,-1
 897 1082 l 1,8,-1
 681 757 l 1,9,10
 588 621 588 621 553 592 c 1,11,-1
 828 131 l 1,12,-1
 906 131 l 1,13,-1
 906 -408 l 1,14,-1
 743 -408 l 1,15,-1
 743 0 l 1,16,-1
 706 0 l 1,17,-1
 428 497 l 1,18,19
 409 489 409 489 376.5 483 c 128,-1,20
 344 477 344 477 318 477 c 1,21,-1
 318 0 l 1,22,-1
 138 0 l 1,23,-1
 138 1082 l 1,0,-1
EndSplineSet
EndChar

StartChar: uni04A2
Encoding: 1186 1186 450
Width: 1479
GlyphClass: 2
Flags: W
LayerCount: 2
Fore
SplineSet
1121 653 m 1,0,-1
 359 653 l 1,1,-1
 359 0 l 1,2,-1
 168 0 l 1,3,-1
 168 1409 l 1,4,-1
 359 1409 l 1,5,-1
 359 813 l 1,6,-1
 1121 813 l 1,7,-1
 1121 1409 l 1,8,-1
 1312 1409 l 1,9,-1
 1312 160 l 1,10,-1
 1447 160 l 1,11,-1
 1447 -408 l 1,12,-1
 1267 -408 l 1,13,-1
 1267 0 l 1,14,-1
 1121 0 l 1,15,-1
 1121 653 l 1,0,-1
EndSplineSet
EndChar

StartChar: uni04A3
Encoding: 1187 1187 451
Width: 1131
GlyphClass: 2
Flags: W
LayerCount: 2
Fore
SplineSet
809 493 m 1,0,-1
 322 493 l 1,1,-1
 322 0 l 1,2,-1
 142 0 l 1,3,-1
 142 1082 l 1,4,-1
 322 1082 l 1,5,-1
 322 624 l 1,6,-1
 809 624 l 1,7,-1
 809 1082 l 1,8,-1
 989 1082 l 1,9,-1
 989 129 l 1,10,-1
 990 131 l 1,11,-1
 1111 131 l 1,12,-1
 1111 -408 l 1,13,-1
 948 -408 l 1,14,-1
 948 0 l 1,15,-1
 809 0 l 1,16,-1
 809 493 l 1,0,-1
EndSplineSet
EndChar

StartChar: uni04AE
Encoding: 1198 1198 452
Width: 1139
GlyphClass: 2
Flags: W
LayerCount: 2
Fore
SplineSet
662 584 m 1,0,-1
 662 0 l 1,1,-1
 472 0 l 1,2,-1
 472 584 l 1,3,-1
 20 1409 l 1,4,-1
 230 1409 l 1,5,-1
 524 833 l 1,6,-1
 569 730 l 1,7,-1
 614 832 l 1,8,-1
 909 1409 l 1,9,-1
 1119 1409 l 1,10,-1
 662 584 l 1,0,-1
EndSplineSet
EndChar

StartChar: uni04AF
Encoding: 1199 1199 453
Width: 1024
GlyphClass: 2
Flags: W
LayerCount: 2
Fore
SplineSet
418 -425 m 1,0,-1
 418 2 l 1,1,-1
 7 1082 l 1,2,-1
 199 1082 l 1,3,-1
 437 394 l 2,4,5
 450 354 450 354 506 157 c 1,6,-1
 522 210 l 1,7,-1
 580 392 l 1,8,-1
 826 1082 l 1,9,-1
 1017 1082 l 1,10,-1
 598 0 l 1,11,-1
 598 -425 l 1,12,-1
 418 -425 l 1,0,-1
EndSplineSet
EndChar

StartChar: uni04B0
Encoding: 1200 1200 454
Width: 1139
GlyphClass: 2
Flags: W
LayerCount: 2
Fore
SplineSet
62 736 m 1,0,-1
 388 736 l 1,1,-1
 20 1409 l 1,2,-1
 230 1409 l 1,3,-1
 524 833 l 1,4,-1
 569 730 l 1,5,-1
 614 832 l 1,6,-1
 909 1409 l 1,7,-1
 1119 1409 l 1,8,-1
 746 736 l 1,9,-1
 1072 736 l 1,10,-1
 1072 584 l 1,11,-1
 662 584 l 1,12,-1
 662 0 l 1,13,-1
 472 0 l 1,14,-1
 472 584 l 1,15,-1
 62 584 l 1,16,-1
 62 736 l 1,0,-1
EndSplineSet
EndChar

StartChar: uni04B1
Encoding: 1201 1201 455
Width: 1024
GlyphClass: 2
Flags: W
LayerCount: 2
Fore
SplineSet
100 0 m 1,0,-1
 418 0 l 1,1,-1
 7 1082 l 1,2,-1
 199 1082 l 1,3,-1
 437 394 l 2,4,5
 450 354 450 354 506 157 c 1,6,-1
 522 210 l 1,7,-1
 580 392 l 1,8,-1
 826 1082 l 1,9,-1
 1017 1082 l 1,10,-1
 598 0 l 1,11,-1
 916 0 l 1,12,-1
 916 -138 l 1,13,-1
 598 -138 l 1,14,-1
 598 -425 l 1,15,-1
 418 -425 l 1,16,-1
 418 -138 l 1,17,-1
 100 -138 l 1,18,-1
 100 0 l 1,0,-1
EndSplineSet
EndChar

StartChar: uni04BA
Encoding: 1210 1210 456
Width: 1365
GlyphClass: 2
Flags: W
LayerCount: 2
Fore
SplineSet
1047 0 m 1,0,-1
 1047 575 l 2,1,2
 1047 697 1047 697 983 751.5 c 128,-1,3
 919 806 919 806 786 806 c 0,4,5
 609 806 609 806 359 756 c 1,6,-1
 359 0 l 1,7,-1
 169 0 l 1,8,-1
 169 1409 l 1,9,-1
 359 1409 l 1,10,-1
 359 901 l 1,11,12
 625 960 625 960 794 960 c 0,13,14
 1237 960 1237 960 1237 595 c 2,15,-1
 1237 0 l 1,16,-1
 1047 0 l 1,0,-1
EndSplineSet
EndChar

StartChar: uni04E8
Encoding: 1256 1256 458
Width: 1593
GlyphClass: 2
Flags: W
LayerCount: 2
Fore
SplineSet
1495 711 m 0,0,1
 1495 490 1495 490 1410.5 324 c 128,-1,2
 1326 158 1326 158 1168 69 c 128,-1,3
 1010 -20 1010 -20 795 -20 c 0,4,5
 578 -20 578 -20 420.5 68 c 128,-1,6
 263 156 263 156 180 322.5 c 128,-1,7
 97 489 97 489 97 711 c 0,8,9
 97 1049 97 1049 282 1239.5 c 128,-1,10
 467 1430 467 1430 797 1430 c 0,11,12
 1012 1430 1012 1430 1170 1344.5 c 128,-1,13
 1328 1259 1328 1259 1411.5 1096 c 128,-1,14
 1495 933 1495 933 1495 711 c 0,0,1
795 135 m 0,15,16
 1026 135 1026 135 1155.5 270 c 128,-1,17
 1285 405 1285 405 1298 652 c 1,18,-1
 293 652 l 1,19,20
 308 413 308 413 439.5 274 c 128,-1,21
 571 135 571 135 795 135 c 0,15,16
797 1274 m 0,22,23
 580 1274 580 1274 450.5 1154 c 128,-1,24
 321 1034 321 1034 296 813 c 1,25,-1
 1294 813 l 1,26,27
 1269 1032 1269 1032 1139 1153 c 128,-1,28
 1009 1274 1009 1274 797 1274 c 0,22,23
EndSplineSet
EndChar

StartChar: uni04E9
Encoding: 1257 1257 459
Width: 1139
GlyphClass: 2
Flags: W
LayerCount: 2
Fore
SplineSet
1053 542 m 0,0,1
 1053 258 1053 258 928 119 c 128,-1,2
 803 -20 803 -20 565 -20 c 0,3,4
 328 -20 328 -20 207 124.5 c 128,-1,5
 86 269 86 269 86 542 c 0,6,7
 86 1102 86 1102 571 1102 c 0,8,9
 819 1102 819 1102 936 965.5 c 128,-1,10
 1053 829 1053 829 1053 542 c 0,0,1
563 113 m 0,11,12
 715 113 715 113 785.5 204 c 128,-1,13
 856 295 856 295 863 494 c 1,14,-1
 276 494 l 1,15,16
 283 304 283 304 352.5 208.5 c 128,-1,17
 422 113 422 113 563 113 c 0,11,12
574 969 m 0,18,19
 432 969 432 969 361.5 886.5 c 128,-1,20
 291 804 291 804 278 625 c 1,21,-1
 861 625 l 1,22,23
 850 801 850 801 784 885 c 128,-1,24
 718 969 718 969 574 969 c 0,18,19
EndSplineSet
EndChar

StartChar: uniFE20
Encoding: 65056 65056 468
Width: 0
GlyphClass: 2
Flags: W
LayerCount: 2
Fore
SplineSet
4 1463 m 1,0,-1
 0 1463 l 2,1,2
 -235 1463 -235 1463 -399.5 1404 c 128,-1,3
 -564 1345 -564 1345 -658 1215 c 1,4,-1
 -791 1215 l 1,5,6
 -671 1405 -671 1405 -480 1495.5 c 128,-1,7
 -289 1586 -289 1586 -20 1586 c 2,8,-1
 4 1586 l 1,9,-1
 4 1463 l 1,0,-1
EndSplineSet
EndChar

StartChar: uniFE21
Encoding: 65057 65057 469
Width: 0
GlyphClass: 2
Flags: W
LayerCount: 2
Fore
SplineSet
-3 1586 m 1,0,-1
 21 1586 l 2,1,2
 289 1586 289 1586 480.5 1495.5 c 128,-1,3
 672 1405 672 1405 792 1215 c 1,4,-1
 659 1215 l 1,5,6
 565 1345 565 1345 400.5 1404 c 128,-1,7
 236 1463 236 1463 1 1463 c 2,8,-1
 -3 1463 l 1,9,-1
 -3 1586 l 1,0,-1
EndSplineSet
EndChar

StartChar: uniFE22
Encoding: 65058 65058 470
Width: 0
GlyphClass: 2
Flags: W
LayerCount: 2
Fore
SplineSet
0 1275 m 1,0,1
 -96 1298 -96 1298 -184 1318.5 c 128,-1,2
 -272 1339 -272 1339 -342 1339 c 0,3,4
 -433 1339 -433 1339 -489.5 1327.5 c 128,-1,5
 -546 1316 -546 1316 -577 1293 c 128,-1,6
 -608 1270 -608 1270 -626 1220 c 1,7,-1
 -772 1220 l 1,8,9
 -740 1363 -740 1363 -630 1425.5 c 128,-1,10
 -520 1488 -520 1488 -334 1488 c 0,11,12
 -215 1488 -215 1488 0 1435 c 1,13,-1
 0 1275 l 1,0,1
EndSplineSet
EndChar

StartChar: uniFE23
Encoding: 65059 65059 471
Width: 0
GlyphClass: 2
Flags: W
LayerCount: 2
Fore
SplineSet
0 1435 m 1,0,1
 97 1411 97 1411 185.5 1390 c 128,-1,2
 274 1369 274 1369 343 1369 c 0,3,4
 475 1369 475 1369 540 1395 c 128,-1,5
 605 1421 605 1421 625 1488 c 1,6,-1
 773 1488 l 1,7,8
 748 1386 748 1386 693.5 1329.5 c 128,-1,9
 639 1273 639 1273 550 1246.5 c 128,-1,10
 461 1220 461 1220 339 1220 c 0,11,12
 261 1220 261 1220 174.5 1237 c 128,-1,13
 88 1254 88 1254 0 1275 c 1,14,-1
 0 1435 l 1,0,1
EndSplineSet
EndChar

StartChar: uni2C60
Encoding: 11360 11360 473
Width: 1139
GlyphClass: 2
Flags: W
LayerCount: 2
Fore
SplineSet
168 0 m 1,0,-1
 168 484 l 1,1,-1
 25 484 l 1,2,-1
 25 617 l 1,3,-1
 168 617 l 1,4,-1
 168 765 l 1,5,-1
 25 765 l 1,6,-1
 25 898 l 1,7,-1
 168 898 l 1,8,-1
 168 1409 l 1,9,-1
 359 1409 l 1,10,-1
 359 898 l 1,11,-1
 747 898 l 1,12,-1
 747 765 l 1,13,-1
 359 765 l 1,14,-1
 359 617 l 1,15,-1
 747 617 l 1,16,-1
 747 484 l 1,17,-1
 359 484 l 1,18,-1
 359 156 l 1,19,-1
 1071 156 l 1,20,-1
 1071 0 l 1,21,-1
 168 0 l 1,0,-1
EndSplineSet
EndChar

StartChar: uni2C61
Encoding: 11361 11361 474
Width: 455
GlyphClass: 2
Flags: W
LayerCount: 2
Fore
SplineSet
138 0 m 1,0,-1
 138 524 l 1,1,-1
 28 524 l 1,2,-1
 28 657 l 1,3,-1
 138 657 l 1,4,-1
 138 805 l 1,5,-1
 28 805 l 1,6,-1
 28 938 l 1,7,-1
 138 938 l 1,8,-1
 138 1484 l 1,9,-1
 318 1484 l 1,10,-1
 318 938 l 1,11,-1
 428 938 l 1,12,-1
 428 805 l 1,13,-1
 318 805 l 1,14,-1
 318 657 l 1,15,-1
 428 657 l 1,16,-1
 428 524 l 1,17,-1
 318 524 l 1,18,-1
 318 0 l 1,19,-1
 138 0 l 1,0,-1
EndSplineSet
EndChar

StartChar: uni2C62
Encoding: 11362 11362 475
Width: 1139
GlyphClass: 2
Flags: W
LayerCount: 2
Fore
SplineSet
218 0 m 1,0,-1
 218 697 l 1,1,-1
 183 701 l 1,2,3
 144 701 144 701 130.5 677 c 128,-1,4
 117 653 117 653 117 606 c 1,5,-1
 -13 606 l 1,6,7
 -11 710 -11 710 42.5 772 c 128,-1,8
 96 834 96 834 180 834 c 1,9,-1
 218 831 l 1,10,-1
 218 1409 l 1,11,-1
 409 1409 l 1,12,-1
 409 759 l 1,13,14
 437 754 437 754 463 754 c 0,15,16
 494 754 494 754 507 777.5 c 128,-1,17
 520 801 520 801 526 849 c 1,18,-1
 656 849 l 1,19,20
 656 735 656 735 611 678 c 128,-1,21
 566 621 566 621 470 621 c 0,22,23
 437 621 437 621 409 626 c 1,24,-1
 409 156 l 1,25,-1
 1088 156 l 1,26,-1
 1088 0 l 1,27,-1
 218 0 l 1,0,-1
EndSplineSet
EndChar

StartChar: uni2C63
Encoding: 11363 11363 476
Width: 1366
GlyphClass: 2
Flags: W
LayerCount: 2
Fore
SplineSet
26 1039 m 1,0,-1
 168 1039 l 1,1,-1
 168 1409 l 1,2,-1
 761 1409 l 2,3,4
 998 1409 998 1409 1128 1298 c 128,-1,5
 1258 1187 1258 1187 1258 985 c 0,6,7
 1258 785 1258 785 1127.5 667 c 128,-1,8
 997 549 997 549 773 549 c 2,9,-1
 359 549 l 1,10,-1
 359 0 l 1,11,-1
 168 0 l 1,12,-1
 168 906 l 1,13,-1
 26 906 l 1,14,-1
 26 1039 l 1,0,-1
1066 983 m 0,15,16
 1066 1256 1066 1256 738 1256 c 2,17,-1
 359 1256 l 1,18,-1
 359 1039 l 1,19,-1
 707 1039 l 1,20,-1
 707 906 l 1,21,-1
 359 906 l 1,22,-1
 359 700 l 1,23,-1
 746 700 l 2,24,25
 1066 700 1066 700 1066 983 c 0,15,16
EndSplineSet
EndChar

StartChar: uni2C64
Encoding: 11364 11364 477
Width: 1479
GlyphClass: 2
Flags: W
LayerCount: 2
Fore
SplineSet
1164 0 m 1,0,-1
 798 585 l 1,1,-1
 359 585 l 1,2,-1
 359 -109 l 2,3,4
 359 -190 359 -190 382.5 -228 c 128,-1,5
 406 -266 406 -266 458 -266 c 0,6,7
 518 -266 518 -266 568 -250 c 1,8,-1
 568 -408 l 1,9,10
 498 -425 498 -425 436 -425 c 0,11,12
 307 -425 307 -425 237.5 -351 c 128,-1,13
 168 -277 168 -277 168 -141 c 2,14,-1
 168 1409 l 1,15,-1
 831 1409 l 2,16,17
 1069 1409 1069 1409 1198.5 1302.5 c 128,-1,18
 1328 1196 1328 1196 1328 1006 c 0,19,20
 1328 849 1328 849 1236.5 742 c 128,-1,21
 1145 635 1145 635 984 607 c 1,22,-1
 1384 0 l 1,23,-1
 1164 0 l 1,0,-1
1136 1004 m 0,24,25
 1136 1127 1136 1127 1052.5 1191.5 c 128,-1,26
 969 1256 969 1256 812 1256 c 2,27,-1
 359 1256 l 1,28,-1
 359 736 l 1,29,-1
 820 736 l 2,30,31
 971 736 971 736 1053.5 806.5 c 128,-1,32
 1136 877 1136 877 1136 1004 c 0,24,25
EndSplineSet
EndChar

StartChar: uni2C65
Encoding: 11365 11365 478
Width: 1139
GlyphClass: 2
Flags: W
LayerCount: 2
Fore
SplineSet
80 -424 m 1,0,-1
 270 2 l 1,1,2
 87 68 87 68 87 302 c 0,3,4
 87 470 87 470 197.5 560 c 128,-1,5
 308 650 308 650 554 656 c 1,6,-1
 562 656 l 1,7,-1
 690 943 l 1,8,9
 642 965 642 965 565 965 c 0,10,11
 444 965 444 965 389 924 c 128,-1,12
 334 883 334 883 323 793 c 1,13,-1
 135 810 l 1,14,15
 181 1102 181 1102 569 1102 c 0,16,17
 669 1102 669 1102 750 1077 c 1,18,-1
 932 1484 l 1,19,-1
 1074 1484 l 1,20,-1
 865 1016 l 1,21,22
 979 922 979 922 979 738 c 2,23,-1
 979 272 l 2,24,25
 979 192 979 192 1000 151.5 c 128,-1,26
 1021 111 1021 111 1080 111 c 0,27,28
 1106 111 1106 111 1139 118 c 1,29,-1
 1139 6 l 1,30,31
 1071 -10 1071 -10 1000 -10 c 0,32,33
 900 -10 900 -10 854.5 42.5 c 128,-1,34
 809 95 809 95 803 207 c 1,35,-1
 797 207 l 1,36,37
 728 83 728 83 636.5 31.5 c 128,-1,38
 545 -20 545 -20 414 -20 c 2,39,-1
 403 -20 l 1,40,-1
 223 -424 l 1,41,-1
 80 -424 l 1,0,-1
463 115 m 1,42,43
 560 116 560 116 636 163.5 c 128,-1,44
 712 211 712 211 754.5 287.5 c 128,-1,45
 797 364 797 364 797 445 c 2,46,-1
 797 534 l 1,47,-1
 649 531 l 1,48,-1
 463 115 l 1,42,43
272 299 m 0,49,50
 272 196 272 196 336 149 c 1,51,-1
 503 524 l 1,52,53
 380 509 380 509 326 454 c 128,-1,54
 272 399 272 399 272 299 c 0,49,50
797 719 m 2,55,56
 797 792 797 792 783 832 c 1,57,-1
 706 658 l 1,58,-1
 797 660 l 1,59,-1
 797 719 l 2,55,56
EndSplineSet
EndChar

StartChar: uni2C66
Encoding: 11366 11366 479
Width: 569
GlyphClass: 2
Flags: W
LayerCount: 2
Fore
SplineSet
-134 -424 m 1,0,-1
 156 231 l 1,1,-1
 156 951 l 1,2,-1
 31 951 l 1,3,-1
 31 1082 l 1,4,-1
 163 1082 l 1,5,-1
 216 1324 l 1,6,-1
 336 1324 l 1,7,-1
 336 1082 l 1,8,-1
 532 1082 l 1,9,-1
 710 1484 l 1,10,-1
 852 1484 l 1,11,-1
 336 316 l 1,12,-1
 336 268 l 2,13,14
 336 190 336 190 361.5 158.5 c 128,-1,15
 387 127 387 127 450 127 c 0,16,17
 486 127 486 127 554 141 c 1,18,-1
 554 8 l 1,19,20
 465 -16 465 -16 372 -16 c 0,21,22
 268 -16 268 -16 214 40 c 1,23,-1
 9 -424 l 1,24,-1
 -134 -424 l 1,0,-1
336 623 m 1,25,-1
 474 951 l 1,26,-1
 336 951 l 1,27,-1
 336 623 l 1,25,-1
EndSplineSet
EndChar

StartChar: uni2C67
Encoding: 11367 11367 480
Width: 1479
GlyphClass: 2
Flags: W
LayerCount: 2
Fore
SplineSet
1274 0 m 1,0,-1
 1121 0 l 1,1,-1
 1121 653 l 1,2,-1
 359 653 l 1,3,-1
 359 0 l 1,4,-1
 168 0 l 1,5,-1
 168 1409 l 1,6,-1
 359 1409 l 1,7,-1
 359 813 l 1,8,-1
 1121 813 l 1,9,-1
 1121 1409 l 1,10,-1
 1312 1409 l 1,11,-1
 1312 160 l 1,12,-1
 1451 160 l 1,13,-1
 1451 -408 l 1,14,-1
 1274 -408 l 1,15,-1
 1274 0 l 1,0,-1
EndSplineSet
EndChar

StartChar: uni2C68
Encoding: 11368 11368 481
Width: 1139
GlyphClass: 2
Flags: W
LayerCount: 2
Fore
SplineSet
317 897 m 1,0,1
 375 1003 375 1003 456.5 1052.5 c 128,-1,2
 538 1102 538 1102 663 1102 c 0,3,4
 839 1102 839 1102 922.5 1014.5 c 128,-1,5
 1006 927 1006 927 1006 721 c 2,6,-1
 1006 131 l 1,7,-1
 1123 131 l 1,8,-1
 1123 -408 l 1,9,-1
 960 -408 l 1,10,-1
 960 0 l 1,11,-1
 825 0 l 1,12,-1
 825 686 l 2,13,14
 825 800 825 800 804 855.5 c 128,-1,15
 783 911 783 911 735 937 c 128,-1,16
 687 963 687 963 602 963 c 0,17,18
 475 963 475 963 398.5 875 c 128,-1,19
 322 787 322 787 322 638 c 2,20,-1
 322 0 l 1,21,-1
 142 0 l 1,22,-1
 142 1484 l 1,23,-1
 322 1484 l 1,24,-1
 322 1098 l 2,25,26
 322 1037 322 1037 318.5 972 c 128,-1,27
 315 907 315 907 314 897 c 1,28,-1
 317 897 l 1,0,1
EndSplineSet
EndChar

StartChar: uni2C69
Encoding: 11369 11369 482
Width: 1366
GlyphClass: 2
Flags: W
LayerCount: 2
Fore
SplineSet
663 797 m 1,0,-1
 1206 160 l 1,1,-1
 1345 160 l 1,2,-1
 1345 -408 l 1,3,-1
 1168 -408 l 1,4,-1
 1168 0 l 1,5,-1
 1106 0 l 1,6,-1
 543 680 l 1,7,-1
 359 540 l 1,8,-1
 359 0 l 1,9,-1
 168 0 l 1,10,-1
 168 1409 l 1,11,-1
 359 1409 l 1,12,-1
 359 703 l 1,13,-1
 1038 1409 l 1,14,-1
 1263 1409 l 1,15,-1
 663 797 l 1,0,-1
EndSplineSet
EndChar

StartChar: uni2C6A
Encoding: 11370 11370 483
Width: 1024
GlyphClass: 2
Flags: W
LayerCount: 2
Fore
SplineSet
450 494 m 1,0,-1
 318 385 l 1,1,-1
 318 0 l 1,2,-1
 138 0 l 1,3,-1
 138 1484 l 1,4,-1
 318 1484 l 1,5,-1
 318 557 l 1,6,-1
 793 1082 l 1,7,-1
 1004 1082 l 1,8,-1
 565 617 l 1,9,-1
 924 131 l 1,10,-1
 1021 131 l 1,11,-1
 1021 -408 l 1,12,-1
 858 -408 l 1,13,-1
 858 0 l 1,14,-1
 811 0 l 1,15,-1
 450 494 l 1,0,-1
EndSplineSet
EndChar

StartChar: uni2C6B
Encoding: 11371 11371 484
Width: 1251
GlyphClass: 2
Flags: W
LayerCount: 2
Fore
SplineSet
1187 -408 m 1,0,-1
 1010 -408 l 1,1,-1
 1010 0 l 1,2,-1
 65 0 l 1,3,-1
 65 143 l 1,4,-1
 923 1253 l 1,5,-1
 138 1253 l 1,6,-1
 138 1409 l 1,7,-1
 1140 1409 l 1,8,-1
 1140 1270 l 1,9,-1
 282 156 l 1,10,-1
 1187 156 l 1,11,-1
 1187 -408 l 1,0,-1
EndSplineSet
EndChar

StartChar: uni2C6C
Encoding: 11372 11372 485
Width: 1024
GlyphClass: 2
Flags: W
LayerCount: 2
Fore
SplineSet
49 0 m 1,0,-1
 49 137 l 1,1,-1
 710 943 l 1,2,-1
 89 943 l 1,3,-1
 89 1082 l 1,4,-1
 913 1082 l 1,5,-1
 913 945 l 1,6,-1
 251 139 l 1,7,-1
 950 139 l 1,8,-1
 950 -408 l 1,9,-1
 787 -408 l 1,10,-1
 787 0 l 1,11,-1
 49 0 l 1,0,-1
EndSplineSet
EndChar

StartChar: uni2C74
Encoding: 11380 11380 486
Width: 1024
GlyphClass: 2
Flags: W
LayerCount: 2
Fore
SplineSet
1017 1082 m 1,0,-1
 613 0 l 1,1,-1
 400 0 l 1,2,-1
 202 547 l 1,3,-1
 96 511 l 1,4,-1
 45 639 l 1,5,6
 115 659 115 659 156 675 c 1,7,8
 118 789 118 789 118 861 c 0,9,10
 118 963 118 963 183 1028 c 128,-1,11
 248 1093 248 1093 356 1093 c 0,12,13
 448 1093 448 1093 504.5 1033 c 128,-1,14
 561 973 561 973 561 874 c 0,15,16
 561 785 561 785 511.5 721 c 128,-1,17
 462 657 462 657 352 605 c 1,18,-1
 437 378 l 2,19,20
 456 329 456 329 492 194 c 2,21,-1
 506 141 l 1,22,-1
 522 194 l 1,23,-1
 580 376 l 1,24,-1
 826 1082 l 1,25,-1
 1017 1082 l 1,0,-1
273 860 m 0,26,27
 273 815 273 815 307 730 c 1,28,29
 412 789 412 789 412 866 c 0,30,31
 412 900 412 900 395 921.5 c 128,-1,32
 378 943 378 943 349 943 c 256,33,34
 320 943 320 943 296.5 923.5 c 128,-1,35
 273 904 273 904 273 860 c 0,26,27
EndSplineSet
EndChar

StartChar: uni2C75
Encoding: 11381 11381 487
Width: 1182
GlyphClass: 2
Flags: W
LayerCount: 2
Fore
SplineSet
1121 653 m 1,0,-1
 359 653 l 1,1,-1
 359 0 l 1,2,-1
 168 0 l 1,3,-1
 168 1409 l 1,4,-1
 359 1409 l 1,5,-1
 359 813 l 1,6,-1
 1121 813 l 1,7,-1
 1121 653 l 1,0,-1
EndSplineSet
EndChar

StartChar: uni2C76
Encoding: 11382 11382 488
Width: 871
GlyphClass: 2
Flags: W
LayerCount: 2
Fore
SplineSet
322 1082 m 1,0,-1
 322 624 l 1,1,-1
 809 624 l 1,2,-1
 809 493 l 1,3,-1
 322 493 l 1,4,-1
 322 0 l 1,5,-1
 142 0 l 1,6,-1
 142 1082 l 1,7,-1
 322 1082 l 1,0,-1
EndSplineSet
EndChar

StartChar: uni2C77
Encoding: 11383 11383 489
Width: 1328
GlyphClass: 2
Flags: W
LayerCount: 2
Fore
SplineSet
1242 565 m 0,0,1
 1242 -20 1242 -20 658 -20 c 0,2,3
 366 -20 366 -20 225.5 122 c 128,-1,4
 85 264 85 264 85 545 c 0,5,6
 85 776 85 776 196.5 925 c 128,-1,7
 308 1074 308 1074 505 1106 c 1,8,-1
 526 970 l 1,9,10
 402 943 402 943 338 834 c 128,-1,11
 274 725 274 725 274 541 c 0,12,13
 274 335 274 335 345.5 233 c 128,-1,14
 417 131 417 131 572 122 c 1,15,-1
 572 699 l 2,16,17
 572 892 572 892 649 998 c 128,-1,18
 726 1104 726 1104 884 1104 c 0,19,20
 1051 1104 1051 1104 1146.5 958 c 128,-1,21
 1242 812 1242 812 1242 565 c 0,0,1
1053 567 m 0,22,23
 1053 760 1053 760 1009.5 865.5 c 128,-1,24
 966 971 966 971 886 971 c 0,25,26
 742 971 742 971 742 702 c 2,27,-1
 742 122 l 1,28,29
 903 129 903 129 978 237 c 128,-1,30
 1053 345 1053 345 1053 567 c 0,22,23
EndSplineSet
EndChar

StartChar: zero.alt
Encoding: 65788 -1 490
Width: 0
GlyphClass: 2
Flags: W
LayerCount: 2
Fore
SplineSet
306 490 m 0,0,1
 306 301 306 301 227 203.5 c 128,-1,2
 148 106 148 106 -3 106 c 0,3,4
 -153 106 -153 106 -230.5 202.5 c 128,-1,5
 -308 299 -308 299 -308 490 c 0,6,7
 -308 684 -308 684 -233.5 779 c 128,-1,8
 -159 874 -159 874 1 874 c 0,9,10
 157 874 157 874 231.5 777.5 c 128,-1,11
 306 681 306 681 306 490 c 0,0,1
160 490 m 0,12,13
 160 629 160 629 122 693 c 128,-1,14
 84 757 84 757 1 757 c 0,15,16
 -85 757 -85 757 -123.5 692.5 c 128,-1,17
 -162 628 -162 628 -162 490 c 0,18,19
 -162 358 -162 358 -123 290.5 c 128,-1,20
 -84 223 -84 223 -2 223 c 0,21,22
 160 223 160 223 160 490 c 0,12,13
EndSplineSet
EndChar

StartChar: one.alt
Encoding: 65789 -1 491
Width: 0
GlyphClass: 2
Flags: W
LayerCount: 2
Fore
SplineSet
31 125 m 1,0,-1
 31 726 l 1,1,-1
 -168 606 l 1,2,-1
 -168 746 l 1,3,-1
 40 867 l 1,4,-1
 167 867 l 1,5,-1
 167 125 l 1,6,-1
 31 125 l 1,0,-1
EndSplineSet
EndChar

StartChar: two.alt
Encoding: 65790 -1 492
Width: 0
GlyphClass: 2
Flags: W
LayerCount: 2
Fore
SplineSet
-291 125 m 1,0,-1
 -291 192 l 1,1,2
 -255 262 -255 262 -194 324 c 128,-1,3
 -133 386 -133 386 -33 456 c 0,4,5
 59 520 59 520 93.5 561.5 c 128,-1,6
 128 603 128 603 128 647 c 0,7,8
 128 701 128 701 93 729 c 128,-1,9
 58 757 58 757 -3 757 c 0,10,11
 -61 757 -61 757 -102.5 730 c 128,-1,12
 -144 703 -144 703 -152 650 c 1,13,-1
 -286 679 l 1,14,15
 -275 767 -275 767 -197 820.5 c 128,-1,16
 -119 874 -119 874 2 874 c 0,17,18
 133 874 133 874 205.5 818 c 128,-1,19
 278 762 278 762 278 662 c 0,20,21
 278 593 278 593 236 534 c 128,-1,22
 194 475 194 475 113 421 c 0,23,24
 -9 340 -9 340 -51.5 305.5 c 128,-1,25
 -94 271 -94 271 -115 235 c 1,26,-1
 292 235 l 1,27,-1
 292 125 l 1,28,-1
 -291 125 l 1,0,-1
EndSplineSet
EndChar

StartChar: three.alt
Encoding: 65791 -1 493
Width: 0
GlyphClass: 2
Flags: W
LayerCount: 2
Fore
SplineSet
304 331 m 0,0,1
 304 228 304 228 227 167 c 128,-1,2
 150 106 150 106 4 106 c 0,3,4
 -127 106 -127 106 -208.5 160.5 c 128,-1,5
 -290 215 -290 215 -304 309 c 1,6,-1
 -157 335 l 1,7,8
 -139 223 -139 223 3 223 c 0,9,10
 75 223 75 223 116 255 c 128,-1,11
 157 287 157 287 157 346 c 0,12,13
 157 452 157 452 -29 452 c 2,14,-1
 -92 452 l 1,15,-1
 -78 559 l 1,16,-1
 -27 559 l 2,17,18
 60 559 60 559 98.5 582.5 c 128,-1,19
 137 606 137 606 137 655 c 0,20,21
 137 756 137 756 -3 756 c 0,22,23
 -136 756 -136 756 -148 658 c 1,24,-1
 -288 673 l 1,25,26
 -277 764 -277 764 -199 819 c 128,-1,27
 -121 874 -121 874 0 874 c 0,28,29
 132 874 132 874 205.5 818 c 128,-1,30
 279 762 279 762 279 668 c 0,31,32
 279 533 279 533 105 500 c 1,33,-1
 105 498 l 1,34,35
 304 479 304 479 304 331 c 0,0,1
EndSplineSet
EndChar

StartChar: four.alt
Encoding: 65792 -1 494
Width: 0
GlyphClass: 2
Flags: W
LayerCount: 2
Fore
SplineSet
208 284 m 1,0,-1
 208 125 l 1,1,-1
 92 125 l 1,2,-1
 92 284 l 1,3,-1
 -318 284 l 1,4,-1
 -318 368 l 1,5,-1
 79 867 l 1,6,-1
 208 867 l 1,7,-1
 208 397 l 1,8,-1
 321 397 l 1,9,-1
 321 284 l 1,10,-1
 208 284 l 1,0,-1
85 715 m 1,11,-1
 49 662 l 1,12,-1
 -130 439 l 1,13,14
 -143 418 -143 418 -167 397 c 1,15,-1
 85 397 l 1,16,-1
 85 715 l 1,11,-1
EndSplineSet
EndChar

StartChar: five.alt
Encoding: 65793 -1 495
Width: 0
GlyphClass: 2
Flags: W
LayerCount: 2
Fore
SplineSet
305 378 m 0,0,1
 305 253 305 253 222.5 179.5 c 128,-1,2
 140 106 140 106 1 106 c 0,3,4
 -256 106 -256 106 -305 307 c 1,5,-1
 -158 331 l 1,6,7
 -138 272 -138 272 -98.5 245.5 c 128,-1,8
 -59 219 -59 219 3 219 c 0,9,10
 79 219 79 219 122.5 260.5 c 128,-1,11
 166 302 166 302 166 373 c 0,12,13
 166 440 166 440 129.5 481 c 128,-1,14
 93 522 93 522 13 522 c 0,15,16
 -50 522 -50 522 -90.5 502 c 128,-1,17
 -131 482 -131 482 -163 452 c 1,18,-1
 -280 452 l 1,19,-1
 -251 859 l 1,20,-1
 258 859 l 1,21,-1
 258 742 l 1,22,-1
 -140 742 l 1,23,-1
 -157 565 l 1,24,25
 -122 593 -122 593 -80 610.5 c 128,-1,26
 -38 628 -38 628 25 628 c 0,27,28
 155 628 155 628 230 560.5 c 128,-1,29
 305 493 305 493 305 378 c 0,0,1
EndSplineSet
EndChar

StartChar: six.alt
Encoding: 65794 -1 496
Width: 0
GlyphClass: 2
Flags: W
LayerCount: 2
Fore
SplineSet
297 367 m 0,0,1
 297 248 297 248 219 176.5 c 128,-1,2
 141 105 141 105 10 105 c 0,3,4
 -140 105 -140 105 -218.5 199 c 128,-1,5
 -297 293 -297 293 -297 472 c 0,6,7
 -297 671 -297 671 -213.5 772.5 c 128,-1,8
 -130 874 -130 874 18 874 c 0,9,10
 214 874 214 874 269 721 c 1,11,-1
 134 696 l 1,12,13
 106 772 106 772 12 772 c 0,14,15
 -66 772 -66 772 -111.5 710.5 c 128,-1,16
 -157 649 -157 649 -157 524 c 1,17,18
 -134 558 -134 558 -86 582.5 c 128,-1,19
 -38 607 -38 607 34 607 c 0,20,21
 152 607 152 607 224.5 543 c 128,-1,22
 297 479 297 479 297 367 c 0,0,1
152 356 m 0,23,24
 152 431 152 431 117 464.5 c 128,-1,25
 82 498 82 498 1 498 c 0,26,27
 -66 498 -66 498 -102 461 c 128,-1,28
 -138 424 -138 424 -138 356 c 0,29,30
 -138 287 -138 287 -101.5 248 c 128,-1,31
 -65 209 -65 209 5 209 c 0,32,33
 74 209 74 209 113 248 c 128,-1,34
 152 287 152 287 152 356 c 0,23,24
EndSplineSet
EndChar

StartChar: seven.alt
Encoding: 65795 -1 497
Width: 0
GlyphClass: 2
Flags: W
LayerCount: 2
Fore
SplineSet
291 764 m 1,0,1
 132 593 132 593 69.5 445 c 128,-1,2
 7 297 7 297 7 124 c 1,3,-1
 -141 124 l 1,4,5
 -141 274 -141 274 -77 419.5 c 128,-1,6
 -13 565 -13 565 152 749 c 1,7,-1
 -291 749 l 1,8,-1
 -291 860 l 1,9,-1
 291 860 l 1,10,-1
 291 764 l 1,0,1
EndSplineSet
EndChar

StartChar: eight.alt
Encoding: 65796 -1 498
Width: 0
GlyphClass: 2
Flags: W
LayerCount: 2
Fore
SplineSet
304 322 m 0,0,1
 304 217 304 217 225.5 161.5 c 128,-1,2
 147 106 147 106 4 106 c 256,3,4
 -139 106 -139 106 -218 162 c 128,-1,5
 -297 218 -297 218 -297 321 c 0,6,7
 -297 393 -297 393 -249 444 c 128,-1,8
 -201 495 -201 495 -121 507 c 1,9,-1
 -121 509 l 1,10,11
 -196 524 -196 524 -235.5 571 c 128,-1,12
 -275 618 -275 618 -275 680 c 0,13,14
 -275 766 -275 766 -199.5 820 c 128,-1,15
 -124 874 -124 874 2 874 c 0,16,17
 129 874 129 874 206 821 c 128,-1,18
 283 768 283 768 283 679 c 0,19,20
 283 618 283 618 242.5 571 c 128,-1,21
 202 524 202 524 126 510 c 1,22,-1
 126 508 l 1,23,24
 207 497 207 497 255.5 448 c 128,-1,25
 304 399 304 399 304 322 c 0,0,1
140 675 m 0,26,27
 140 780 140 780 2 780 c 0,28,29
 -135 780 -135 780 -135 675 c 0,30,31
 -135 621 -135 621 -100.5 592.5 c 128,-1,32
 -66 564 -66 564 3 564 c 0,33,34
 140 564 140 564 140 675 c 0,26,27
158 338 m 0,35,36
 158 396 158 396 117.5 425.5 c 128,-1,37
 77 455 77 455 2 455 c 0,38,39
 -71 455 -71 455 -111 423 c 128,-1,40
 -151 391 -151 391 -151 336 c 0,41,42
 -151 207 -151 207 6 207 c 0,43,44
 84 207 84 207 121 239 c 128,-1,45
 158 271 158 271 158 338 c 0,35,36
EndSplineSet
EndChar

StartChar: nine.alt
Encoding: 65797 -1 499
Width: 0
GlyphClass: 2
Flags: W
LayerCount: 2
Fore
SplineSet
-296 612 m 0,0,1
 -296 731 -296 731 -218 802.5 c 128,-1,2
 -140 874 -140 874 -9 874 c 0,3,4
 139 874 139 874 218.5 780.5 c 128,-1,5
 298 687 298 687 298 507 c 0,6,7
 298 307 298 307 222 206 c 128,-1,8
 146 105 146 105 -17 105 c 0,9,10
 -118 105 -118 105 -186 146.5 c 128,-1,11
 -254 188 -254 188 -282 265 c 1,12,-1
 -147 290 l 1,13,14
 -132 249 -132 249 -93 229.5 c 128,-1,15
 -54 210 -54 210 -11 210 c 0,16,17
 67 210 67 210 112.5 270 c 128,-1,18
 158 330 158 330 158 455 c 1,19,20
 135 421 135 421 87 396.5 c 128,-1,21
 39 372 39 372 -33 372 c 0,22,23
 -151 372 -151 372 -223.5 436 c 128,-1,24
 -296 500 -296 500 -296 612 c 0,0,1
-151 625 m 0,25,26
 -151 543 -151 543 -113 511 c 128,-1,27
 -75 479 -75 479 0 479 c 0,28,29
 67 479 67 479 103 517 c 128,-1,30
 139 555 139 555 139 625 c 0,31,32
 139 694 139 694 102.5 731 c 128,-1,33
 66 768 66 768 -4 768 c 0,34,35
 -73 768 -73 768 -112 731 c 128,-1,36
 -151 694 -151 694 -151 625 c 0,25,26
EndSplineSet
EndChar

StartChar: uni2C6D
Encoding: 11373 11373 500
Width: 1500
GlyphClass: 2
Flags: W
LayerCount: 2
Fore
SplineSet
1142 0 m 1,0,-1
 1142 71 l 1,1,2
 960 -20 960 -20 790 -20 c 0,3,4
 463 -20 463 -20 280 175 c 128,-1,5
 97 370 97 370 97 711 c 0,6,7
 97 1049 97 1049 282 1239.5 c 128,-1,8
 467 1430 467 1430 797 1430 c 0,9,10
 992 1430 992 1430 1152 1353 c 1,11,-1
 1302 1409 l 1,12,-1
 1333 1409 l 1,13,-1
 1333 0 l 1,14,-1
 1142 0 l 1,0,-1
790 133 m 0,15,16
 1024 133 1024 133 1142 236 c 1,17,-1
 1142 1177 l 1,18,19
 1027 1277 1027 1277 797 1277 c 0,20,21
 556 1277 556 1277 423.5 1128.5 c 128,-1,22
 291 980 291 980 291 711 c 0,23,24
 291 440 291 440 424.5 286.5 c 128,-1,25
 558 133 558 133 790 133 c 0,15,16
EndSplineSet
EndChar

StartChar: uni2C71
Encoding: 11377 11377 501
Width: 1222
GlyphClass: 2
Flags: W
LayerCount: 2
Fore
SplineSet
613 0 m 1,0,-1
 400 0 l 1,1,-1
 7 1082 l 1,2,-1
 199 1082 l 1,3,-1
 437 378 l 2,4,5
 450 338 450 338 506 141 c 1,6,-1
 522 194 l 1,7,-1
 580 376 l 1,8,-1
 722 840 l 2,9,10
 764 977 764 977 825 1039.5 c 128,-1,11
 886 1102 886 1102 990 1102 c 0,12,13
 1155 1102 1155 1102 1251 947 c 1,14,-1
 1145 847 l 1,15,16
 1104 907 1104 907 1074.5 926.5 c 128,-1,17
 1045 946 1045 946 1009 946 c 0,18,19
 967 946 967 946 942 917 c 128,-1,20
 917 888 917 888 894 820 c 2,21,-1
 613 0 l 1,0,-1
EndSplineSet
EndChar

StartChar: uni2C72
Encoding: 11378 11378 502
Width: 2124
GlyphClass: 2
Flags: W
LayerCount: 2
Fore
SplineSet
1969 1430 m 0,0,1
 2127 1430 2127 1430 2225 1283 c 1,2,-1
 2112 1176 l 1,3,4
 2046 1275 2046 1275 1973 1275 c 0,5,6
 1923 1275 1923 1275 1893 1246.5 c 128,-1,7
 1863 1218 1863 1218 1843 1149 c 2,8,-1
 1511 0 l 1,9,-1
 1283 0 l 1,10,-1
 1039 895 l 1,11,12
 1023 948 1023 948 1000.5 1046.5 c 128,-1,13
 978 1145 978 1145 969 1195 c 1,14,15
 951 1084 951 1084 898 895 c 1,16,-1
 652 0 l 1,17,-1
 424 0 l 1,18,-1
 9 1409 l 1,19,-1
 208 1409 l 1,20,-1
 461 514 l 1,21,22
 506 346 506 346 544 168 c 1,23,24
 568 278 568 278 599.5 408 c 128,-1,25
 631 538 631 538 877 1409 c 1,26,-1
 1060 1409 l 1,27,-1
 1305 532 l 1,28,29
 1361 317 1361 317 1393 168 c 1,30,-1
 1402 203 l 1,31,32
 1459 447 1459 447 1478 514 c 2,33,-1
 1664 1179 l 1,34,35
 1699 1308 1699 1308 1770 1369 c 128,-1,36
 1841 1430 1841 1430 1969 1430 c 0,0,1
EndSplineSet
EndChar

StartChar: uni2C73
Encoding: 11379 11379 503
Width: 1722
GlyphClass: 2
Flags: W
LayerCount: 2
Fore
SplineSet
1174 0 m 1,0,-1
 965 0 l 1,1,-1
 792 698 l 1,2,-1
 740 933 l 1,3,-1
 733 898 l 1,4,-1
 686 694 l 1,5,-1
 508 0 l 1,6,-1
 300 0 l 1,7,-1
 -3 1082 l 1,8,-1
 175 1082 l 1,9,-1
 358 353 l 2,10,11
 367 320 367 320 401 150 c 1,12,-1
 436 294 l 1,13,-1
 644 1082 l 1,14,-1
 837 1082 l 1,15,-1
 1026 345 l 1,16,-1
 1072 149 l 1,17,18
 1097 287 1097 287 1117 353 c 1,19,-1
 1251 864 l 2,20,21
 1274 952 1274 952 1307.5 1004 c 128,-1,22
 1341 1056 1341 1056 1387 1079 c 128,-1,23
 1433 1102 1433 1102 1517 1102 c 0,24,25
 1591 1102 1591 1102 1652 1067 c 128,-1,26
 1713 1032 1713 1032 1766 947 c 1,27,-1
 1660 847 l 1,28,29
 1630 892 1630 892 1598.5 919 c 128,-1,30
 1567 946 1567 946 1524 946 c 0,31,32
 1480 946 1480 946 1453 915 c 128,-1,33
 1426 884 1426 884 1409 820 c 1,34,-1
 1174 0 l 1,0,-1
EndSplineSet
EndChar

StartChar: uni1FEF.short
Encoding: 65814 -1 504
Width: 682
GlyphClass: 2
Flags: W
LayerCount: 2
Fore
SplineSet
404 1590 m 1,0,-1
 203 1798 l 1,1,-1
 203 1835 l 1,2,-1
 410 1835 l 1,3,-1
 479 1623 l 1,4,-1
 479 1590 l 1,5,-1
 404 1590 l 1,0,-1
EndSplineSet
EndChar

StartChar: tonos.short
Encoding: 65815 -1 505
Width: 682
GlyphClass: 2
Flags: W
LayerCount: 2
Fore
SplineSet
203 1590 m 1,0,-1
 203 1623 l 1,1,-1
 272 1835 l 1,2,-1
 479 1835 l 1,3,-1
 479 1798 l 1,4,-1
 278 1590 l 1,5,-1
 203 1590 l 1,0,-1
EndSplineSet
EndChar

StartChar: uni2215
Encoding: 8725 8725 508
Width: 342
Flags: W
LayerCount: 2
Fore
SplineSet
-268 0 m 1,0,-1
 -416 0 l 1,1,-1
 465 1409 l 1,2,-1
 610 1409 l 1,3,-1
 -268 0 l 1,0,-1
EndSplineSet
EndChar

StartChar: uniFB01
Encoding: 64257 64257 509
Width: 1024
GlyphClass: 2
Flags: W
LayerCount: 2
Fore
SplineSet
361 951 m 1,0,-1
 361 0 l 1,1,-1
 181 0 l 1,2,-1
 181 951 l 1,3,-1
 29 951 l 1,4,-1
 29 1082 l 1,5,-1
 181 1082 l 1,6,-1
 181 1204 l 2,7,8
 181 1352 181 1352 246 1417 c 128,-1,9
 311 1482 311 1482 445 1482 c 0,10,11
 520 1482 520 1482 572 1470 c 1,12,-1
 572 1333 l 1,13,14
 527 1341 527 1341 492 1341 c 0,15,16
 423 1341 423 1341 392 1306 c 128,-1,17
 361 1271 361 1271 361 1179 c 2,18,-1
 361 1082 l 1,19,-1
 572 1082 l 1,20,-1
 572 951 l 1,21,-1
 361 951 l 1,0,-1
706 1312 m 1,22,-1
 706 1484 l 1,23,-1
 886 1484 l 1,24,-1
 886 1312 l 1,25,-1
 706 1312 l 1,22,-1
706 0 m 1,26,-1
 706 1082 l 1,27,-1
 886 1082 l 1,28,-1
 886 0 l 1,29,-1
 706 0 l 1,26,-1
EndSplineSet
EndChar

StartChar: uniFB02
Encoding: 64258 64258 510
Width: 1024
GlyphClass: 2
Flags: W
LayerCount: 2
Fore
SplineSet
361 951 m 1,0,-1
 361 0 l 1,1,-1
 181 0 l 1,2,-1
 181 951 l 1,3,-1
 29 951 l 1,4,-1
 29 1082 l 1,5,-1
 181 1082 l 1,6,-1
 181 1204 l 2,7,8
 181 1352 181 1352 246 1417 c 128,-1,9
 311 1482 311 1482 445 1482 c 0,10,11
 520 1482 520 1482 572 1470 c 1,12,-1
 572 1333 l 1,13,14
 527 1341 527 1341 492 1341 c 0,15,16
 423 1341 423 1341 392 1306 c 128,-1,17
 361 1271 361 1271 361 1179 c 2,18,-1
 361 1082 l 1,19,-1
 572 1082 l 1,20,-1
 572 951 l 1,21,-1
 361 951 l 1,0,-1
707 0 m 1,22,-1
 707 1484 l 1,23,-1
 887 1484 l 1,24,-1
 887 0 l 1,25,-1
 707 0 l 1,22,-1
EndSplineSet
EndChar

StartChar: uni04D8
Encoding: 1240 1240 511
Width: 1541
Flags: W
LayerCount: 2
Fore
SplineSet
772 126 m 0,0,1
 999 126 999 126 1124.5 263.5 c 0,2,3
 1250 401 1250 401 1261 652 c 1,4,-1
 276 652 l 1,5,6
 293 405 293 405 423 265.5 c 0,7,8
 553 126 553 126 772 126 c 0,0,1
1254 810 m 1,9,10
 1229 1028 1229 1028 1101 1151 c 0,11,12
 973 1274 973 1274 774 1274 c 0,13,14
 619 1274 619 1274 512.5 1207.5 c 0,15,16
 406 1141 406 1141 349 1020 c 1,17,-1
 167 1077 l 1,18,19
 245 1245 245 1245 398.5 1337.5 c 0,20,21
 552 1430 552 1430 774 1430 c 0,22,23
 982 1430 982 1430 1134 1343 c 0,24,25
 1286 1256 1286 1256 1366.5 1092.5 c 0,26,27
 1447 929 1447 929 1447 711 c 0,28,29
 1447 492 1447 492 1365 325.5 c 0,30,31
 1283 159 1283 159 1130 69.5 c 0,32,33
 977 -20 977 -20 772 -20 c 0,34,35
 563 -20 563 -20 409.5 69 c 0,36,37
 256 158 256 158 175 324.5 c 0,38,39
 94 491 94 491 94 711 c 0,40,41
 94 748 94 748 99 810 c 1,42,-1
 1254 810 l 1,9,10
EndSplineSet
EndChar

StartChar: afii10846
Encoding: 1241 1241 512
Width: 1139
Flags: W
LayerCount: 2
Fore
SplineSet
859 579 m 1,0,1
 859 765 859 765 782 866 c 0,2,3
 705 967 705 967 557 967 c 0,4,5
 440 967 440 967 369.5 920 c 0,6,7
 299 873 299 873 274 801 c 1,8,-1
 116 846 l 1,9,10
 213 1102 213 1102 557 1102 c 0,11,12
 797 1102 797 1102 922.5 959 c 0,13,14
 1048 816 1048 816 1048 534 c 0,15,16
 1048 266 1048 266 922.5 123 c 0,17,18
 797 -20 797 -20 564 -20 c 0,19,20
 87 -20 87 -20 87 555 c 2,21,-1
 87 579 l 1,22,-1
 859 579 l 1,0,1
273 441 m 1,23,24
 288 270 288 270 360 191.5 c 0,25,26
 432 113 432 113 567 113 c 0,27,28
 698 113 698 113 774.5 200.5 c 0,29,30
 851 288 851 288 857 441 c 1,31,-1
 273 441 l 1,23,24
EndSplineSet
EndChar
